<?xml version="1.0"?>
<svg width="227.89" height="288.63" xmlns="http://www.w3.org/2000/svg" xmlns:svg="http://www.w3.org/2000/svg">
 <style type="text/css">.st0{fill-rule:evenodd;clip-rule:evenodd;fill:#666666;}
	.st1{fill-rule:evenodd;clip-rule:evenodd;fill:#F4D431;}
	.st2{fill-rule:evenodd;clip-rule:evenodd;fill:#00007C;}
	.st3{fill-rule:evenodd;clip-rule:evenodd;fill:#00007C;stroke:#00007C;stroke-width:0.216;stroke-miterlimit:22.9256;}
	.st4{fill-rule:evenodd;clip-rule:evenodd;fill:#335BB7;}
	.st5{fill-rule:evenodd;clip-rule:evenodd;fill:#FFFFFF;}
	.st6{fill-rule:evenodd;clip-rule:evenodd;fill:#B50000;}
	.st7{fill-rule:evenodd;clip-rule:evenodd;fill:#353635;stroke:#353635;stroke-width:0.216;stroke-miterlimit:22.9256;}
	.st8{fill-rule:evenodd;clip-rule:evenodd;fill:#B1C6E4;}
	.st9{fill-rule:evenodd;clip-rule:evenodd;fill:#704452;}
	.st10{fill-rule:evenodd;clip-rule:evenodd;fill:#EBC934;}
	.st11{fill-rule:evenodd;clip-rule:evenodd;fill:#F0D132;}
	.st12{fill-rule:evenodd;clip-rule:evenodd;fill:#2F3173;}
	.st13{fill-rule:evenodd;clip-rule:evenodd;fill:#EED032;}
	.st14{fill-rule:evenodd;clip-rule:evenodd;fill:#3D5EA7;}
	.st15{fill-rule:evenodd;clip-rule:evenodd;fill:#6E1C1D;}
	.st16{fill-rule:evenodd;clip-rule:evenodd;fill:#666666;stroke:#666666;stroke-width:0.216;stroke-miterlimit:22.9256;}
	.st17{fill-rule:evenodd;clip-rule:evenodd;fill:#6C6B65;}
	.st18{fill-rule:evenodd;clip-rule:evenodd;}
	.st19{fill-rule:evenodd;clip-rule:evenodd;fill:#4D2F37;}
	.st20{fill-rule:evenodd;clip-rule:evenodd;fill:#3E3436;}
	.st21{fill-rule:evenodd;clip-rule:evenodd;fill:#3A3A37;stroke:#FFFFFF;stroke-width:0.216;stroke-miterlimit:22.9256;}
	.st22{fill-rule:evenodd;clip-rule:evenodd;fill:#3A3A37;}
	.st23{fill-rule:evenodd;clip-rule:evenodd;fill:#8B6516;}
	.st24{fill-rule:evenodd;clip-rule:evenodd;fill:#B50000;stroke:#000000;stroke-width:0.216;stroke-miterlimit:22.9256;}
	.st25{fill-rule:evenodd;clip-rule:evenodd;fill:#F6EBC6;}
	.st26{fill-rule:evenodd;clip-rule:evenodd;fill:#F2CB2E;}
	.st27{fill-rule:evenodd;clip-rule:evenodd;fill:#F6EBC6;stroke:#704452;stroke-width:0.216;stroke-miterlimit:22.9256;}
	.st28{fill-rule:evenodd;clip-rule:evenodd;fill:#FFFFFF;stroke:#FFFFFF;stroke-width:0.216;stroke-miterlimit:22.9256;}
	.st29{fill-rule:evenodd;clip-rule:evenodd;fill:#717171;}
	.st30{fill-rule:evenodd;clip-rule:evenodd;fill:#717171;stroke:#FFFFFF;stroke-width:0.216;stroke-miterlimit:22.9256;}
	.st31{fill-rule:evenodd;clip-rule:evenodd;fill:#B1C7E5;}
	.st32{fill-rule:evenodd;clip-rule:evenodd;fill:#ECCA34;}
	.st33{fill-rule:evenodd;clip-rule:evenodd;fill:#F1D234;}
	.st34{fill-rule:evenodd;clip-rule:evenodd;fill:#2D2F73;}
	.st35{fill-rule:evenodd;clip-rule:evenodd;fill:#EFD134;}
	.st36{fill-rule:evenodd;clip-rule:evenodd;fill:#3C5EA7;}
	.st37{fill-rule:evenodd;clip-rule:evenodd;fill:#6E181A;}
	.st38{fill-rule:evenodd;clip-rule:evenodd;fill:#6B6A64;stroke:#717171;stroke-width:0.216;stroke-miterlimit:22.9256;}
	.st39{fill-rule:evenodd;clip-rule:evenodd;fill:#6B6A64;}
	.st40{fill-rule:evenodd;clip-rule:evenodd;fill:#393936;stroke:#FFFFFF;stroke-width:0.216;stroke-miterlimit:22.9256;}
	.st41{fill-rule:evenodd;clip-rule:evenodd;fill:#393936;}
	.st42{fill-rule:evenodd;clip-rule:evenodd;fill:#717171;stroke:#717171;stroke-width:0.216;stroke-miterlimit:22.9256;}
	.st43{fill-rule:evenodd;clip-rule:evenodd;fill:url(#SVGID_1_);}
	.st44{fill-rule:evenodd;clip-rule:evenodd;fill:#F9E134;}
	.st45{fill-rule:evenodd;clip-rule:evenodd;fill:url(#SVGID_2_);}
	.st46{fill-rule:evenodd;clip-rule:evenodd;fill:url(#SVGID_3_);}
	.st47{fill-rule:evenodd;clip-rule:evenodd;fill:url(#SVGID_4_);}
	.st48{fill-rule:evenodd;clip-rule:evenodd;fill:none;stroke:#85C6EC;stroke-width:0.216;stroke-miterlimit:22.9256;}
	.st49{fill-rule:evenodd;clip-rule:evenodd;fill:url(#SVGID_5_);}
	.st50{fill-rule:evenodd;clip-rule:evenodd;fill:url(#SVGID_6_);}
	.st51{fill:#2F3863;stroke:#2F3863;stroke-width:0.216;stroke-miterlimit:5;}
	.st52{fill:#252B67;stroke:#252B67;stroke-width:0.216;stroke-miterlimit:5;}
	.st53{fill-rule:evenodd;clip-rule:evenodd;fill:url(#SVGID_7_);}
	.st54{fill-rule:evenodd;clip-rule:evenodd;fill:url(#SVGID_8_);}
	.st55{fill-rule:evenodd;clip-rule:evenodd;fill:url(#SVGID_9_);}
	.st56{fill-rule:evenodd;clip-rule:evenodd;fill:url(#SVGID_10_);}
	.st57{fill-rule:evenodd;clip-rule:evenodd;fill:url(#SVGID_11_);}
	.st58{fill-rule:evenodd;clip-rule:evenodd;fill:url(#SVGID_12_);}
	.st59{fill-rule:evenodd;clip-rule:evenodd;fill:url(#SVGID_13_);}
	.st60{fill-rule:evenodd;clip-rule:evenodd;fill:url(#SVGID_14_);}
	.st61{fill-rule:evenodd;clip-rule:evenodd;fill:url(#SVGID_15_);}
	.st62{fill-rule:evenodd;clip-rule:evenodd;fill:#7A7B7D;}
	.st63{fill-rule:evenodd;clip-rule:evenodd;fill:url(#SVGID_16_);}
	.st64{fill-rule:evenodd;clip-rule:evenodd;fill:url(#SVGID_17_);}
	.st65{fill-rule:evenodd;clip-rule:evenodd;fill:url(#SVGID_18_);}
	.st66{fill:#757575;stroke:#757575;stroke-width:0.216;stroke-miterlimit:5;}
	.st67{fill-rule:evenodd;clip-rule:evenodd;fill:url(#SVGID_19_);}
	.st68{fill-rule:evenodd;clip-rule:evenodd;fill:url(#SVGID_20_);}
	.st69{fill-rule:evenodd;clip-rule:evenodd;fill:url(#SVGID_21_);}
	.st70{fill-rule:evenodd;clip-rule:evenodd;fill:url(#SVGID_22_);}
	.st71{fill-rule:evenodd;clip-rule:evenodd;fill:url(#SVGID_23_);}
	.st72{fill-rule:evenodd;clip-rule:evenodd;fill:url(#SVGID_24_);}
	.st73{fill-rule:evenodd;clip-rule:evenodd;fill:url(#SVGID_25_);}
	.st74{fill-rule:evenodd;clip-rule:evenodd;fill:url(#SVGID_26_);}
	.st75{fill-rule:evenodd;clip-rule:evenodd;fill:url(#SVGID_27_);}
	.st76{fill-rule:evenodd;clip-rule:evenodd;fill:url(#SVGID_28_);}
	.st77{fill-rule:evenodd;clip-rule:evenodd;fill:url(#SVGID_29_);}
	.st78{fill-rule:evenodd;clip-rule:evenodd;fill:url(#SVGID_30_);}</style>

 <g class="layer">
  <title>Layer 1</title>
  <g id="svg_35">
   <linearGradient gradientTransform="translate(0 27.2231) translate(3.05176e-7 0) translate(-0.975006 0)" gradientUnits="userSpaceOnUse" id="SVGID_1_" x1="48.9477" x2="96.5223" y1="220.3381" y2="0.7904">
    <stop offset="0" stop-color="#263566"/>
    <stop offset="1" stop-color="#61C6EC"/>
   </linearGradient>
   <path class="st43" d="m67.124994,260.70308c-0.06,-1.21 -1.63,-6.17 -3.1,-11.98c-1.47,-5.8 -2.85,-12.45 -4.06,-18.79c-1.22,-6.33 -2.28,-12.35 -2.98,-18.47c-0.7,-6.12 -1.04,-12.35 -1.17,-18.21c-0.13,-5.86 -0.05,-11.35 0.33,-17.78c0.38,-6.44 1.07,-13.83 2.33,-21c1.26,-7.18 3.08,-14.14 5.07,-20.53c1.98,-6.39 4.13,-12.19 6.63,-17.63c2.5,-5.44 5.37,-10.5 8.91,-16.25c3.54,-5.75 7.74,-12.19 11.69,-17.84c3.95,-5.65 7.65,-10.5 11.5,-15.2c3.85,-4.7 7.86,-9.24 9.85,-11.56c1.2,-1.4 1.67,-2 1.84,-2.27l0,-25.58c-0.15,0.09 -0.69,0.67 -2.61,2.74c-2.67,2.87 -8.02,8.61 -12.03,13.17c-4.01,4.56 -6.68,7.94 -9.71,11.84c-3.03,3.91 -6.42,8.34 -10.01,13.46c-3.59,5.12 -7.39,10.92 -10.51,16.15c-3.13,5.22 -5.58,9.87 -7.88,14.62c-2.3,4.75 -4.45,9.6 -6.28,14.51c-1.84,4.91 -3.36,9.87 -4.83,15.2c-1.47,5.33 -2.89,11.03 -3.84,16.94c-0.95,5.91 -1.44,12.03 -1.62,18.21c-0.18,6.17 -0.04,12.4 0.4,18.26c0.44,5.86 1.19,11.35 1.99,16.62c0.8,5.28 1.65,10.34 2.71,15.41c1.06,5.07 2.32,10.13 4.05,15.62c1.73,5.49 3.93,11.4 5.76,15.88c1.83,4.49 3.29,7.55 4.75,10.34c1.42,2.8 2.88,5.34 2.82,4.12z" id="svg_36"/>
   <path class="st44" d="m45.884994,121.24308c-1.2,-4.27 -3.88,-11.75 -5.78,-17.92c-1.9,-6.16 -3.01,-11.01 -4.45,-16.91c-1.44,-5.9 -3.22,-12.87 -4.1,-16.35c-0.89,-3.48 -0.89,-3.48 -0.89,-3.48s0,0 -0.58,7.57c-0.58,7.57 -1.73,22.7 -2.3,30.37c-0.58,7.67 -0.58,7.87 -0.58,7.87s0,-0.2 1.01,2.67c1.01,2.87 3.03,8.83 5.5,15.74c2.47,6.91 5.4,14.79 6.86,18.78c1.46,3.99 1.45,4.1 1.46,4c0.01,-0.1 0.03,-0.4 0.17,-1.86c0.15,-1.46 0.41,-4.09 0.76,-6.65c0.34,-2.56 0.76,-5.05 1.14,-7.08c0.38,-2.02 0.72,-3.57 1.05,-5.01c0.33,-1.44 0.66,-2.76 0.88,-3.64c0.22,-0.88 0.33,-1.3 0.54,-2.04c0.22,-0.73 0.51,-1.79 -0.69,-6.06z" id="svg_37"/>
   <linearGradient gradientTransform="translate(0 27.2231) translate(3.05176e-7 0) translate(-0.975006 0)" gradientUnits="userSpaceOnUse" id="SVGID_2_" x1="180.8984" x2="133.3238" y1="220.3381" y2="0.7904">
    <stop offset="0" stop-color="#263566"/>
    <stop offset="1" stop-color="#61C6EC"/>
   </linearGradient>
   <path class="st45" d="m160.764994,260.70308c0.06,-1.21 1.63,-6.17 3.1,-11.98c1.47,-5.8 2.85,-12.45 4.06,-18.79c1.22,-6.33 2.28,-12.35 2.98,-18.47c0.7,-6.12 1.04,-12.35 1.17,-18.21c0.13,-5.86 0.05,-11.35 -0.33,-17.78c-0.38,-6.44 -1.07,-13.83 -2.33,-21c-1.26,-7.18 -3.08,-14.14 -5.07,-20.53c-1.98,-6.39 -4.12,-12.19 -6.63,-17.63c-2.5,-5.44 -5.37,-10.5 -8.91,-16.25c-3.54,-5.75 -7.74,-12.19 -11.69,-17.84c-3.95,-5.65 -7.65,-10.5 -11.5,-15.2c-3.85,-4.7 -7.86,-9.24 -9.85,-11.56c-1.2,-1.4 -1.67,-2 -1.84,-2.27l0,-25.58c0.15,0.09 0.69,0.67 2.61,2.74c2.67,2.87 8.02,8.61 12.03,13.17c4.01,4.56 6.68,7.94 9.71,11.84c3.03,3.91 6.42,8.34 10.01,13.46c3.59,5.12 7.39,10.92 10.51,16.15c3.13,5.22 5.58,9.87 7.88,14.62c2.3,4.75 4.45,9.6 6.28,14.51c1.84,4.91 3.36,9.87 4.83,15.2c1.47,5.33 2.89,11.03 3.84,16.94c0.95,5.91 1.44,12.03 1.62,18.21c0.18,6.17 0.04,12.4 -0.4,18.26c-0.44,5.86 -1.19,11.35 -1.99,16.62c-0.8,5.28 -1.65,10.34 -2.71,15.41c-1.06,5.07 -2.32,10.13 -4.05,15.62c-1.73,5.49 -3.93,11.4 -5.76,15.88c-1.83,4.49 -3.29,7.55 -4.75,10.34c-1.41,2.8 -2.87,5.34 -2.82,4.12z" id="svg_38"/>
   <linearGradient gradientTransform="translate(0 27.2231) translate(3.05176e-7 0) translate(-0.975006 0)" gradientUnits="userSpaceOnUse" id="SVGID_3_" x1="156.9341" x2="118.4365" y1="169.701" y2="198.3486">
    <stop offset="0" stop-color="#FFE700"/>
    <stop offset="1" stop-color="#F28F33"/>
   </linearGradient>
   <path class="st46" d="m113.914994,236.65308l1.21,-1.29c1.72,-1.83 5.13,-5.47 8.37,-9.21c3.24,-3.73 6.31,-7.55 9.36,-11.54c3.05,-3.99 6.07,-8.15 8.44,-11.58c2.38,-3.43 4.11,-6.15 5.69,-8.75c1.59,-2.61 3.03,-5.11 4.98,-8.79c1.95,-3.68 4.4,-8.53 6.69,-13.37c2.29,-4.84 4.4,-9.67 5.45,-12.1s1.02,-2.45 0.99,-2.49c-0.03,-0.04 -0.05,-0.09 -0.08,6.2c-0.03,6.29 -0.05,18.91 -0.04,25.23c0.01,6.31 0.07,6.31 0.08,6.31c0.01,0 -0.01,0 -1.77,2.9c-1.76,2.9 -5.24,8.71 -8.5,13.78c-3.25,5.06 -6.27,9.37 -8.74,12.79c-2.47,3.42 -4.38,5.95 -6.2,8.17c-1.82,2.22 -3.55,4.13 -5.82,6.65c-2.27,2.52 -5.09,5.64 -8.07,8.79c-2.98,3.15 -6.13,6.33 -8.15,8.38c-2.01,2.05 -2.89,2.98 -3.34,3.47c-0.4,0.44 -0.47,0.53 -0.57,0.62l0,-24.17l0.02,0z" id="svg_39"/>
   <path class="st44" d="m182.004994,121.24308c1.2,-4.27 3.88,-11.75 5.78,-17.92c1.9,-6.16 3.01,-11.01 4.45,-16.91c1.44,-5.9 3.22,-12.87 4.1,-16.35c0.89,-3.48 0.89,-3.48 0.89,-3.48s0,0 0.58,7.57c0.58,7.57 1.73,22.7 2.3,30.37c0.58,7.67 0.58,7.87 0.58,7.87s0,-0.2 -1.01,2.67c-1.01,2.87 -3.03,8.83 -5.5,15.74c-2.47,6.91 -5.4,14.79 -6.86,18.78c-1.46,3.99 -1.45,4.1 -1.46,4c-0.01,-0.1 -0.03,-0.4 -0.17,-1.86c-0.15,-1.46 -0.41,-4.09 -0.76,-6.65c-0.34,-2.56 -0.76,-5.05 -1.14,-7.08c-0.38,-2.02 -0.72,-3.57 -1.05,-5.01c-0.33,-1.44 -0.66,-2.76 -0.88,-3.64c-0.22,-0.88 -0.33,-1.3 -0.54,-2.04c-0.21,-0.73 -0.5,-1.79 0.69,-6.06z" id="svg_40"/>
   <linearGradient gradientTransform="translate(0 27.2231) translate(3.05176e-7 0) translate(-0.975006 0)" gradientUnits="userSpaceOnUse" id="SVGID_4_" x1="147.5205" x2="121.8506" y1="140.6118" y2="179.4908">
    <stop offset="0" stop-color="#FFE310"/>
    <stop offset="1" stop-color="#F28F33"/>
   </linearGradient>
   <path class="st47" d="m114.664994,227.55308c0.91,-0.96 2.72,-2.87 4.7,-5.04c1.98,-2.17 4.12,-4.61 6.15,-7.03c2.04,-2.42 3.97,-4.82 6.05,-7.51c2.08,-2.69 4.29,-5.66 6.4,-8.58c2.11,-2.93 4.1,-5.82 5.82,-8.43c1.72,-2.61 3.16,-4.94 4.7,-7.62c1.54,-2.68 3.19,-5.71 5.24,-9.74c2.04,-4.03 4.49,-9.07 6.15,-12.6c1.67,-3.53 2.56,-5.53 3.2,-6.99c0.64,-1.45 1.03,-2.35 1.22,-2.8c0.19,-0.45 0.19,-0.45 0.19,-0.45s0,0 -0.2,-1.39c-0.2,-1.39 -0.61,-4.17 -1.17,-6.98c-0.56,-2.81 -1.27,-5.66 -1.93,-7.86c-0.65,-2.2 -1.25,-3.74 -1.49,-4.54c-0.24,-0.8 -0.12,-0.86 -0.06,-0.89c0.06,-0.03 0.06,-0.03 -2.88,6.09c-2.94,6.12 -8.82,18.35 -13.21,26.93c-4.4,8.58 -7.31,13.51 -10.07,17.88c-2.76,4.36 -5.37,8.17 -7.84,11.58c-2.47,3.41 -4.78,6.44 -6.73,8.64c-1.95,2.2 -3.54,3.57 -4.33,4.25c-0.38,0.32 -0.58,0.5 -0.68,0.58l0,23.32c0.11,-0.12 0.34,-0.36 0.77,-0.82z" id="svg_41"/>
   <line class="st48" id="svg_42" x1="113.944994" x2="113.944994" y1="27.69308" y2="53.20308"/>
   <linearGradient gradientTransform="translate(0 27.2231) translate(3.05176e-7 0) translate(-0.975006 0)" gradientUnits="userSpaceOnUse" id="SVGID_5_" x1="63.6964" x2="115.4769" y1="181.9432" y2="181.9432">
    <stop offset="0" stop-color="#FFE700"/>
    <stop offset="1" stop-color="#F28F33"/>
   </linearGradient>
   <path class="st49" d="m113.914994,236.65308l-1.21,-1.29c-1.72,-1.83 -5.13,-5.47 -8.37,-9.21c-3.24,-3.73 -6.31,-7.55 -9.36,-11.54c-3.05,-3.99 -6.07,-8.15 -8.44,-11.58c-2.38,-3.43 -4.11,-6.15 -5.69,-8.75c-1.59,-2.61 -3.03,-5.11 -4.98,-8.79c-1.95,-3.68 -4.4,-8.53 -6.69,-13.37c-2.29,-4.84 -4.4,-9.67 -5.45,-12.1c-1.05,-2.43 -1.02,-2.45 -0.99,-2.49c0.03,-0.04 0.05,-0.09 0.08,6.2c0.03,6.29 0.05,18.91 0.04,25.23c-0.01,6.31 -0.07,6.31 -0.08,6.31c-0.01,0 0.01,0 1.77,2.9c1.76,2.9 5.24,8.71 8.5,13.78c3.25,5.06 6.27,9.37 8.74,12.79c2.47,3.42 4.38,5.95 6.2,8.17c1.82,2.22 3.55,4.13 5.82,6.65c2.27,2.52 5.09,5.64 8.07,8.79c2.98,3.15 6.13,6.33 8.15,8.38c2.01,2.05 2.89,2.98 3.34,3.47c0.4,0.44 0.47,0.53 0.57,0.62l0,-24.17l-0.02,0z" id="svg_43"/>
   <linearGradient gradientTransform="translate(0 27.2231) translate(3.05176e-7 0) translate(-0.975006 0)" gradientUnits="userSpaceOnUse" id="SVGID_6_" x1="73.5094" x2="111.1547" y1="142.1566" y2="161.2153">
    <stop offset="0" stop-color="#FFE310"/>
    <stop offset="1" stop-color="#F28F33"/>
   </linearGradient>
   <path class="st50" d="m113.114994,227.55308c-0.91,-0.96 -2.72,-2.87 -4.7,-5.04c-1.98,-2.17 -4.12,-4.61 -6.15,-7.03c-2.04,-2.42 -3.97,-4.82 -6.05,-7.51c-2.08,-2.69 -4.29,-5.66 -6.4,-8.58c-2.11,-2.93 -4.1,-5.82 -5.82,-8.43c-1.72,-2.61 -3.16,-4.94 -4.7,-7.62c-1.54,-2.68 -3.19,-5.71 -5.24,-9.74c-2.04,-4.03 -4.49,-9.07 -6.15,-12.6c-1.67,-3.53 -2.56,-5.53 -3.2,-6.99c-0.64,-1.45 -1.03,-2.35 -1.22,-2.8c-0.19,-0.45 -0.19,-0.45 -0.19,-0.45s0,0 0.2,-1.39c0.2,-1.39 0.61,-4.17 1.17,-6.98c0.56,-2.81 1.27,-5.66 1.93,-7.86c0.65,-2.2 1.25,-3.74 1.49,-4.54c0.24,-0.8 0.12,-0.86 0.06,-0.89c-0.06,-0.03 -0.06,-0.03 2.88,6.09c2.94,6.12 8.82,18.35 13.21,26.93c4.4,8.58 7.31,13.51 10.07,17.88c2.76,4.36 5.37,8.17 7.84,11.58c2.47,3.41 4.78,6.44 6.73,8.64s3.54,3.57 4.33,4.25c0.38,0.32 0.58,0.5 0.68,0.58l0,23.32c-0.11,-0.12 -0.34,-0.36 -0.77,-0.82z" id="svg_44"/>
  </g>
 </g>
</svg>