<?xml version="1.0" encoding="UTF-8" standalone="no"?>
<!DOCTYPE svg PUBLIC "-//W3C//DTD SVG 1.1//EN" "http://www.w3.org/Graphics/SVG/1.1/DTD/svg11.dtd">
<svg version="1.1" xmlns="http://www.w3.org/2000/svg" xmlns:xlink="http://www.w3.org/1999/xlink" preserveAspectRatio="xMidYMid meet" viewBox="0 0 640 640" width="640" height="640"><defs><path d="M222.19 332.08C218.32 322.9 213.49 313.72 212.05 304.06C211.56 301.65 211.56 299.23 211.56 296.33C211.08 294.88 211.08 293.43 211.56 291.5C214.46 285.22 215.43 278.46 220.74 273.15C225.09 269.28 228.95 264.94 234.26 262.04C244.41 256.24 255.03 255.28 265.66 260.11C270.97 262.52 275.32 264.94 277.74 271.22C278.7 274.11 278.7 277.01 277.25 279.43C271.94 287.64 265.66 295.37 257.93 301.65C257.45 302.13 257.45 302.13 256.97 302.13C255.52 303.09 253.1 305.03 251.65 303.09C249.72 301.65 252.14 299.71 253.1 298.75C254.55 296.33 255.52 292.95 257.93 290.54C258.9 290.05 259.86 289.57 260.83 288.6C263.25 284.74 265.66 280.88 267.11 276.05C267.59 275.08 267.59 274.6 267.59 273.15C268.08 272.18 268.08 271.7 267.59 270.73C267.59 270.25 267.11 270.73 267.11 270.73C267.59 270.73 267.59 270.73 267.59 271.22C267.59 271.7 267.59 271.7 267.59 272.18C267.59 272.66 267.11 272.66 267.11 272.66C265.66 266.38 264.21 265.42 256.97 267.35C242.96 271.22 232.33 278.94 228.95 293.92C227.5 301.16 229.43 307.92 231.85 314.69C232.82 317.58 234.75 320.97 235.71 324.35C235.23 324.83 235.23 324.35 234.75 323.86C234.26 324.83 235.23 324.83 235.71 325.31C236.68 329.18 239.58 331.59 240.54 335.46C242.48 340.29 245.86 344.15 246.82 349.46C249.24 360.09 247.79 369.75 240.54 377.48C238.61 379.89 239.09 382.79 236.2 384.24C228.47 389.07 220.26 393.42 210.6 394.38C207.7 394.87 205.28 394.87 202.38 394.38C198.04 393.9 193.69 392.94 189.34 390.52C183.06 386.66 181.62 380.86 181.62 373.62C182.1 362.51 187.41 354.78 194.66 347.53C196.11 346.08 197.55 345.12 199.49 344.63C200.94 344.15 201.9 344.15 203.35 345.12C204.32 346.08 204.32 347.53 203.83 348.5C202.38 351.4 200.45 354.78 199 358.16C196.59 364.44 194.66 370.23 196.11 377C197.55 384.24 201.42 387.14 208.18 385.21C218.32 382.79 225.57 377 229.92 367.82C230.88 365.4 231.85 363.47 232.33 361.06C231.85 361.06 231.85 359.61 231.85 358.16C229.92 348.98 226.05 340.77 222.19 332.08Z" id="fPkcp7ejR"></path><path d="M55.55 266.38C57.96 269.77 60.38 270.25 63.76 269.77C73.9 268.32 84.53 267.35 94.67 265.9C95.64 265.42 97.09 265.9 98.54 265.42C100.95 265.42 102.88 265.9 105.3 264.94C105.78 264.45 107.23 264.45 107.71 265.9C108.2 266.87 108.2 267.35 107.23 268.32C105.78 269.77 103.37 270.25 100.95 270.73C95.15 271.7 89.84 274.6 84.05 275.56C75.35 277.01 66.66 279.43 57.48 281.36C55.06 281.84 53.62 282.81 52.65 285.22C47.82 298.26 42.99 311.31 38.64 324.35C37.19 328.21 37.19 328.21 41.06 327.73C50.72 326.76 60.38 326.28 70.04 324.35C70.52 324.35 71.49 324.35 71.49 324.83C71.97 325.8 71.49 325.8 71 326.28C70.52 327.25 69.55 328.21 68.59 328.21C64.24 327.25 60.38 331.11 56.51 331.11C49.75 331.59 43.47 334.49 36.71 334.97C34.29 335.46 32.85 336.42 32.36 338.84C28.02 354.29 22.22 369.75 16.91 384.72C16.42 386.17 16.42 388.11 17.39 389.07C18.35 390.52 19.8 389.07 21.25 388.59C31.88 384.24 41.54 377.48 52.17 372.17C53.62 371.2 56.03 369.75 57.48 371.2C58.93 372.65 57.48 375.06 56.03 376.51C47.34 386.66 37.19 395.83 24.63 400.66C14.97 404.53 6.28 399.7 1.93 391C0.48 387.62 0.48 383.76 2.9 380.86C5.31 377.48 5.8 373.62 7.25 369.75C8.69 364.92 11.11 360.09 13.04 354.78C14.49 349.95 15.94 345.6 17.39 340.77C17.87 339.8 17.39 339.8 16.42 339.32C15.46 338.84 14.01 338.35 12.56 337.87C11.11 336.91 10.14 334.97 10.63 333.04C11.11 331.11 12.56 331.11 14.49 330.63C15.94 330.63 17.39 330.14 19.32 330.14C21.74 329.66 23.67 328.69 24.15 326.28C28.02 312.75 32.85 300.2 37.19 286.67C37.68 285.71 36.71 285.71 36.23 285.71C35.26 285.71 33.81 286.19 33.33 285.22C30.91 284.26 27.53 284.74 26.08 282.32C22.7 277.01 24.63 274.6 28.98 274.11C31.4 273.63 33.81 273.63 35.74 273.63C40.09 273.63 42.51 272.18 43.47 267.35C44.44 265.9 44.92 263.97 46.85 263.49C47.82 263.49 48.78 263.49 50.23 263.49C52.17 264.45 54.58 264.94 55.55 266.38Z" id="a3GaoAvNOG"></path><path d="M500.41 284.74C500.41 286.67 499.44 288.12 497.99 289.09C498.96 287.64 499.44 286.19 500.41 284.74Z" id="aPvigRJYm"></path><path d="M489.78 308.41C489.3 307.44 489.78 306.48 490.75 305.51C490.75 306.96 490.26 307.44 489.78 308.41Z" id="f4zBdtIHY"></path><path d="M25.12 329.66C25.12 328.69 25.12 327.73 26.57 326.76C26.57 327.73 26.08 328.69 25.12 329.66Z" id="c1CE3W3w2"></path><path d="M188.86 338.84C185.48 339.8 182.1 340.29 178.72 341.25C177.27 341.74 175.82 341.74 176.78 338.84C177.75 335.94 178.23 332.56 179.2 329.18C181.62 318.55 179.68 312.27 170.99 306.96C167.12 304.54 163.26 303.58 159.4 306.48C153.6 310.34 150.7 315.17 148.29 321.45C147.8 322.9 147.32 323.86 145.39 324.35C141.04 325.31 137.18 327.73 134.28 331.11C130.42 335.94 126.07 340.77 122.2 346.08C116.89 352.85 110.61 359.61 106.26 366.37C102.4 371.68 97.57 374.58 92.74 377.96C89.84 380.38 87.43 379.41 86.46 375.55C85.49 373.13 85.49 370.72 85.98 368.78C86.46 367.82 85.49 366.37 86.94 364.92C86.94 358.64 88.39 352.85 90.32 346.57C93.22 336.91 96.12 327.73 101.92 320C102.88 319.03 103.37 317.58 104.82 318.07C106.26 318.55 105.78 320 105.78 320.97C106.26 325.31 103.85 329.18 102.88 333.04C102.4 335.46 102.88 336.42 105.3 336.42C108.68 336.42 111.58 334.49 112.54 331.59C113.99 325.8 113.99 320 110.61 314.2C109.16 311.31 106.75 309.86 103.37 309.86C95.64 309.37 91.77 314.69 87.91 320C83.08 325.8 81.15 333.52 77.28 340.77C74.38 346.57 72.94 352.36 72.94 358.64C72.45 365.4 71.49 372.17 73.42 378.93C76.8 389.55 83.08 391 91.77 387.14C99.5 383.28 105.78 377 111.09 370.72C113.99 367.34 116.89 363.47 119.79 359.61C120.27 359.12 120.75 358.16 121.24 358.64C121.72 359.12 121.72 360.09 121.72 360.57C121.72 363.47 123.17 365.4 124.62 368.3C129.45 377.48 141.52 381.34 149.74 375.06C153.6 372.17 157.46 369.27 160.85 365.4C164.71 361.06 168.57 357.19 171.47 351.88C172.92 348.5 175.82 347.53 179.2 347.05C183.06 346.57 186.93 346.08 190.31 344.63C192.24 343.18 194.17 342.22 193.21 339.8C192.24 337.39 190.79 338.84 188.86 338.84ZM147.32 368.78C145.39 370.23 143.46 371.2 141.52 371.68C137.18 373.13 134.76 370.72 135.73 366.37C136.21 364.92 136.21 363.95 136.69 362.51C139.59 355.26 142.49 348.02 146.35 340.77C148.77 347.05 153.6 349.46 158.91 350.43C160.36 351.4 160.85 351.4 159.88 353.33C156.5 359.12 152.63 364.92 147.32 368.78ZM157.46 346.08C154.08 345.6 152.15 344.15 152.15 340.29C152.15 338.84 152.15 337.39 152.63 336.42C154.08 328.69 156.98 321.45 162.29 315.65C164.23 313.72 166.16 310.82 169.54 311.79C172.92 313.24 171.95 316.62 172.44 320C172.02 321.55 169.93 329.27 166.16 343.18C164.23 346.08 161.33 347.05 157.46 346.08Z" id="b1BL2gMcdF"></path><path d="M516.83 298.75C514.42 299.23 512.48 299.23 510.07 299.23C507.65 300.2 505.24 299.23 502.34 299.71C500.89 299.71 498.96 300.68 497.51 299.23C497.99 298.26 498.48 297.78 498.96 296.33C499.92 291.98 503.31 288.6 504.75 284.26C505.72 281.84 507.17 279.43 509.1 277.49C512.48 274.6 514.42 270.73 516.83 266.87C517.8 265.42 517.31 263 515.38 262.04C514.42 261.55 513.45 261.07 512.48 261.07C511.52 260.59 510.07 261.07 508.62 260.59C505.24 261.55 501.37 261.07 498.96 264.45C494.61 270.25 491.71 276.53 487.37 282.81C483.98 287.64 482.05 292.95 479.64 298.26C478.67 299.71 477.71 300.68 476.26 300.68C473.36 300.68 470.46 300.68 467.56 300.68C465.63 301.65 463.22 300.68 461.28 301.16C455 301.65 449.21 301.16 442.93 303.58C442.45 303.58 441.48 303.09 441.48 304.54C441.48 305.51 442.45 305.51 443.41 305.99C445.83 306.48 447.76 306.96 450.17 306.96C456.45 307.44 462.25 307.44 468.05 306.48C470.46 305.51 472.39 306.48 474.32 305.99C475.29 305.51 476.74 305.51 475.77 307.44C474.81 308.89 474.32 310.82 473.36 312.27C469.49 321.93 467.08 332.08 462.25 341.74C461.28 343.18 461.28 345.12 459.83 346.57C453.55 354.29 448.24 362.02 442.45 369.75C438.58 374.58 435.2 380.38 429.4 383.28C428.44 383.76 427.95 384.72 426.51 384.24C425.54 383.28 426.02 382.31 426.51 381.34C428.92 376.03 430.37 370.23 432.78 365.4C435.2 359.61 438.1 353.81 440.51 348.02C441.48 345.12 441 343.18 437.62 341.74C435.2 340.77 433.27 340.77 430.85 340.29C429.89 339.8 428.44 339.8 427.47 340.29C425.06 340.77 422.64 339.8 421.68 337.87C420.71 335.94 422.64 333.52 424.09 332.08C428.44 327.25 428.44 325.8 422.64 323.38C421.68 322.9 420.23 322.9 419.26 323.38C413.46 324.83 411.53 329.18 410.57 334.49C410.08 335.46 410.08 336.91 410.57 337.87C411.05 339.32 412.98 341.25 411.53 343.67C407.18 350.43 402.84 357.19 398.01 363.95C395.11 367.82 392.21 371.68 388.83 375.06C387.86 375.55 386.9 377 385.45 376.03C384.48 375.55 384.48 374.1 384.48 373.13C384.97 366.37 386.42 359.61 387.38 352.85C388.35 347.05 391.73 342.7 393.66 337.39C395.11 333.04 392.21 328.69 387.86 328.69C383.03 328.21 379.65 331.11 376.75 334.97C375.79 331.59 374.34 328.69 372.89 325.8C370.48 321.45 365.16 319.52 361.3 321.93C355.5 324.83 350.19 328.21 347.29 334.49C344.88 339.32 343.43 344.63 340.53 348.5C334.73 356.23 328.45 363.95 321.21 370.72C320.24 371.68 319.28 372.17 318.31 372.17C316.86 371.68 317.34 370.23 317.34 369.27C317.34 364.44 318.79 359.61 320.72 355.74C324.59 348.02 327.49 340.77 329.42 332.56C329.9 331.11 329.9 328.69 329.42 327.25C328.94 324.35 327.97 322.42 325.07 320.48C324.11 320 322.66 320 321.69 320.48C317.34 321.45 313.48 323.86 310.58 327.73C308.65 331.59 304.3 336.42 300.92 341.74C300.44 341.74 300.44 342.22 300.44 342.7C300.44 342.22 300.44 341.74 300.44 341.25C300.92 340.29 300.92 339.8 300.92 338.84C302.37 333.04 305.27 328.21 307.2 322.9C307.68 321.93 307.68 320.48 307.2 319.52C304.3 310.34 296.09 309.37 291.26 316.14C285.95 324.35 280.15 331.59 275.8 340.29C272.91 345.6 270.97 351.4 268.08 357.19C267.59 356.23 267.11 354.78 267.11 354.29C269.52 348.02 269.52 341.25 273.87 336.42C275.32 334.97 276.29 333.52 275.32 331.59C274.35 329.18 272.91 327.25 270.97 325.8C269.52 324.83 267.59 322.9 266.14 325.31C259.86 336.42 255.52 348.02 256.48 361.06C256.97 365.89 260.35 369.75 264.69 370.72C266.14 371.2 267.59 371.2 267.59 369.27C268.08 366.85 269.04 364.92 270.49 362.51C276.29 350.91 281.12 338.35 288.85 327.73C290.78 325.31 292.71 322.42 295.61 320.97C295.61 321.93 295.12 323.38 294.64 324.35C292.71 331.11 288.85 336.42 286.91 343.18C285.95 347.53 285.46 352.36 284.98 357.19C284.98 357.19 284.98 357.68 284.98 357.68C285.46 360.57 286.43 362.99 289.81 363.47C292.71 363.95 294.16 361.54 295.12 359.12C299.95 348.98 307.2 340.29 313.96 331.11C314.93 330.63 314.93 331.11 314.93 332.08C313.96 334.97 313 338.35 311.06 340.77C308.65 345.12 306.72 349.95 306.23 354.78C305.75 359.12 306.23 363.47 306.23 367.82C306.72 372.17 309.13 376.03 312.03 378.93C314.93 381.83 320.72 381.34 324.11 377.96C326.04 376.51 328.45 374.1 329.9 371.68C332.32 368.78 333.77 365.89 336.66 363.47C337.63 364.44 336.66 365.4 337.15 366.37C337.15 367.34 337.63 368.3 337.63 369.27C338.6 376.51 346.81 380.86 352.12 377C357.92 372.65 362.26 367.34 366.13 361.54C368.54 358.16 369.99 354.29 372.89 351.4C374.34 350.91 373.86 351.88 373.86 352.85C372.89 353.81 373.37 355.26 372.89 356.23C370.96 364.44 369.99 373.13 374.34 380.86C377.24 385.69 382.07 387.14 386.9 384.72C391.73 382.31 394.63 377.96 398.01 374.1C403.32 367.34 408.15 359.12 411.53 350.91C412.5 348.98 413.46 347.05 414.91 345.6C416.36 344.63 417.81 346.57 419.26 346.57C419.26 346.57 419.74 346.57 419.74 346.57C425.54 346.57 425.54 346.57 423.12 351.88C420.71 357.19 418.29 362.99 415.88 368.3C412.98 375.06 411.53 382.31 416.36 389.55C418.29 392.45 423.12 394.38 426.51 392.45C434.72 387.62 441.96 381.34 447.76 373.62C450.17 370.23 452.11 366.85 455.49 363.47C454.04 371.68 452.11 378.93 451.14 386.17C450.17 392.94 453.55 402.11 461.28 403.56C462.25 404.05 463.7 404.05 465.15 403.56C471.43 399.7 475.77 393.42 480.12 387.62C488.82 376.51 497.03 365.89 504.27 354.29C506.2 351.4 509.1 348.5 510.55 345.12C511.03 343.67 511.52 342.22 509.58 341.25C507.65 340.29 506.69 341.25 505.72 342.7C501.86 348.98 497.51 354.29 493.16 359.61C485.43 368.78 479.15 378.45 470.46 386.66C469.49 387.62 469.01 388.11 468.05 389.55C467.56 391 466.11 392.45 464.18 390.52C463.7 389.07 463.7 387.62 464.18 385.69C464.18 384.72 463.7 383.76 464.18 382.79C466.6 374.1 468.53 365.89 470.94 357.19C476.26 339.8 483.98 323.86 490.26 306.96C490.75 305.03 492.2 304.06 494.61 304.06C496.54 304.06 497.99 305.03 499.92 305.03C504.27 305.03 508.14 303.09 512 303.58C513.45 304.06 514.9 302.61 516.35 301.16C519.25 301.16 520.21 300.2 519.25 299.23C518.76 298.26 517.8 298.26 516.83 298.75ZM352.6 365.4C352.12 365.89 351.64 366.85 350.67 367.34C349.71 368.3 348.74 369.27 347.77 369.27C346.32 368.78 346.81 367.34 346.81 365.89C347.77 361.06 348.74 356.23 350.67 351.4C353.09 344.63 355.98 337.87 359.37 331.59C360.33 329.66 361.3 328.69 362.75 327.73C365.16 325.8 366.61 326.76 367.58 330.14C368.06 331.11 367.09 332.08 367.58 333.04C370.96 339.32 369.03 344.15 364.68 349.46C360.82 354.78 356.95 360.57 352.6 365.4Z" id="b1qQ4MPkFa"></path><path d="M613.84 273.02C612.39 274.46 613.36 275.91 613.36 277.36C613.36 277.85 612.88 278.81 612.39 278.81C611.91 278.81 610.95 277.85 611.43 277.36C613.36 274.46 611.43 272.53 609.98 270.12C611.43 270.6 611.43 273.02 613.36 272.05C612.88 270.12 611.91 268.19 611.43 266.25C610.95 264.32 609.01 263.84 607.08 262.87C604.18 262.87 602.25 260.46 599.84 259.97C599.35 259.49 599.35 259.49 598.87 259.49C598.39 259.49 597.9 259.97 597.42 259.97C595.97 260.94 595.01 261.91 594.52 263.84C595.01 265.77 596.46 266.74 598.39 266.74C598.87 264.8 600.32 264.32 602.25 264.8C604.18 265.29 603.22 266.74 603.22 267.7C603.22 268.67 602.73 269.15 602.73 269.63C602.25 270.12 602.73 271.08 603.22 271.57C605.15 274.46 605.15 275.91 602.25 278.33C600.8 276.88 601.29 275.43 601.29 273.5C601.29 270.12 599.35 267.7 596.94 267.22C594.52 266.74 592.59 265.77 590.18 264.8C589.69 264.32 589.69 264.32 589.21 264.32C587.76 263.84 587.28 261.91 586.31 260.94C585.83 260.94 585.83 260.94 585.35 261.42C582.45 263.35 579.07 265.77 578.1 269.15C578.58 271.08 579.55 273.5 579.07 275.91C579.55 277.36 580.52 277.36 581.48 277.36C582.93 276.88 583.41 276.4 583.41 275.43C584.38 272.53 585.83 272.53 587.76 273.98C588.24 274.95 589.21 275.43 589.69 275.91C594.04 280.26 600.8 282.19 605.15 286.06C607.08 285.09 606.6 284.12 606.12 282.19C605.63 281.71 606.12 281.23 606.6 280.74C607.56 280.26 608.53 281.23 609.01 281.71C610.95 283.16 612.88 282.19 614.33 281.71C615.78 280.74 616.26 278.81 615.78 277.36C615.78 277.36 615.78 276.4 615.29 275.91C614.81 274.46 614.81 273.98 613.84 273.02Z" id="b48a0BJsf4"></path><path d="M624.06 355.26C624.06 355.26 624.06 355.26 624.06 355.26C624.06 355.26 624.06 355.26 624.06 355.26Z" id="a2WjH0PDl"></path><path d="M629.86 325.8C629.86 323.86 628.89 322.9 627.92 321.45C627.44 320.48 626.96 319.52 625.99 320C625.03 320.48 625.51 321.45 625.03 321.93C624.54 320.97 624.54 320 625.51 319.03C625.51 318.55 625.51 318.55 625.51 318.07C625.03 317.1 624.54 315.65 623.09 315.17C622.61 315.17 622.61 315.17 622.13 315.17C620.68 315.65 620.68 316.14 621.16 317.1C621.65 317.58 622.13 318.55 621.65 319.03C621.16 319.52 621.16 319.52 621.16 320C620.68 322.42 619.23 320.48 618.75 320.48C616.82 322.42 618.26 324.35 618.26 326.76C620.2 328.21 621.65 324.83 623.58 327.25C621.65 327.73 621.65 328.69 622.13 330.14C622.61 331.59 623.58 332.08 625.03 332.08C625.99 332.08 626.48 331.59 626.96 332.08C626.96 334.97 628.41 336.91 631.31 337.39C632.75 337.87 633.24 338.35 633.24 339.32C633.72 342.22 634.2 344.63 634.2 347.05C634.2 349.95 633.72 352.36 629.86 352.36C628.41 352.36 626.96 352.36 625.99 352.36C624.54 352.36 623.58 352.85 623.09 353.81C623.09 354.29 623.09 354.78 623.09 354.78C623.09 354.78 623.09 354.78 623.58 354.78C624.06 354.78 624.54 354.78 625.03 355.26C624.54 355.26 624.06 355.26 623.58 354.78C623.58 354.78 623.58 354.78 623.09 354.78C622.61 354.29 621.65 354.29 620.68 354.78C619.71 356.71 622.13 357.19 622.13 358.64C616.33 358.64 613.92 356.23 611.98 348.98C613.92 349.46 615.85 350.91 617.3 353.33C618.26 354.78 619.23 356.23 621.16 354.78C622.13 353.33 621.65 352.36 620.2 351.4C618.75 350.43 618.26 349.46 617.3 348.5C615.37 346.57 614.4 344.63 613.92 341.74C613.43 339.8 613.43 337.39 611.98 335.46C611.02 334.97 611.02 333.52 611.98 332.56C613.43 331.11 613.92 329.18 612.47 327.25C608.6 329.18 608.12 332.56 607.15 336.42C607.15 337.39 606.67 338.35 607.64 339.32C608.6 341.25 608.6 343.67 608.6 346.08C609.09 351.88 611.5 356.71 616.33 359.61C617.78 360.09 618.26 361.54 620.2 362.02C624.06 362.51 627.92 361.54 631.79 360.57C634.2 360.09 634.2 357.68 635.65 356.71C636.14 356.23 636.62 355.26 636.14 354.78C639.03 354.29 638.07 352.36 639.03 350.91C639.03 350.43 639.03 350.43 639.03 350.43C638.55 347.53 638.55 344.63 638.07 341.74C638.55 341.25 638.07 340.29 637.58 339.8C635.65 335.46 631.31 331.11 629.86 325.8Z" id="b5h13I4EVD"></path><path d="M547.26 251.89C547.26 252.38 547.74 252.38 547.74 252.86C549.19 253.34 549.68 254.31 549.68 254.79C557.4 256.72 558.85 255.76 560.78 248.03C561.27 247.55 561.27 247.06 561.27 246.58C561.27 244.65 560.78 242.72 559.82 241.27C554.02 236.44 549.19 237.4 546.78 244.17C545.33 247.06 547.26 249.48 547.26 251.89Z" id="a21lSITePn"></path><path d="M613.43 281.92C611.5 282.89 610.54 283.37 609.57 281.44C609.09 280.96 607.15 279.51 606.67 280.96C606.19 282.41 603.77 282.41 604.74 282.41C607.15 283.86 605.22 285.31 605.71 286.76C605.22 288.2 606.19 289.17 607.15 290.14C607.64 290.62 608.6 291.59 608.6 292.07C608.6 292.55 608.12 292.55 608.12 292.55C607.64 292.55 607.64 292.07 607.64 292.07C606.67 286.27 601.84 285.31 597.49 283.37C597.01 283.86 596.05 284.34 596.05 284.82C596.53 286.27 596.53 286.76 597.49 287.72C599.43 287.72 598.46 289.17 598.94 290.14C599.43 290.62 599.43 290.62 599.91 290.62C602.32 289.17 603.77 290.14 603.77 292.55C604.26 293.52 604.26 294.48 604.74 295.45C605.22 295.93 605.22 295.93 605.22 296.42C606.19 297.38 607.15 297.38 608.12 296.9C615.37 294.48 614.4 286.76 618.26 281.92C618.75 281.44 617.78 280.48 617.78 279.51C616.82 278.06 615.85 277.09 615.37 275.65C614.88 277.58 616.82 280.48 613.43 281.92Z" id="eu1taTHpl"></path><path d="M619.71 293.43C616.33 293.43 613.43 294.4 611.02 296.82C610.54 298.75 612.47 299.71 613.43 300.2C615.37 301.65 615.85 298.75 617.3 298.26C616.33 300.2 613.43 302.13 614.4 305.03C614.4 305.99 612.95 306.48 612.47 306.96C611.98 308.89 611.5 310.34 611.02 312.27C611.02 312.75 611.5 312.75 611.5 313.24C612.95 316.14 616.33 316.14 617.3 319.52C618.26 320 618.75 319.03 619.23 318.07C619.71 316.62 619.71 316.14 619.23 314.69C616.82 311.79 617.3 308.41 621.16 305.51C621.65 306.96 621.16 307.92 621.65 309.37C621.65 310.34 621.16 311.79 623.09 311.79C624.54 311.31 624.54 309.86 624.54 308.89C625.03 305.99 624.06 303.58 623.09 300.68C622.61 299.71 622.61 299.71 622.61 299.23C621.16 297.78 620.68 295.37 619.71 293.43Z" id="e2vxUJDzMs"></path><path d="M588.32 274.11C585.42 272.18 583.97 272.66 583 275.56C583 276.53 582.04 277.01 581.55 277.49C579.62 278.94 581.07 279.91 582.04 281.36C583.97 283.29 583.49 284.74 580.59 285.22C579.14 285.71 577.69 285.71 576.24 285.22C571.41 283.77 566.58 282.32 562.72 278.94C561.27 277.49 561.27 275.56 562.23 273.63C562.72 271.22 565.62 268.8 563.68 265.9C559.82 267.83 559.82 272.18 559.82 275.56C560.3 281.84 568.51 288.12 575.76 288.12C577.69 287.15 579.62 289.09 582.04 288.6C583.97 288.6 584.45 290.05 584.94 291.5C585.42 292.95 585.42 294.4 587.35 293.43C588.32 291.5 587.83 290.05 587.35 288.6C586.87 286.67 586.87 285.22 587.83 283.77C588.32 282.81 588.32 281.84 587.35 281.36C589.28 280.88 591.22 282.81 593.15 281.84C592.66 277.49 588.8 277.98 586.38 276.05C586.87 275.08 587.83 274.6 588.32 274.11Z" id="b7wpUNFwH"></path><path d="M616.83 280.4C617.79 284.26 612.96 285.71 613.45 289.57C613.93 292.47 612 294.4 609.1 295.85C608.13 296.33 607.65 296.33 607.17 297.3C606.68 297.78 606.68 298.75 607.65 298.75C609.1 298.75 609.58 298.27 610.55 297.78C611.03 297.3 611.03 297.3 611.03 297.3C613.93 295.85 616.83 294.89 619.73 293.44C620.69 291.02 618.76 289.09 619.24 287.16C619.73 284.26 619.24 281.84 616.83 280.4Z" id="b1c5aiE8XT"></path><path d="M622.61 300.28C622.61 303.66 624.54 307.04 622.61 311.39C622.61 308.49 622.61 306.56 621.65 304.63C621.16 304.14 621.16 303.66 620.68 303.18C620.2 302.69 619.71 303.66 619.71 303.66C621.16 308.01 617.3 305.11 615.85 306.08C615.37 308.01 618.75 308.97 616.82 310.91C613.92 313.8 616.33 313.8 618.26 314.77C618.75 315.25 618.75 316.22 620.2 315.25C620.68 314.29 621.65 313.8 623.09 313.8C625.99 313.32 626.96 311.87 625.99 309.46C626.48 307.04 626.48 305.59 626.48 304.63C625.51 302.69 625.51 300.28 622.61 300.28Z" id="a4x41lJSvO"></path><path d="M596.05 304.54C594.6 304.54 594.11 305.03 593.63 306.48C593.15 307.44 593.63 308.41 594.11 309.37C594.15 309.41 594.31 309.57 594.6 309.86C594.89 309.86 595.05 309.86 595.08 309.86C597.01 309.37 597.01 311.31 597.49 311.79C597.98 312.27 599.91 311.31 598.94 313.24C598.46 313.72 599.43 314.69 599.91 314.69C601.36 313.24 601.84 314.2 602.32 315.17C601.84 314.2 601.36 313.72 600.39 314.69C600.39 315.17 600.39 316.14 600.88 316.14C601.36 317.58 601.84 318.55 603.29 319.52C604.74 320.97 605.22 322.42 605.22 323.86C605.71 324.35 605.71 324.35 606.19 324.35C607.15 324.83 608.12 324.83 609.09 323.86C610.54 320.48 610.54 317.1 607.64 314.2C605.22 312.75 603.77 310.82 602.32 308.89C598.94 309.37 598.46 305.99 596.05 304.54Z" id="g9AXKGVNM0"></path><path d="M564.17 245.62C566.58 247.06 568.51 247.55 570.45 244.65C570.93 243.68 571.41 243.2 570.93 242.23C569.48 241.75 569 242.72 568.03 242.72C565.62 243.68 564.17 242.23 564.17 239.82C566.1 242.72 567.55 243.68 568.03 242.23C569.48 239.82 569.96 240.78 571.41 241.75C572.86 240.3 571.41 238.85 570.93 237.89C567.55 232.57 562.23 234.99 560.3 239.82C560.78 242.23 561.75 244.17 564.17 245.62Z" id="djBczly1W"></path><path d="M578.1 254.66C577.62 255.14 576.65 255.63 577.62 256.11C578.1 256.59 578.58 256.59 579.07 256.59C584.38 258.04 589.69 258.04 595.01 258.04C596.46 258.04 597.42 258.52 598.87 258.52C599.35 258.52 599.35 258.52 599.84 258.04C600.32 257.56 600.32 257.56 599.84 257.08C598.39 256.59 597.42 256.59 596.46 256.11C590.18 252.25 583.9 254.18 578.1 254.66Z" id="b1mRWAGjh4"></path><path d="M584.45 244.65C584.45 245.13 584.45 245.13 584.45 245.62C584.94 246.1 584.94 246.58 585.9 246.1C588.8 244.65 590.25 246.58 591.7 249C593.63 250.45 595.08 250.45 594.6 247.06C594.11 242.72 591.22 240.3 586.87 241.27C585.9 241.75 584.94 242.72 584.45 244.65Z" id="c4TIc3rYaO"></path><path d="M633.72 362.02C637.58 360.09 640 356.23 640 351.4C634.69 361.06 627.44 364.92 617.78 360.09C620.68 363.47 627.44 364.92 633.72 362.02Z" id="fWz1DS9h"></path><path d="M611.51 270.18C611.03 268.73 610.55 266.79 609.1 267.76C607.65 268.73 608.61 270.66 609.58 271.62C611.03 273.07 611.51 274.04 610.06 275.97C608.61 277.9 610.55 278.87 612 279.84C613.93 280.8 613.44 278.39 613.93 277.9C614.41 276.45 613.93 274.52 613.93 273.07C613.44 272.59 613.44 272.59 612.96 271.62C612.48 271.62 611.51 271.14 611.51 270.18Z" id="cm5qk2g7F"></path><path d="M608.12 324.35C606.67 324.35 606.19 324.35 605.22 324.35C605.22 326.28 608.12 326.28 608.12 328.69C610.05 330.63 606.19 330.14 606.67 331.59C608.6 334.49 606.67 337.87 608.6 340.77C608.6 339.8 608.6 338.84 608.6 337.87C609.09 334.97 609.57 332.56 611.02 330.14C613.43 326.28 613.43 324.83 610.54 322.42C609.09 322.9 608.6 323.38 608.12 324.35Z" id="azVIP0AwE"></path><path d="M620.2 314.2C620.68 315.17 621.16 315.65 622.13 315.65C622.13 315.65 622.61 315.17 622.61 315.65C622.61 316.14 622.61 316.14 623.09 316.62C623.58 316.62 623.58 316.62 623.58 316.62C624.06 317.1 625.03 313.72 625.03 317.1C625.03 318.07 625.03 319.03 625.51 320C626.48 321.45 627.44 321.45 629.37 320.48C628.41 316.62 627.44 312.75 626.48 308.89C626.48 310.82 625.03 312.27 622.61 312.27C620.68 312.27 619.71 312.75 620.2 314.2Z" id="aDNkQU6pc"></path><path d="M599.91 246.1C599.43 244.65 597.98 245.13 597.01 245.62C596.53 246.1 596.53 246.1 596.53 246.1C596.05 247.55 595.08 248.51 596.05 249.96C597.98 251.89 600.39 253.83 603.77 252.86C605.22 250.45 605.22 249 602.32 248.03C600.88 247.55 600.39 247.55 599.91 246.1Z" id="e42hHfCwuR"></path><path d="M577.69 256.24C574.79 257.21 572.38 258.17 570.45 258.17C569.48 257.69 569 258.66 568.51 259.14C568.03 259.14 568.03 259.14 568.03 259.62C568.03 260.11 568.03 260.11 568.51 260.11C570.45 260.59 572.38 261.55 573.34 263C574.31 264.45 575.28 264.94 577.21 263.97C578.66 263 580.11 262.04 578.66 260.11C578.17 259.14 579.14 257.69 578.66 256.24C578.17 256.24 578.17 256.24 577.69 256.24Z" id="bGlBKZMf"></path><path d="M559.34 241.75C559.82 243.68 559.82 245.13 560.3 247.06C561.27 248.51 560.3 249.96 559.82 250.93C558.85 253.83 556.44 256.24 554.02 257.69C558.37 258.17 562.72 253.83 563.2 249C562.72 246.1 563.2 242.72 559.82 240.78C559.34 241.27 559.34 241.27 559.34 241.75Z" id="bB5FIS6QF"></path><path d="M584.95 243.68C583.02 244.17 584.47 245.62 583.5 246.1C583.02 248.51 585.43 249 586.88 249.96C588.33 250.93 588.81 249.48 589.78 248.51C590.26 247.55 591.23 248.03 591.71 248.03C590.75 245.62 589.3 243.2 585.92 244.65C584.95 245.13 585.43 244.17 584.95 243.68Z" id="d2838DZwcs"></path><path d="M576.24 241.27C576.72 241.27 576.72 241.27 576.24 241.27C576.72 241.27 576.72 241.27 576.24 241.27Z" id="aN152rTeF"></path><path d="M570.93 241.27C570.45 243.2 570.93 244.65 571.89 246.1C572.38 246.58 572.86 246.58 573.34 246.58C574.31 245.62 573.83 244.65 573.83 243.68C573.34 241.27 573.83 240.78 575.76 241.27C575.76 241.27 575.76 241.27 575.76 241.27C575.76 241.27 575.76 241.27 575.76 241.27C575.76 241.27 576.24 241.27 576.24 241.27C576.24 241.27 576.24 241.27 576.72 241.27C576.72 241.27 576.24 241.27 576.24 241.27C576.24 241.27 575.76 241.27 575.76 241.27C575.76 241.27 575.76 241.27 575.76 241.27C575.76 241.27 575.76 241.27 575.76 241.27C575.28 241.27 574.31 241.27 573.83 242.23C573.34 243.68 574.79 244.17 575.28 245.13C575.76 245.62 576.72 246.1 577.21 246.58C578.17 246.58 578.66 246.1 579.62 246.1C580.11 246.1 580.11 245.62 580.11 245.62C581.07 243.68 579.62 242.23 578.66 240.78C577.21 238.37 574.79 237.4 572.38 239.34C571.89 239.82 571.89 240.78 570.93 241.27Z" id="b3o6regfLN"></path><path d="M577.21 241.75C577.21 241.75 577.21 241.75 576.72 241.75C576.82 241.75 577.11 241.75 577.21 241.75Z" id="bUFH99ffN"></path><path d="M583.49 292.47C581.55 291.02 579.62 290.54 579.14 288.6C578.66 288.12 578.66 288.12 578.17 288.12C575.28 289.57 577.21 291.02 578.17 291.5C582.52 295.37 586.38 299.71 588.32 305.51C588.8 305.99 589.28 305.99 589.77 305.99C590.25 305.51 590.25 305.51 590.25 305.03C589.77 303.58 588.8 303.09 588.8 301.65C588.8 300.2 586.87 298.75 586.87 296.33C586.38 294.88 584.94 293.43 583.49 292.47Z" id="a2BOvcTXFj"></path><path d="M630.82 323.86C629.37 324.83 630.34 326.28 629.37 326.76C631.31 331.59 634.69 335.46 638.07 339.8C637.1 337.39 636.14 335.46 635.17 332.56C634.2 331.59 634.2 330.14 633.72 329.66C632.27 328.21 632.75 325.31 630.82 323.86Z" id="aUb2SCQM"></path><path d="M564.17 264.94C567.06 263.97 568.03 262.04 568.51 259.62C568.51 259.14 568.51 259.14 568.51 259.14C561.27 263.49 557.89 268.32 560.3 274.6C560.78 270.73 561.75 267.83 564.17 264.94Z" id="a5Khdq3YgA"></path><path d="M625.03 320C622.61 321.93 624.06 323.86 625.03 326.28C626.96 324.83 625.03 323.38 626.48 321.93C626.96 323.86 629.37 324.83 628.89 327.25C630.82 326.76 630.34 325.31 630.34 324.35C629.37 322.9 630.34 321.45 628.89 320.48C627.44 320.97 626.48 320.48 625.03 320Z" id="eoNY4R6sV"></path><path d="M547.74 244.65C548.23 241.27 551.61 240.78 554.02 239.34C555.95 237.89 556.92 240.78 558.37 241.27C558.85 241.75 559.82 241.75 560.3 242.23C560.3 241.75 560.3 241.75 560.3 241.27C560.78 240.78 560.78 240.78 560.78 240.78C554.51 235.47 548.71 237.4 546.78 244.65C547.26 245.13 547.26 245.13 547.74 244.65Z" id="d3NQ90XyX"></path><path d="M552.09 254.79C551.61 254.79 550.64 254.79 550.16 255.28C551.61 256.72 552.57 257.69 554.51 258.17C559.34 256.24 562.23 251.41 560.78 247.06C560.3 249.96 558.85 252.38 557.4 254.79C555.47 256.72 553.54 254.31 552.09 254.79Z" id="f1tE9dBnbS"></path><path d="M607.56 260.94C606.6 259.01 604.67 258.52 603.22 257.08C601.77 256.59 600.8 256.59 599.35 256.59C599.35 257.08 599.35 257.08 599.35 257.56C599.35 258.04 599.35 258.04 600.32 258.04C600.32 258.04 600.8 258.52 600.8 258.52C601.29 258.52 601.29 259.01 601.29 259.01C601.29 259.49 600.8 259.49 600.8 259.97C601.29 261.42 606.12 263.35 607.56 262.87C608.53 262.39 608.53 262.39 608.05 262.39C607.56 261.91 607.56 261.42 607.56 260.94Z" id="bYtmlm7qQ"></path><path d="M597.01 245.62C597.49 246.1 598.94 245.13 598.94 247.06C598.46 248.51 600.39 249.48 600.88 249C604.74 248.03 603.77 250.45 603.77 252.86C604.74 253.34 605.22 252.38 605.22 251.41C605.71 249.48 604.74 248.03 603.29 247.06C601.36 246.1 599.43 243.68 597.01 245.62Z" id="aKjlMoiXK"></path><path d="M638.55 342.3C637.1 345.2 637.58 348.1 639.52 351C640.48 348.1 640.97 344.72 638.55 342.3Z" id="c346KbX6AU"></path><path d="M574.31 246.1C573.83 246.1 573.34 246.1 572.86 246.1C573.34 246.58 573.83 247.55 574.79 248.03C576.72 249 579.14 249.48 581.07 247.55C581.55 246.1 581.07 245.62 581.07 244.65C580.11 245.13 579.14 245.62 578.66 245.62C577.21 246.58 575.28 245.13 574.31 246.1Z" id="cnwHo2UiP"></path><path d="M578.69 255C575.8 256.45 572.42 256.93 570 258.86C572.9 259.35 575.8 258.86 577.73 256.45C577.73 255.97 578.21 255.48 578.69 255Z" id="e13eLF6rlt"></path><path d="M559.82 241.27C562.23 243.2 562.23 246.58 563.68 249.48C564.17 248.03 562.72 246.58 564.65 245.62C563.2 243.68 562.23 241.75 560.78 239.82C560.3 239.82 559.82 239.82 559.82 240.3C559.82 240.78 559.82 240.78 559.82 241.27Z" id="n7qvjgUha4"></path><path d="M604.74 323.86C604.26 323.38 604.26 323.38 604.26 323.86C603.77 326.76 604.74 328.21 608.12 328.21C608.12 327.25 608.6 325.31 606.19 325.31C605.71 325.31 605.22 324.35 604.74 323.86Z" id="gL27fqxe"></path><path d="M570.45 242.23C570.93 243.2 569.48 243.68 569.96 244.65C570.45 245.13 571.41 245.62 571.89 246.1C572.86 244.65 571.41 243.2 572.38 241.75C572.38 241.27 572.38 240.3 572.38 239.82C571.89 239.34 570.93 238.37 570.45 238.37C569.96 239.34 572.38 240.3 570.45 241.75C570.45 242.23 569.96 242.23 570.45 242.23Z" id="b29VXIifAD"></path><path d="M590.25 305.51C589.77 306.96 592.18 306.48 591.7 307.92C593.15 308.41 593.63 308.89 594.6 309.37C594.6 307.92 594.6 307.44 594.6 306.48C593.63 303.09 593.15 303.09 590.25 305.51C590.25 305.51 590.25 305.51 590.25 305.51Z" id="a3y13C7B7O"></path><path d="M577.69 288.12C577.74 288.17 578.13 288.56 578.17 288.6C580.11 289.57 582.04 290.05 582.52 287.15C580.59 286.67 578.17 285.71 575.76 287.64C576.72 288.12 577.21 288.12 577.69 288.12Z" id="f1PuW2Auo8"></path><path d="M594.6 309.86C595.08 310.34 596.05 311.31 596.53 311.79C596.56 311.82 596.72 311.98 597.01 312.27C597.3 311.98 597.46 311.82 597.49 311.79C597.98 310.34 597.98 308.89 596.53 308.41C595.56 307.92 595.08 308.89 594.6 309.86Z" id="bFEgGxKv5"></path><path d="M546.29 244.17C545.33 247.06 545.81 249.96 547.26 252.38C547.74 249.48 545.33 246.58 547.26 244.17C546.78 244.17 546.78 244.17 546.29 244.17Z" id="dmMywG03S"></path><path d="M608.04 262.98C609.01 264.43 610.94 264.92 611.91 266.85C612.39 263.47 609.49 263.47 608.04 262.5C608.04 262.6 608.04 262.89 608.04 262.98Z" id="cVoY3PXkw"></path><path d="M580.59 247.55C578.17 248.51 576.24 249 574.31 248.03C576.72 249.96 578.66 250.93 580.59 247.55Z" id="av1EwT8XV"></path><path d="M598.55 314.67C599.03 315.16 599.52 315.64 600 316.12C600 315.64 600 315.16 600 314.67C599.03 313.22 600.97 310.32 597.1 311.77C597.58 312.74 598.07 313.71 598.55 314.67Z" id="bopQhijR"></path><path d="M607.08 260.94C607.08 258.04 605.15 257.56 602.73 257.08C603.7 259.01 606.6 259.01 607.08 260.94Z" id="f5ClyI2ci"></path><path d="M622.5 299.71C623.95 301.16 625.4 302.61 626.36 304.06C626.36 302.13 625.4 299.71 622.5 299.23C622.5 299.71 622.5 299.62 622.5 299.71Z" id="bsKUt3QLx"></path><path d="M581.07 244.65C583 242.23 581.55 240.78 579.62 239.82C580.11 241.27 581.07 242.72 581.07 244.65Z" id="a6lMNNVs4R"></path><path d="M550.16 254.79C550.16 253.34 550.16 251.89 547.74 252.86C548.23 253.83 549.19 254.79 550.16 254.79Z" id="d12rBsXNfk"></path><path d="M588.32 305.51C588.8 306.96 589.77 307.44 591.22 307.92C593.63 305.51 589.28 306.96 589.77 305.99C589.28 305.99 588.8 305.51 588.32 305.51Z" id="b2keuD6Jso"></path><path d="M585.4 244.15C585.89 243.67 586.37 242.7 586.37 241.25C583.47 242.22 583.95 244.15 583.95 246.56C584.44 245.6 584.92 245.11 585.4 244.15Z" id="a8zeacV8G"></path><path d="M572.38 246.1C572.38 244.17 572.38 242.72 572.38 240.78C570.93 242.23 571.89 244.17 571.89 245.62C572.38 245.62 572.28 246 572.38 246.1Z" id="a4x0XRzEmf"></path><path d="M596.53 311.79C597.01 313.24 597.01 314.2 598.46 314.69C598.46 313.24 597.98 312.27 597.01 311.79C596.91 311.79 596.62 311.79 596.53 311.79Z" id="b6hJD88q9"></path><path d="M586.87 241.27C586.38 241.75 585.9 241.75 585.42 241.75C585.42 242.23 584.45 242.72 584.94 244.17C585.42 243.2 586.38 242.23 586.87 241.27Z" id="a3lD3v1ZY"></path><path d="M596.51 246.07C595.06 247.03 593.61 248 596.03 249.93C596.03 248.48 596.51 247.03 596.51 246.07Z" id="i3VHYYG5M9"></path><path d="M634.69 332.56C634.69 331.59 634.69 330.14 633.24 329.66C633.24 331.11 633.72 332.08 634.69 332.56Z" id="dPm43I3we"></path><path d="M580.59 247.55C582.04 247.06 581.07 245.62 581.07 244.65C580.59 244.65 580.59 244.65 580.59 244.65C579.14 246.1 580.59 246.58 580.59 247.55Z" id="b6meN98LT"></path><path d="M594.52 256.59C593.07 256.59 591.63 256.59 590.18 256.59C587.76 256.59 584.86 257.56 582.93 256.11C581.48 255.14 580.03 255.63 578.58 256.11C577.13 257.56 577.13 259.49 577.62 259.97C580.03 261.91 578.1 262.39 576.65 263.35C574.72 264.8 573.75 262.87 573.27 261.91C572.3 259.01 570.37 259.97 568.44 259.97C566.99 261.91 565.54 263.35 564.09 265.29C564.58 268.19 562.64 270.6 561.68 273.02C561.19 274.95 562.16 276.88 562.16 278.81C566.51 282.68 571.82 285.09 577.62 286.06C579.07 286.54 580.52 286.54 581.96 285.57C585.35 284.12 585.83 282.19 582.93 280.26C581.96 279.78 581 278.81 581.96 277.36C581 277.36 580.03 277.36 580.03 275.91C579.55 275.43 579.55 275.43 579.07 275.43C577.62 274.95 576.17 275.91 575.69 276.88C573.75 279.78 571.82 278.81 569.89 277.36C569.41 276.88 568.44 275.91 567.47 275.91C565.06 273.5 563.61 273.02 565.06 270.6C566.51 268.67 566.99 266.74 569.89 268.67C570.37 269.15 570.86 269.15 571.34 269.15C573.75 270.12 576.17 270.6 578.58 269.63C580.52 267.7 581.48 263.84 584.86 263.35C585.83 262.87 585.83 261.91 585.83 261.42C590.18 260.46 594.52 260.94 598.87 259.97C598.87 259.97 599.35 259.49 599.35 259.49C599.84 258.52 599.35 258.04 598.87 257.56C598.87 257.08 598.39 257.08 598.39 257.08C596.94 258.04 595.97 256.59 594.52 256.59Z" id="c3VpEf9st"></path><path d="M603.7 270.12C602.25 268.67 601.77 267.22 599.84 266.25C597.9 265.77 596.46 265.29 595.97 263.35C595.49 262.39 595.97 260.94 594.52 260.94C591.63 260.94 589.21 259.49 586.79 261.91C586.79 263.84 587.76 265.29 589.69 265.77C590.66 263.84 592.11 264.32 594.04 265.29C592.11 265.29 591.14 264.32 589.69 265.77C591.14 267.7 593.56 268.67 595.97 269.15C598.87 269.63 601.29 270.6 600.8 273.5C600.32 276.4 601.29 278.33 601.77 280.74C604.18 279.29 605.63 276.88 606.12 274.95C608.05 272.05 604.67 272.53 604.18 271.08C603.7 270.6 603.7 270.6 603.7 270.12Z" id="c4cwfNPl6"></path><path d="M601.79 282.27C596.47 280.82 592.13 276.95 588.26 273.57C587.78 273.57 587.3 273.57 586.81 274.06C586.33 275.02 584.88 274.54 584.88 275.51C584.88 276.95 586.33 276.47 586.81 276.95C588.75 278.4 591.16 278.4 592.61 280.82C593.58 282.27 594.54 283.72 595.99 283.72C598.89 283.72 599.86 287.1 602.75 287.58C603.72 287.58 606.13 289.51 605.65 291.93C605.65 292.41 604.2 293.86 605.65 293.38C607.1 292.89 607.58 294.83 608.55 293.38C609.03 292.41 608.55 291.45 608.07 290.96C607.1 289.51 606.13 287.58 604.69 286.13C603.72 284.68 603.24 283.23 601.79 282.27Z" id="d79MX5AzQ"></path><path d="M603.27 263.59C601.82 264.07 600.37 262.14 599.41 264.07C598.92 265.04 600.37 265.52 600.37 266C601.82 267.45 601.82 269.39 604.24 269.87C607.14 269.39 604.24 266.49 604.72 264.55C605.69 263.59 603.76 263.59 603.27 263.59Z" id="d6lkz5NSu"></path><path d="M572.38 270.81C575.28 271.78 576.72 274.67 579.14 276.12C579.14 276.12 579.62 276.12 579.62 276.12C581.07 274.19 580.11 272.26 579.14 270.33C577.21 268.88 574.31 270.33 571.89 268.88C571.41 269.84 571.41 270.33 572.38 270.81Z" id="icG5cI1eO"></path><path d="M586.79 261.91C590.18 260.94 593.56 260.46 595.97 263.35C596.94 262.39 597.9 261.42 598.87 260.46C595.01 259.97 590.66 259.97 586.31 261.91C586.41 261.91 586.7 261.91 586.79 261.91Z" id="a2eavXCleJ"></path><path d="M582.5 271.22C582.5 271.7 582.98 272.18 583.47 272.18C583.95 272.18 583.95 271.7 583.95 270.73C583.95 270.73 583.95 269.77 583.47 269.77C582.98 269.77 582.5 270.25 582.5 271.22Z" id="coD5YohH7"></path><path d="M599.35 257.56C599.35 258.04 599.84 259.01 599.84 259.49C600.32 259.49 600.32 259.49 600.8 259.49C600.8 259.49 601.29 259.01 601.29 259.01C601.77 257.56 600.32 258.52 599.84 257.56C599.74 257.56 599.45 257.56 599.35 257.56Z" id="a1tSuAFjIN"></path><path d="M616.82 318.07C614.88 318.55 616.33 320.97 614.88 321.45C611.5 323.38 612.95 325.8 613.92 328.21C613.92 329.66 614.4 332.08 612.95 332.56C609.57 333.52 611.5 335.46 612.47 336.42C614.4 338.35 614.4 340.77 614.88 343.67C615.37 345.6 615.85 348.02 618.75 348.98C620.68 348.98 621.65 348.02 621.65 346.08C621.16 345.12 620.68 344.15 620.2 343.18C619.71 339.8 619.23 336.42 617.78 333.52C617.3 332.08 617.3 331.11 618.26 329.66C618.75 328.69 619.71 328.21 619.71 327.25C621.16 325.31 618.26 323.38 620.2 321.45C621.16 321.93 621.65 321.45 622.13 320.97C622.13 320.97 622.13 320.48 622.13 320.48C621.65 318.55 620.68 317.1 618.75 317.58C618.26 317.58 617.3 318.07 616.82 318.07Z" id="bMr7G1xZI"></path><path d="M630.82 343.18C628.41 343.67 629.37 340.77 627.92 340.29C627.44 340.29 627.44 339.8 627.44 339.8C625.03 339.8 623.09 339.32 621.16 336.91C620.2 335.94 618.26 335.46 618.26 337.39C618.75 339.32 617.3 341.74 618.26 343.67C618.26 344.63 618.75 345.6 619.71 345.6C621.65 346.08 625.03 345.6 624.06 349.95C624.06 350.91 625.51 351.4 626.48 351.88C629.37 353.33 632.75 351.4 635.17 347.53C635.65 344.63 635.17 341.74 633.72 339.32C633.72 339.32 633.72 339.32 633.72 339.32C633.08 341.9 632.11 343.18 630.82 343.18Z" id="a5CANbB8XA"></path><path d="M628.41 331.11C627.92 330.63 626.96 330.63 626.96 330.63C625.51 332.56 624.06 331.59 622.61 331.11C620.68 330.63 619.71 328.21 617.3 329.18C616.82 330.63 615.37 331.59 615.85 332.56C617.78 335.94 617.78 340.29 619.23 343.67C618.75 341.74 621.16 339.8 619.71 336.91C625.03 340.77 625.03 340.77 628.89 340.77C630.82 339.8 632.27 338.35 634.69 339.32C634.2 338.35 634.69 337.39 633.24 337.39C629.37 336.91 627.44 335.46 628.41 331.11Z" id="azRVt5Jkx"></path><path d="M625.51 348.5C627.44 346.57 625.99 346.57 624.06 346.08C622.61 345.6 621.16 345.6 619.71 346.08C619.71 347.53 618.75 348.02 617.78 348.5C617.78 349.95 618.75 351.4 619.71 351.88C621.65 352.36 621.16 353.81 621.16 354.78C622.13 355.26 623.09 355.74 624.06 356.23C625.03 356.71 625.99 357.68 626.96 356.71C626.96 356.71 626.96 356.23 626.96 355.74C626.48 354.29 625.03 355.26 624.06 355.26C623.58 355.26 623.58 354.78 623.58 354.78C624.06 353.81 624.54 353.33 625.03 353.33C627.92 355.26 630.34 352.36 632.75 352.85C633.72 353.33 634.2 352.36 634.2 351.88C634.2 350.43 634.69 348.98 634.69 347.53C633.24 348.98 631.31 349.95 629.86 351.4C629.37 352.85 627.44 351.4 625.99 350.43C625.51 349.95 624.54 348.98 625.51 348.5Z" id="bGGvp4hbb"></path><path d="M622.16 355.26C618.3 353.33 616.85 348.02 612.5 348.02C612.98 353.33 616.85 361.06 623.61 360.57C624.58 360.09 625.54 360.57 625.54 359.61C625.54 358.64 625.06 357.68 624.09 357.68C622.64 357.19 622.64 356.23 622.16 355.26Z" id="ew1svwt3O"></path><path d="M611.5 312.75C610.05 313.72 611.02 315.17 610.05 316.62C609.57 318.07 609.57 318.55 611.02 319.52C612.95 320.97 612.95 321.45 610.54 321.93C610.05 321.93 608.12 321.45 609.09 323.38C610.54 323.86 611.02 324.83 611.02 325.31C610.54 326.76 612.95 328.69 609.57 329.66C608.12 330.14 607.64 334.49 608.12 337.39C609.57 334.49 610.05 330.63 613.43 328.69C613.43 327.25 614.88 326.28 612.95 325.31C611.98 324.83 612.47 323.86 612.95 323.38C615.85 322.42 614.88 320 615.85 318.07C617.78 316.62 617.78 314.69 615.37 315.17C613.43 314.69 612.95 313.24 611.5 312.75Z" id="chtYpzZQM"></path><path d="M623.09 330.14C622.61 329.66 622.61 328.69 623.58 328.69C625.03 329.18 625.51 329.18 625.03 327.25C624.54 325.8 624.06 324.35 622.13 325.31C621.16 325.8 620.68 327.25 619.23 327.25C618.26 327.25 617.3 327.73 617.3 328.69C619.23 328.69 619.23 330.63 620.68 331.11C623.58 331.59 626.48 333.04 629.37 330.63C627.44 330.14 626.48 330.63 625.03 331.59C623.58 332.56 623.58 331.11 623.09 330.14Z" id="lOxMwkpWo"></path><path d="M622.54 316.53C622.54 316.05 622.54 315.57 622.54 315.08C622.06 315.08 621.1 314.6 620.61 314.6C620.13 314.6 619.65 314.12 619.16 314.12C619.16 315.57 619.16 316.53 619.16 317.98C620.61 318.47 621.1 319.92 622.06 320.88C623.51 319.92 623.99 318.95 622.06 317.98C621.1 317.02 620.61 316.53 622.54 316.53Z" id="b1fSRloTq5"></path><path d="M623.09 316.62C624.06 317.58 623.58 319.52 625.03 319.52C625.03 317.58 625.99 315.65 624.54 314.2C624.06 315.17 623.58 315.65 623.09 316.62Z" id="dp4ZS32S"></path><path d="M621.16 323.38C622.61 322.9 623.09 321.93 622.13 320.48C621.16 320.97 620.2 321.45 619.71 321.45C619.71 322.42 619.23 323.86 621.16 323.38Z" id="apCC2nwmF"></path><path d="M551.12 246.58C551.12 248.03 552.57 248.51 553.54 248.51C554.99 248.51 555.47 248.03 554.99 246.58C554.99 245.62 554.02 244.65 553.06 244.65C552.57 245.13 551.12 245.13 551.12 246.58Z" id="c1K1qiXwxS"></path><path d="M607.64 297.3C606.67 297.3 605.71 296.82 604.74 296.82C604.26 296.82 603.29 296.33 602.81 296.82C602.32 296.82 602.32 297.3 601.84 297.78C601.36 298.75 601.36 299.23 601.36 300.2C601.84 302.13 602.81 303.09 604.74 301.65C606.19 301.16 606.67 302.13 607.15 303.58C607.64 304.06 608.12 305.03 607.64 305.51C608.12 305.99 608.6 306.96 609.57 306.48C612.95 304.06 610.05 302.13 609.09 299.71C608.6 298.75 608.12 298.75 608.12 298.75C607.64 298.26 607.64 297.78 607.64 297.3Z" id="a1WbALodsA"></path><path d="M591.22 280.39C589.77 278.94 588.32 278.94 586.87 279.91C584.94 281.36 589.77 281.36 587.35 282.32C588.8 282.81 587.83 284.74 589.28 285.22C590.73 283.77 592.18 283.29 593.63 284.74C594.11 285.22 595.08 285.71 595.56 285.22C595.56 284.74 596.05 284.26 596.05 283.77C595.56 282.81 594.11 281.84 592.66 280.88C592.18 280.39 591.5 280.49 591.22 280.39Z" id="c6LsmdRPS"></path><path d="M596.05 287.64C595.56 287.15 594.6 287.15 594.11 287.64C593.63 287.64 592.66 288.12 592.18 288.6C591.7 289.57 590.73 290.05 590.73 291.5C593.63 291.98 597.49 291.98 599.43 295.37C600.88 295.85 601.84 296.82 603.29 296.82C603.77 296.82 604.26 297.78 604.74 296.82C604.74 296.82 604.26 296.33 604.74 296.33C603.77 292.95 600.88 292.47 598.94 290.54C597.98 289.09 597.49 287.64 596.05 287.64Z" id="b1ct0LfYNS"></path><path d="M594.35 285.65C591.93 282.75 590.48 283.72 590 287.1C590.48 287.58 590.48 287.58 590.48 287.58C591.45 289.03 592.9 289.52 594.83 290C595.31 290 596.28 290 596.76 290C597.25 289.52 597.25 289.52 597.25 288.55C597.73 287.58 597.25 286.62 596.28 286.62C595.31 287.1 594.83 286.14 594.35 285.65Z" id="bcs0UCWza"></path><path d="M598.46 290.54C598.94 291.02 598.94 291.98 599.43 292.95C602.32 291.5 602.32 294.88 604.26 295.85C604.26 294.4 603.77 293.92 603.29 292.95C602.81 288.6 602.32 288.12 598.94 290.54C598.85 290.54 598.56 290.54 598.46 290.54Z" id="e2bJV3LWgB"></path><path d="M596.05 288.12C597.49 287.64 597.49 290.05 598.94 290.05C598.94 289.09 599.91 286.67 596.53 287.64C596.43 287.73 596.14 288.02 596.05 288.12Z" id="b6o1wkEq1A"></path><path d="M611.02 297.3C611.02 297.3 610.54 297.3 610.54 297.3C609.09 298.75 610.05 300.68 610.54 302.13C611.02 303.58 611.02 305.99 612.47 306.48C613.92 306.96 615.37 306.48 615.37 305.03C613.92 301.16 617.78 299.71 619.23 296.82C616.82 296.33 615.85 298.26 614.88 299.23C612.95 301.16 612.47 297.3 611.02 297.3Z" id="oc5aDzpCt"></path><path d="M608.6 305.99C608.12 305.99 607.15 305.99 606.67 306.48C606.19 306.96 606.19 306.96 606.19 307.44C606.19 307.92 606.19 307.92 606.67 308.41C608.12 309.86 607.15 310.82 606.67 312.27C606.67 312.75 606.67 312.75 607.15 313.24C607.64 314.2 608.6 314.69 609.09 314.69C610.05 314.2 610.54 312.75 611.02 312.27C611.5 310.82 611.98 307.92 611.98 306.96C611.5 305.51 611.02 304.06 610.54 302.61C610.54 301.16 610.54 298.75 608.12 299.23C608.6 301.16 611.5 303.58 608.6 305.99Z" id="b63tMNG94"></path><path d="M611.5 311.79C610.05 311.79 609.57 312.27 609.57 313.72C609.09 315.17 610.05 315.65 611.02 315.65C613.43 315.17 610.54 313.24 611.5 312.27C611.5 312.18 611.5 311.89 611.5 311.79Z" id="i1fTqAOCGe"></path><path d="M587.35 292.47C585.42 292.95 585.9 291.02 585.9 290.05C585.42 288.6 585.9 286.19 583 287.15C581.55 288.6 580.11 288.12 578.66 288.6C577.21 290.05 579.14 290.54 580.11 291.5C582.04 293.43 584.94 294.4 586.87 296.82C587.83 298.26 589.28 298.75 590.73 299.23C592.18 298.75 593.15 297.78 593.63 296.33C592.66 293.92 590.25 292.95 587.83 292.47C587.35 292.47 587.45 292.47 587.35 292.47Z" id="bOIkXob6i"></path><path d="M585.46 286.52C585.94 288.45 586.43 290.38 586.91 292.32C588.36 293.28 589.81 293.77 590.77 290.87C591.26 290.38 592.22 289.9 592.22 288.93C591.74 287.49 590.29 286.52 589.32 285.07C587.39 285.55 590.29 281.69 586.91 282.66C585.46 283.62 584.98 284.59 585.46 286.52Z" id="p8fPpjmcx"></path><path d="M561.75 273.15C560.3 275.56 561.27 277.01 562.23 278.94C562.72 277.01 562.23 275.08 561.75 273.15Z" id="dfnsDQUcX"></path><path d="M608.12 299.23C609.57 299.71 610.05 301.16 611.02 302.13C610.54 300.2 610.54 298.26 610.54 296.82C609.57 297.3 608.6 297.78 608.12 298.75C608.12 298.84 608.12 299.13 608.12 299.23Z" id="d33tbzg4pt"></path><path d="M610.54 315.65C610.05 315.17 609.57 314.2 609.09 313.72C608.6 313.24 607.64 312.75 606.67 312.27C604.26 312.27 604.26 308.89 601.84 309.37C601.79 309.42 601.41 309.81 601.36 309.86C601.36 311.79 602.32 313.24 603.77 314.2C606.67 316.14 607.15 319.03 606.67 321.93C606.67 322.9 607.15 323.38 607.15 324.35C608.6 324.35 609.09 323.86 609.09 322.9C609.09 322.87 609.09 322.7 609.09 322.42C609.38 322.13 609.54 321.96 609.57 321.93C611.02 321.45 612.95 323.38 613.43 320.48C614.4 318.07 611.98 318.55 611.02 317.58C610.54 317.1 610.54 316.14 610.54 315.65Z" id="j1DESToYcU"></path><path d="M595.56 304.06C596.05 304.54 596.05 304.54 597.01 305.03C598.46 307.44 598.46 311.31 602.81 309.37C602.32 307.44 600.88 305.51 599.91 304.06C598.46 303.09 597.49 301.65 596.05 302.61C595.56 303.09 595.56 303.58 595.56 304.06Z" id="jcFEAGsWY"></path><path d="M590.25 305.99C591.7 306.48 593.63 304.06 594.6 306.96C595.08 306.48 596.05 305.99 596.53 305.51C596.05 305.03 596.05 305.03 596.05 304.54C594.11 301.65 591.22 302.13 588.8 302.61C588.32 304.06 590.25 304.54 590.25 305.99Z" id="a24iGk8NIw"></path><path d="M603.38 317.5C603.86 315.57 602.9 314.6 601.93 313.15C600.97 312.19 600.48 313.15 600 314.12C601.93 314.12 601.45 317.5 603.38 317.5Z" id="e1ZnlYhVlN"></path><path d="M568.03 239.93C568.03 240.89 569 242.34 567.06 242.34C565.13 242.34 565.62 240.89 565.62 239.93C565.13 238.48 564.17 237.99 563.2 238.48C561.75 238.96 562.23 239.93 562.72 240.89C564.17 244.76 567.06 245.24 570.93 242.34C570.93 241.86 570.93 241.86 570.93 241.86C570.45 240.89 570.45 239.93 569.96 239.44C569.48 238.48 568.51 238.48 568.51 238.48C568.03 238.48 568.03 238.96 568.03 239.93Z" id="a27H2VgCmg"></path><path d="M595.08 257.21C596.05 257.69 597.49 259.14 598.94 257.69C597.49 257.21 596.05 257.21 595.08 257.21Z" id="a3SFEAFz2z"></path><path d="M623.09 315.17C623.58 314.69 624.06 314.2 623.58 313.24C623.51 313.24 623.19 313.24 622.61 313.24C622.93 314.2 623.09 314.85 623.09 315.17Z" id="a43IuCtAWa"></path><path d="M573.83 244.17C573.83 244.65 573.83 245.62 573.83 246.1C575.76 246.58 577.21 247.55 578.17 245.62C576.72 245.13 575.76 243.68 574.31 241.75C576.24 241.27 577.21 243.68 579.14 243.2C578.66 241.27 578.17 239.34 575.28 239.82C572.38 240.78 573.34 242.23 573.83 244.17Z" id="f42Bc6F10S"></path><path d="M590.25 298.26C589.77 296.82 587.35 297.3 586.38 296.33C585.42 298.75 588.32 300.2 588.32 302.13C590.25 303.58 593.63 302.61 595.56 304.06C595.56 303.58 595.56 303.09 595.56 302.61C595.08 301.16 593.63 300.68 592.66 299.71C592.18 299.23 591.22 298.75 590.25 298.26Z" id="a16Smz8nD3"></path><path d="M601.29 259.01C601.77 259.01 602.73 258.52 602.25 258.52C601.77 257.56 600.8 257.56 599.84 257.56C600.32 258.04 600.8 258.52 601.29 259.01Z" id="afZPV8vR1"></path><path d="M568.03 266.87C567.55 266.38 566.1 266.38 566.1 267.35C566.1 269.28 564.65 270.25 564.17 271.7C563.68 273.15 563.2 274.11 565.13 275.08C567.06 276.05 569.48 277.01 571.41 278.94C572.38 280.39 574.79 280.39 575.28 279.43C575.76 277.49 577.69 276.53 579.62 276.05C579.62 274.6 578.17 274.11 578.17 273.15C576.72 270.73 573.34 270.73 571.89 268.8C570.45 267.35 569 268.32 568.03 266.87Z" id="b3jGvst4l1"></path><path d="M575.76 281.76C575.76 282.72 576.24 283.21 577.21 283.21C578.17 283.21 578.66 282.72 578.17 281.76C577.69 281.28 577.21 280.79 576.72 280.79C576.24 280.79 575.76 281.28 575.76 281.76Z" id="c5IRBDZWaU"></path><path d="M590.25 263.49C589.28 263.97 589.77 264.94 590.25 265.9C591.7 265.42 592.66 265.9 594.11 267.35C595.08 267.83 595.56 267.35 596.05 266.38C596.05 264.94 595.08 264.94 594.11 264.45C592.66 263.97 591.7 262.52 590.25 263.49Z" id="a1Yjx9WNy4"></path><path d="M628.89 342.22C629.37 343.18 627.92 344.63 629.86 345.12C631.31 345.12 632.27 344.63 633.24 343.67C634.69 342.22 634.2 341.25 634.2 339.8C631.31 336.91 630.34 336.91 628.41 340.77C628.89 341.25 628.89 341.74 628.89 342.22Z" id="a1HF4eKk85"></path><path d="M601.36 299.23C601.84 298.26 601.84 297.78 600.88 297.78C599.91 297.78 599.43 297.78 598.94 298.75C598.94 299.71 599.43 300.68 599.43 302.13C598.94 305.03 599.91 305.51 603.29 305.03C604.26 304.54 605.22 305.51 606.19 305.51C606.67 305.51 607.64 305.03 607.64 304.54C608.6 304.06 607.64 303.58 607.64 303.09C606.67 301.65 605.71 300.68 604.26 300.2C602.32 302.13 602.32 300.68 601.36 299.23Z" id="ehjQoj7jS"></path><path d="M599.91 297.3C600.88 297.3 601.36 297.78 601.84 297.3C602.32 296.82 602.32 296.82 602.81 296.33C602.32 294.88 600.88 293.92 599.43 294.88C598.94 296.33 599.43 296.82 599.91 297.3Z" id="aJeIwxfpE"></path><path d="M607.15 302.7C607.15 300.77 606.67 300.77 604.26 299.8C604.74 301.25 606.19 301.73 607.15 302.7Z" id="cVQB6INyw"></path><path d="M607.64 306.48C608.12 306.48 609.09 306.48 609.09 305.99C608.6 305.51 608.12 305.03 607.64 304.54C607.15 304.54 606.19 304.54 606.19 305.03C606.19 305.99 606.67 306.48 607.64 306.48Z" id="a3qVmjEhex"></path><path d="M600.88 298.26C601.36 298.26 601.84 298.75 601.84 299.71C602.81 299.23 602.32 298.26 602.32 297.78C601.36 297.3 601.36 296.33 600.88 297.3C600.39 297.78 600.88 297.78 600.88 298.26Z" id="a5YyjhctQM"></path><path d="M590.85 291.5C590.37 293.43 588.92 292.95 586.99 292.95C588.92 294.4 591.33 294.88 592.78 296.82C592.78 296.86 592.78 297.25 592.78 297.3C593.27 298.26 593.27 299.23 594.23 300.2C595.68 299.23 597.61 299.71 599.06 298.75C599.06 298.26 599.55 298.26 600.51 298.26C600.51 298.26 600.51 297.78 600.51 297.78C600.03 296.82 599.55 296.33 599.06 295.37C598.1 291.5 595.68 290.05 591.82 291.5C591.82 291.98 591.33 291.5 590.85 291.5Z" id="bZsq2E2V9"></path><path d="M593.63 288.12C592.18 287.15 590.73 286.19 589.28 285.22C589.28 287.15 590.25 288.6 591.7 289.09C592.18 288.6 593.15 288.6 593.63 288.12Z" id="aGIQ6P1wT"></path><path d="M599.91 302.61C601.36 300.68 599.91 300.2 599.43 298.75C597.49 298.26 595.56 297.78 594.11 299.23C593.63 298.75 593.63 298.75 592.66 298.75C592.18 298.75 591.22 299.23 591.22 300.2C592.66 301.65 593.63 302.13 595.08 303.09C595.56 303.09 596.53 303.09 597.01 303.58C598.94 305.51 599.43 307.92 601.84 309.37C603.29 309.86 604.26 310.82 604.74 312.27C605.22 313.72 606.19 313.72 606.67 311.79C606.19 310.34 605.22 308.89 606.67 307.44C606.67 307.44 606.67 306.96 606.67 306.96C606.19 305.51 604.26 305.03 602.81 304.54C601.36 305.03 598.46 304.06 599.91 302.61Z" id="m7mS6WS48"></path><path d="M607.15 312.27C608.6 310.82 610.54 309.37 607.15 307.92C604.74 308.41 604.74 309.37 607.15 312.27Z" id="j1k9onMHCw"></path><path d="M607.64 307.44C607.64 307.44 607.64 306.96 607.64 306.96C607.15 306.48 606.67 305.99 606.19 305.51C605.22 305.03 604.74 302.13 603.29 304.54C604.26 305.99 606.19 306.48 607.64 307.44Z" id="d9Rie0vDh"></path><path d="M592.18 300.2C592.66 299.71 593.15 299.23 593.63 299.23C594.11 297.78 593.15 297.3 592.66 296.33C591.7 297.3 591.22 298.26 590.25 298.75C590.73 299.71 591.7 300.2 592.18 300.2Z" id="g35WBifH06"></path><path d="M593.63 299.23C593.63 299.23 593.63 299.23 594.11 299.23C594.11 298.26 594.6 296.82 592.66 296.33C593.15 297.3 593.15 298.26 593.63 299.23Z" id="aGXULCpKK"></path></defs><g><g><g><use xlink:href="#fPkcp7ejR" opacity="1" fill="#ffffff" fill-opacity="1"></use><g><use xlink:href="#fPkcp7ejR" opacity="1" fill-opacity="0" stroke="#000000" stroke-width="1" stroke-opacity="0"></use></g></g><g><use xlink:href="#a3GaoAvNOG" opacity="1" fill="#ffffff" fill-opacity="1"></use><g><use xlink:href="#a3GaoAvNOG" opacity="1" fill-opacity="0" stroke="#000000" stroke-width="1" stroke-opacity="0"></use></g></g><g><use xlink:href="#aPvigRJYm" opacity="1" fill="#3f9050" fill-opacity="1"></use><g><use xlink:href="#aPvigRJYm" opacity="1" fill-opacity="0" stroke="#000000" stroke-width="1" stroke-opacity="0"></use></g></g><g><use xlink:href="#f4zBdtIHY" opacity="1" fill="#ffffff" fill-opacity="1"></use><g><use xlink:href="#f4zBdtIHY" opacity="1" fill-opacity="0" stroke="#000000" stroke-width="1" stroke-opacity="0"></use></g></g><g><use xlink:href="#c1CE3W3w2" opacity="1" fill="#ffffff" fill-opacity="1"></use><g><use xlink:href="#c1CE3W3w2" opacity="1" fill-opacity="0" stroke="#000000" stroke-width="1" stroke-opacity="0"></use></g></g><g><use xlink:href="#b1BL2gMcdF" opacity="1" fill="#ffffff" fill-opacity="1"></use><g><use xlink:href="#b1BL2gMcdF" opacity="1" fill-opacity="0" stroke="#000000" stroke-width="1" stroke-opacity="0"></use></g></g><g><use xlink:href="#b1qQ4MPkFa" opacity="1" fill="#ffffff" fill-opacity="1"></use><g><use xlink:href="#b1qQ4MPkFa" opacity="1" fill-opacity="0" stroke="#000000" stroke-width="1" stroke-opacity="0"></use></g></g><g><use xlink:href="#b48a0BJsf4" opacity="1" fill="#ffffff" fill-opacity="1"></use><g><use xlink:href="#b48a0BJsf4" opacity="1" fill-opacity="0" stroke="#000000" stroke-width="1" stroke-opacity="0"></use></g></g><g><use xlink:href="#a2WjH0PDl" opacity="1" fill="#0e8743" fill-opacity="1"></use><g><use xlink:href="#a2WjH0PDl" opacity="1" fill-opacity="0" stroke="#000000" stroke-width="1" stroke-opacity="0"></use></g></g><g><use xlink:href="#b5h13I4EVD" opacity="1" fill="#ffffff" fill-opacity="1"></use><g><use xlink:href="#b5h13I4EVD" opacity="1" fill-opacity="0" stroke="#000000" stroke-width="1" stroke-opacity="0"></use></g></g><g><use xlink:href="#a21lSITePn" opacity="1" fill="#ffffff" fill-opacity="1"></use><g><use xlink:href="#a21lSITePn" opacity="1" fill-opacity="0" stroke="#000000" stroke-width="1" stroke-opacity="0"></use></g></g><g><use xlink:href="#eu1taTHpl" opacity="1" fill="#ffffff" fill-opacity="1"></use><g><use xlink:href="#eu1taTHpl" opacity="1" fill-opacity="0" stroke="#000000" stroke-width="1" stroke-opacity="0"></use></g></g><g><use xlink:href="#e2vxUJDzMs" opacity="1" fill="#ffffff" fill-opacity="1"></use><g><use xlink:href="#e2vxUJDzMs" opacity="1" fill-opacity="0" stroke="#000000" stroke-width="1" stroke-opacity="0"></use></g></g><g><use xlink:href="#b7wpUNFwH" opacity="1" fill="#ffffff" fill-opacity="1"></use><g><use xlink:href="#b7wpUNFwH" opacity="1" fill-opacity="0" stroke="#000000" stroke-width="1" stroke-opacity="0"></use></g></g><g><use xlink:href="#b1c5aiE8XT" opacity="1" fill="#ffffff" fill-opacity="1"></use><g><use xlink:href="#b1c5aiE8XT" opacity="1" fill-opacity="0" stroke="#000000" stroke-width="1" stroke-opacity="0"></use></g></g><g><use xlink:href="#a4x41lJSvO" opacity="1" fill="#ffffff" fill-opacity="1"></use><g><use xlink:href="#a4x41lJSvO" opacity="1" fill-opacity="0" stroke="#000000" stroke-width="1" stroke-opacity="0"></use></g></g><g><use xlink:href="#g9AXKGVNM0" opacity="1" fill="#ffffff" fill-opacity="1"></use><g><use xlink:href="#g9AXKGVNM0" opacity="1" fill-opacity="0" stroke="#000000" stroke-width="1" stroke-opacity="0"></use></g></g><g><use xlink:href="#djBczly1W" opacity="1" fill="#ffffff" fill-opacity="1"></use><g><use xlink:href="#djBczly1W" opacity="1" fill-opacity="0" stroke="#000000" stroke-width="1" stroke-opacity="0"></use></g></g><g><use xlink:href="#b1mRWAGjh4" opacity="1" fill="#ffffff" fill-opacity="1"></use><g><use xlink:href="#b1mRWAGjh4" opacity="1" fill-opacity="0" stroke="#000000" stroke-width="1" stroke-opacity="0"></use></g></g><g><use xlink:href="#c4TIc3rYaO" opacity="1" fill="#ffffff" fill-opacity="1"></use><g><use xlink:href="#c4TIc3rYaO" opacity="1" fill-opacity="0" stroke="#000000" stroke-width="1" stroke-opacity="0"></use></g></g><g><use xlink:href="#fWz1DS9h" opacity="1" fill="#ffffff" fill-opacity="1"></use><g><use xlink:href="#fWz1DS9h" opacity="1" fill-opacity="0" stroke="#000000" stroke-width="1" stroke-opacity="0"></use></g></g><g><use xlink:href="#cm5qk2g7F" opacity="1" fill="#ffffff" fill-opacity="1"></use><g><use xlink:href="#cm5qk2g7F" opacity="1" fill-opacity="0" stroke="#000000" stroke-width="1" stroke-opacity="0"></use></g></g><g><use xlink:href="#azVIP0AwE" opacity="1" fill="#ffffff" fill-opacity="1"></use><g><use xlink:href="#azVIP0AwE" opacity="1" fill-opacity="0" stroke="#000000" stroke-width="1" stroke-opacity="0"></use></g></g><g><use xlink:href="#aDNkQU6pc" opacity="1" fill="#ffffff" fill-opacity="1"></use><g><use xlink:href="#aDNkQU6pc" opacity="1" fill-opacity="0" stroke="#000000" stroke-width="1" stroke-opacity="0"></use></g></g><g><use xlink:href="#e42hHfCwuR" opacity="1" fill="#ffffff" fill-opacity="1"></use><g><use xlink:href="#e42hHfCwuR" opacity="1" fill-opacity="0" stroke="#000000" stroke-width="1" stroke-opacity="0"></use></g></g><g><use xlink:href="#bGlBKZMf" opacity="1" fill="#ffffff" fill-opacity="1"></use><g><use xlink:href="#bGlBKZMf" opacity="1" fill-opacity="0" stroke="#000000" stroke-width="1" stroke-opacity="0"></use></g></g><g><use xlink:href="#bB5FIS6QF" opacity="1" fill="#ffffff" fill-opacity="1"></use><g><use xlink:href="#bB5FIS6QF" opacity="1" fill-opacity="0" stroke="#000000" stroke-width="1" stroke-opacity="0"></use></g></g><g><use xlink:href="#d2838DZwcs" opacity="1" fill="#ffffff" fill-opacity="1"></use><g><use xlink:href="#d2838DZwcs" opacity="1" fill-opacity="0" stroke="#000000" stroke-width="1" stroke-opacity="0"></use></g></g><g><use xlink:href="#aN152rTeF" opacity="1" fill="#0e8743" fill-opacity="1"></use><g><use xlink:href="#aN152rTeF" opacity="1" fill-opacity="0" stroke="#000000" stroke-width="1" stroke-opacity="0"></use></g></g><g><use xlink:href="#b3o6regfLN" opacity="1" fill="#ffffff" fill-opacity="1"></use><g><use xlink:href="#b3o6regfLN" opacity="1" fill-opacity="0" stroke="#000000" stroke-width="1" stroke-opacity="0"></use></g></g><g><use xlink:href="#bUFH99ffN" opacity="1" fill="#0e8743" fill-opacity="1"></use><g><use xlink:href="#bUFH99ffN" opacity="1" fill-opacity="0" stroke="#000000" stroke-width="1" stroke-opacity="0"></use></g></g><g><use xlink:href="#a2BOvcTXFj" opacity="1" fill="#ffffff" fill-opacity="1"></use><g><use xlink:href="#a2BOvcTXFj" opacity="1" fill-opacity="0" stroke="#000000" stroke-width="1" stroke-opacity="0"></use></g></g><g><use xlink:href="#aUb2SCQM" opacity="1" fill="#ffffff" fill-opacity="1"></use><g><use xlink:href="#aUb2SCQM" opacity="1" fill-opacity="0" stroke="#000000" stroke-width="1" stroke-opacity="0"></use></g></g><g><use xlink:href="#a5Khdq3YgA" opacity="1" fill="#ffffff" fill-opacity="1"></use><g><use xlink:href="#a5Khdq3YgA" opacity="1" fill-opacity="0" stroke="#000000" stroke-width="1" stroke-opacity="0"></use></g></g><g><use xlink:href="#eoNY4R6sV" opacity="1" fill="#ffffff" fill-opacity="1"></use><g><use xlink:href="#eoNY4R6sV" opacity="1" fill-opacity="0" stroke="#000000" stroke-width="1" stroke-opacity="0"></use></g></g><g><use xlink:href="#d3NQ90XyX" opacity="1" fill="#ffffff" fill-opacity="1"></use><g><use xlink:href="#d3NQ90XyX" opacity="1" fill-opacity="0" stroke="#000000" stroke-width="1" stroke-opacity="0"></use></g></g><g><use xlink:href="#f1tE9dBnbS" opacity="1" fill="#ffffff" fill-opacity="1"></use><g><use xlink:href="#f1tE9dBnbS" opacity="1" fill-opacity="0" stroke="#000000" stroke-width="1" stroke-opacity="0"></use></g></g><g><use xlink:href="#bYtmlm7qQ" opacity="1" fill="#ffffff" fill-opacity="1"></use><g><use xlink:href="#bYtmlm7qQ" opacity="1" fill-opacity="0" stroke="#000000" stroke-width="1" stroke-opacity="0"></use></g></g><g><use xlink:href="#aKjlMoiXK" opacity="1" fill="#ffffff" fill-opacity="1"></use><g><use xlink:href="#aKjlMoiXK" opacity="1" fill-opacity="0" stroke="#000000" stroke-width="1" stroke-opacity="0"></use></g></g><g><use xlink:href="#c346KbX6AU" opacity="1" fill="#ffffff" fill-opacity="1"></use><g><use xlink:href="#c346KbX6AU" opacity="1" fill-opacity="0" stroke="#000000" stroke-width="1" stroke-opacity="0"></use></g></g><g><use xlink:href="#cnwHo2UiP" opacity="1" fill="#ffffff" fill-opacity="1"></use><g><use xlink:href="#cnwHo2UiP" opacity="1" fill-opacity="0" stroke="#000000" stroke-width="1" stroke-opacity="0"></use></g></g><g><use xlink:href="#e13eLF6rlt" opacity="1" fill="#ffffff" fill-opacity="1"></use><g><use xlink:href="#e13eLF6rlt" opacity="1" fill-opacity="0" stroke="#000000" stroke-width="1" stroke-opacity="0"></use></g></g><g><use xlink:href="#n7qvjgUha4" opacity="1" fill="#ffffff" fill-opacity="1"></use><g><use xlink:href="#n7qvjgUha4" opacity="1" fill-opacity="0" stroke="#000000" stroke-width="1" stroke-opacity="0"></use></g></g><g><use xlink:href="#gL27fqxe" opacity="1" fill="#ffffff" fill-opacity="1"></use><g><use xlink:href="#gL27fqxe" opacity="1" fill-opacity="0" stroke="#000000" stroke-width="1" stroke-opacity="0"></use></g></g><g><use xlink:href="#b29VXIifAD" opacity="1" fill="#ffffff" fill-opacity="1"></use><g><use xlink:href="#b29VXIifAD" opacity="1" fill-opacity="0" stroke="#000000" stroke-width="1" stroke-opacity="0"></use></g></g><g><use xlink:href="#a3y13C7B7O" opacity="1" fill="#ffffff" fill-opacity="1"></use><g><use xlink:href="#a3y13C7B7O" opacity="1" fill-opacity="0" stroke="#000000" stroke-width="1" stroke-opacity="0"></use></g></g><g><use xlink:href="#f1PuW2Auo8" opacity="1" fill="#ffffff" fill-opacity="1"></use><g><use xlink:href="#f1PuW2Auo8" opacity="1" fill-opacity="0" stroke="#000000" stroke-width="1" stroke-opacity="0"></use></g></g><g><use xlink:href="#bFEgGxKv5" opacity="1" fill="#ffffff" fill-opacity="1"></use><g><use xlink:href="#bFEgGxKv5" opacity="1" fill-opacity="0" stroke="#000000" stroke-width="1" stroke-opacity="0"></use></g></g><g><use xlink:href="#dmMywG03S" opacity="1" fill="#ffffff" fill-opacity="1"></use><g><use xlink:href="#dmMywG03S" opacity="1" fill-opacity="0" stroke="#000000" stroke-width="1" stroke-opacity="0"></use></g></g><g><use xlink:href="#cVoY3PXkw" opacity="1" fill="#ffffff" fill-opacity="1"></use><g><use xlink:href="#cVoY3PXkw" opacity="1" fill-opacity="0" stroke="#000000" stroke-width="1" stroke-opacity="0"></use></g></g><g><use xlink:href="#av1EwT8XV" opacity="1" fill="#ffffff" fill-opacity="1"></use><g><use xlink:href="#av1EwT8XV" opacity="1" fill-opacity="0" stroke="#000000" stroke-width="1" stroke-opacity="0"></use></g></g><g><use xlink:href="#bopQhijR" opacity="1" fill="#ffffff" fill-opacity="1"></use><g><use xlink:href="#bopQhijR" opacity="1" fill-opacity="0" stroke="#000000" stroke-width="1" stroke-opacity="0"></use></g></g><g><use xlink:href="#f5ClyI2ci" opacity="1" fill="#ffffff" fill-opacity="1"></use><g><use xlink:href="#f5ClyI2ci" opacity="1" fill-opacity="0" stroke="#000000" stroke-width="1" stroke-opacity="0"></use></g></g><g><use xlink:href="#bsKUt3QLx" opacity="1" fill="#ffffff" fill-opacity="1"></use><g><use xlink:href="#bsKUt3QLx" opacity="1" fill-opacity="0" stroke="#000000" stroke-width="1" stroke-opacity="0"></use></g></g><g><use xlink:href="#a6lMNNVs4R" opacity="1" fill="#ffffff" fill-opacity="1"></use><g><use xlink:href="#a6lMNNVs4R" opacity="1" fill-opacity="0" stroke="#000000" stroke-width="1" stroke-opacity="0"></use></g></g><g><use xlink:href="#d12rBsXNfk" opacity="1" fill="#ffffff" fill-opacity="1"></use><g><use xlink:href="#d12rBsXNfk" opacity="1" fill-opacity="0" stroke="#000000" stroke-width="1" stroke-opacity="0"></use></g></g><g><use xlink:href="#b2keuD6Jso" opacity="1" fill="#ffffff" fill-opacity="1"></use><g><use xlink:href="#b2keuD6Jso" opacity="1" fill-opacity="0" stroke="#000000" stroke-width="1" stroke-opacity="0"></use></g></g><g><use xlink:href="#a8zeacV8G" opacity="1" fill="#ffffff" fill-opacity="1"></use><g><use xlink:href="#a8zeacV8G" opacity="1" fill-opacity="0" stroke="#000000" stroke-width="1" stroke-opacity="0"></use></g></g><g><use xlink:href="#a4x0XRzEmf" opacity="1" fill="#ffffff" fill-opacity="1"></use><g><use xlink:href="#a4x0XRzEmf" opacity="1" fill-opacity="0" stroke="#000000" stroke-width="1" stroke-opacity="0"></use></g></g><g><use xlink:href="#b6hJD88q9" opacity="1" fill="#ffffff" fill-opacity="1"></use><g><use xlink:href="#b6hJD88q9" opacity="1" fill-opacity="0" stroke="#000000" stroke-width="1" stroke-opacity="0"></use></g></g><g><use xlink:href="#a3lD3v1ZY" opacity="1" fill="#ffffff" fill-opacity="1"></use><g><use xlink:href="#a3lD3v1ZY" opacity="1" fill-opacity="0" stroke="#000000" stroke-width="1" stroke-opacity="0"></use></g></g><g><use xlink:href="#i3VHYYG5M9" opacity="1" fill="#ffffff" fill-opacity="1"></use><g><use xlink:href="#i3VHYYG5M9" opacity="1" fill-opacity="0" stroke="#000000" stroke-width="1" stroke-opacity="0"></use></g></g><g><use xlink:href="#dPm43I3we" opacity="1" fill="#ffffff" fill-opacity="1"></use><g><use xlink:href="#dPm43I3we" opacity="1" fill-opacity="0" stroke="#000000" stroke-width="1" stroke-opacity="0"></use></g></g><g><use xlink:href="#b6meN98LT" opacity="1" fill="#ffffff" fill-opacity="1"></use><g><use xlink:href="#b6meN98LT" opacity="1" fill-opacity="0" stroke="#000000" stroke-width="1" stroke-opacity="0"></use></g></g><g><use xlink:href="#c3VpEf9st" opacity="1" fill="#ffffff" fill-opacity="1"></use><g><use xlink:href="#c3VpEf9st" opacity="1" fill-opacity="0" stroke="#000000" stroke-width="1" stroke-opacity="0"></use></g></g><g><use xlink:href="#c4cwfNPl6" opacity="1" fill="#ffffff" fill-opacity="1"></use><g><use xlink:href="#c4cwfNPl6" opacity="1" fill-opacity="0" stroke="#000000" stroke-width="1" stroke-opacity="0"></use></g></g><g><use xlink:href="#d79MX5AzQ" opacity="1" fill="#ffffff" fill-opacity="1"></use><g><use xlink:href="#d79MX5AzQ" opacity="1" fill-opacity="0" stroke="#000000" stroke-width="1" stroke-opacity="0"></use></g></g><g><use xlink:href="#d6lkz5NSu" opacity="1" fill="#ffffff" fill-opacity="1"></use><g><use xlink:href="#d6lkz5NSu" opacity="1" fill-opacity="0" stroke="#000000" stroke-width="1" stroke-opacity="0"></use></g></g><g><use xlink:href="#icG5cI1eO" opacity="1" fill="#ffffff" fill-opacity="1"></use><g><use xlink:href="#icG5cI1eO" opacity="1" fill-opacity="0" stroke="#000000" stroke-width="1" stroke-opacity="0"></use></g></g><g><use xlink:href="#a2eavXCleJ" opacity="1" fill="#ffffff" fill-opacity="1"></use><g><use xlink:href="#a2eavXCleJ" opacity="1" fill-opacity="0" stroke="#000000" stroke-width="1" stroke-opacity="0"></use></g></g><g><use xlink:href="#coD5YohH7" opacity="1" fill="#ffffff" fill-opacity="1"></use><g><use xlink:href="#coD5YohH7" opacity="1" fill-opacity="0" stroke="#000000" stroke-width="1" stroke-opacity="0"></use></g></g><g><use xlink:href="#a1tSuAFjIN" opacity="1" fill="#ffffff" fill-opacity="1"></use><g><use xlink:href="#a1tSuAFjIN" opacity="1" fill-opacity="0" stroke="#000000" stroke-width="1" stroke-opacity="0"></use></g></g><g><use xlink:href="#bMr7G1xZI" opacity="1" fill="#ffffff" fill-opacity="1"></use><g><use xlink:href="#bMr7G1xZI" opacity="1" fill-opacity="0" stroke="#000000" stroke-width="1" stroke-opacity="0"></use></g></g><g><use xlink:href="#a5CANbB8XA" opacity="1" fill="#ffffff" fill-opacity="1"></use><g><use xlink:href="#a5CANbB8XA" opacity="1" fill-opacity="0" stroke="#000000" stroke-width="1" stroke-opacity="0"></use></g></g><g><use xlink:href="#azRVt5Jkx" opacity="1" fill="#ffffff" fill-opacity="1"></use><g><use xlink:href="#azRVt5Jkx" opacity="1" fill-opacity="0" stroke="#000000" stroke-width="1" stroke-opacity="0"></use></g></g><g><use xlink:href="#bGGvp4hbb" opacity="1" fill="#ffffff" fill-opacity="1"></use><g><use xlink:href="#bGGvp4hbb" opacity="1" fill-opacity="0" stroke="#000000" stroke-width="1" stroke-opacity="0"></use></g></g><g><use xlink:href="#ew1svwt3O" opacity="1" fill="#ffffff" fill-opacity="1"></use><g><use xlink:href="#ew1svwt3O" opacity="1" fill-opacity="0" stroke="#000000" stroke-width="1" stroke-opacity="0"></use></g></g><g><use xlink:href="#chtYpzZQM" opacity="1" fill="#ffffff" fill-opacity="1"></use><g><use xlink:href="#chtYpzZQM" opacity="1" fill-opacity="0" stroke="#000000" stroke-width="1" stroke-opacity="0"></use></g></g><g><use xlink:href="#lOxMwkpWo" opacity="1" fill="#ffffff" fill-opacity="1"></use><g><use xlink:href="#lOxMwkpWo" opacity="1" fill-opacity="0" stroke="#000000" stroke-width="1" stroke-opacity="0"></use></g></g><g><use xlink:href="#b1fSRloTq5" opacity="1" fill="#ffffff" fill-opacity="1"></use><g><use xlink:href="#b1fSRloTq5" opacity="1" fill-opacity="0" stroke="#000000" stroke-width="1" stroke-opacity="0"></use></g></g><g><use xlink:href="#dp4ZS32S" opacity="1" fill="#ffffff" fill-opacity="1"></use><g><use xlink:href="#dp4ZS32S" opacity="1" fill-opacity="0" stroke="#000000" stroke-width="1" stroke-opacity="0"></use></g></g><g><use xlink:href="#apCC2nwmF" opacity="1" fill="#ffffff" fill-opacity="1"></use><g><use xlink:href="#apCC2nwmF" opacity="1" fill-opacity="0" stroke="#000000" stroke-width="1" stroke-opacity="0"></use></g></g><g><use xlink:href="#c1K1qiXwxS" opacity="1" fill="#ffffff" fill-opacity="1"></use><g><use xlink:href="#c1K1qiXwxS" opacity="1" fill-opacity="0" stroke="#000000" stroke-width="1" stroke-opacity="0"></use></g></g><g><use xlink:href="#a1WbALodsA" opacity="1" fill="#ffffff" fill-opacity="1"></use><g><use xlink:href="#a1WbALodsA" opacity="1" fill-opacity="0" stroke="#000000" stroke-width="1" stroke-opacity="0"></use></g></g><g><use xlink:href="#c6LsmdRPS" opacity="1" fill="#ffffff" fill-opacity="1"></use><g><use xlink:href="#c6LsmdRPS" opacity="1" fill-opacity="0" stroke="#000000" stroke-width="1" stroke-opacity="0"></use></g></g><g><use xlink:href="#b1ct0LfYNS" opacity="1" fill="#ffffff" fill-opacity="1"></use><g><use xlink:href="#b1ct0LfYNS" opacity="1" fill-opacity="0" stroke="#000000" stroke-width="1" stroke-opacity="0"></use></g></g><g><use xlink:href="#bcs0UCWza" opacity="1" fill="#ffffff" fill-opacity="1"></use><g><use xlink:href="#bcs0UCWza" opacity="1" fill-opacity="0" stroke="#000000" stroke-width="1" stroke-opacity="0"></use></g></g><g><use xlink:href="#e2bJV3LWgB" opacity="1" fill="#ffffff" fill-opacity="1"></use><g><use xlink:href="#e2bJV3LWgB" opacity="1" fill-opacity="0" stroke="#000000" stroke-width="1" stroke-opacity="0"></use></g></g><g><use xlink:href="#b6o1wkEq1A" opacity="1" fill="#ffffff" fill-opacity="1"></use><g><use xlink:href="#b6o1wkEq1A" opacity="1" fill-opacity="0" stroke="#000000" stroke-width="1" stroke-opacity="0"></use></g></g><g><use xlink:href="#oc5aDzpCt" opacity="1" fill="#ffffff" fill-opacity="1"></use><g><use xlink:href="#oc5aDzpCt" opacity="1" fill-opacity="0" stroke="#000000" stroke-width="1" stroke-opacity="0"></use></g></g><g><use xlink:href="#b63tMNG94" opacity="1" fill="#ffffff" fill-opacity="1"></use><g><use xlink:href="#b63tMNG94" opacity="1" fill-opacity="0" stroke="#000000" stroke-width="1" stroke-opacity="0"></use></g></g><g><use xlink:href="#i1fTqAOCGe" opacity="1" fill="#ffffff" fill-opacity="1"></use><g><use xlink:href="#i1fTqAOCGe" opacity="1" fill-opacity="0" stroke="#000000" stroke-width="1" stroke-opacity="0"></use></g></g><g><use xlink:href="#bOIkXob6i" opacity="1" fill="#ffffff" fill-opacity="1"></use><g><use xlink:href="#bOIkXob6i" opacity="1" fill-opacity="0" stroke="#000000" stroke-width="1" stroke-opacity="0"></use></g></g><g><use xlink:href="#p8fPpjmcx" opacity="1" fill="#ffffff" fill-opacity="1"></use><g><use xlink:href="#p8fPpjmcx" opacity="1" fill-opacity="0" stroke="#000000" stroke-width="1" stroke-opacity="0"></use></g></g><g><use xlink:href="#dfnsDQUcX" opacity="1" fill="#ffffff" fill-opacity="1"></use><g><use xlink:href="#dfnsDQUcX" opacity="1" fill-opacity="0" stroke="#000000" stroke-width="1" stroke-opacity="0"></use></g></g><g><use xlink:href="#d33tbzg4pt" opacity="1" fill="#ffffff" fill-opacity="1"></use><g><use xlink:href="#d33tbzg4pt" opacity="1" fill-opacity="0" stroke="#000000" stroke-width="1" stroke-opacity="0"></use></g></g><g><use xlink:href="#j1DESToYcU" opacity="1" fill="#ffffff" fill-opacity="1"></use><g><use xlink:href="#j1DESToYcU" opacity="1" fill-opacity="0" stroke="#000000" stroke-width="1" stroke-opacity="0"></use></g></g><g><use xlink:href="#jcFEAGsWY" opacity="1" fill="#ffffff" fill-opacity="1"></use><g><use xlink:href="#jcFEAGsWY" opacity="1" fill-opacity="0" stroke="#000000" stroke-width="1" stroke-opacity="0"></use></g></g><g><use xlink:href="#a24iGk8NIw" opacity="1" fill="#ffffff" fill-opacity="1"></use><g><use xlink:href="#a24iGk8NIw" opacity="1" fill-opacity="0" stroke="#000000" stroke-width="1" stroke-opacity="0"></use></g></g><g><use xlink:href="#e1ZnlYhVlN" opacity="1" fill="#ffffff" fill-opacity="1"></use><g><use xlink:href="#e1ZnlYhVlN" opacity="1" fill-opacity="0" stroke="#000000" stroke-width="1" stroke-opacity="0"></use></g></g><g><use xlink:href="#a27H2VgCmg" opacity="1" fill="#ffffff" fill-opacity="1"></use><g><use xlink:href="#a27H2VgCmg" opacity="1" fill-opacity="0" stroke="#000000" stroke-width="1" stroke-opacity="0"></use></g></g><g><use xlink:href="#a3SFEAFz2z" opacity="1" fill="#ffffff" fill-opacity="1"></use><g><use xlink:href="#a3SFEAFz2z" opacity="1" fill-opacity="0" stroke="#000000" stroke-width="1" stroke-opacity="0"></use></g></g><g><use xlink:href="#a43IuCtAWa" opacity="1" fill="#ffffff" fill-opacity="1"></use><g><use xlink:href="#a43IuCtAWa" opacity="1" fill-opacity="0" stroke="#000000" stroke-width="1" stroke-opacity="0"></use></g></g><g><use xlink:href="#f42Bc6F10S" opacity="1" fill="#ffffff" fill-opacity="1"></use><g><use xlink:href="#f42Bc6F10S" opacity="1" fill-opacity="0" stroke="#000000" stroke-width="1" stroke-opacity="0"></use></g></g><g><use xlink:href="#a16Smz8nD3" opacity="1" fill="#ffffff" fill-opacity="1"></use><g><use xlink:href="#a16Smz8nD3" opacity="1" fill-opacity="0" stroke="#000000" stroke-width="1" stroke-opacity="0"></use></g></g><g><use xlink:href="#afZPV8vR1" opacity="1" fill="#ffffff" fill-opacity="1"></use><g><use xlink:href="#afZPV8vR1" opacity="1" fill-opacity="0" stroke="#000000" stroke-width="1" stroke-opacity="0"></use></g></g><g><use xlink:href="#b3jGvst4l1" opacity="1" fill="#ffffff" fill-opacity="1"></use><g><use xlink:href="#b3jGvst4l1" opacity="1" fill-opacity="0" stroke="#000000" stroke-width="1" stroke-opacity="0"></use></g></g><g><use xlink:href="#c5IRBDZWaU" opacity="1" fill="#ffffff" fill-opacity="1"></use><g><use xlink:href="#c5IRBDZWaU" opacity="1" fill-opacity="0" stroke="#000000" stroke-width="1" stroke-opacity="0"></use></g></g><g><use xlink:href="#a1Yjx9WNy4" opacity="1" fill="#ffffff" fill-opacity="1"></use><g><use xlink:href="#a1Yjx9WNy4" opacity="1" fill-opacity="0" stroke="#000000" stroke-width="1" stroke-opacity="0"></use></g></g><g><use xlink:href="#a1HF4eKk85" opacity="1" fill="#ffffff" fill-opacity="1"></use><g><use xlink:href="#a1HF4eKk85" opacity="1" fill-opacity="0" stroke="#000000" stroke-width="1" stroke-opacity="0"></use></g></g><g><use xlink:href="#ehjQoj7jS" opacity="1" fill="#ffffff" fill-opacity="1"></use><g><use xlink:href="#ehjQoj7jS" opacity="1" fill-opacity="0" stroke="#000000" stroke-width="1" stroke-opacity="0"></use></g></g><g><use xlink:href="#aJeIwxfpE" opacity="1" fill="#ffffff" fill-opacity="1"></use><g><use xlink:href="#aJeIwxfpE" opacity="1" fill-opacity="0" stroke="#000000" stroke-width="1" stroke-opacity="0"></use></g></g><g><use xlink:href="#cVQB6INyw" opacity="1" fill="#ffffff" fill-opacity="1"></use><g><use xlink:href="#cVQB6INyw" opacity="1" fill-opacity="0" stroke="#000000" stroke-width="1" stroke-opacity="0"></use></g></g><g><use xlink:href="#a3qVmjEhex" opacity="1" fill="#ffffff" fill-opacity="1"></use><g><use xlink:href="#a3qVmjEhex" opacity="1" fill-opacity="0" stroke="#000000" stroke-width="1" stroke-opacity="0"></use></g></g><g><use xlink:href="#a5YyjhctQM" opacity="1" fill="#ffffff" fill-opacity="1"></use><g><use xlink:href="#a5YyjhctQM" opacity="1" fill-opacity="0" stroke="#000000" stroke-width="1" stroke-opacity="0"></use></g></g><g><use xlink:href="#bZsq2E2V9" opacity="1" fill="#ffffff" fill-opacity="1"></use><g><use xlink:href="#bZsq2E2V9" opacity="1" fill-opacity="0" stroke="#000000" stroke-width="1" stroke-opacity="0"></use></g></g><g><use xlink:href="#aGIQ6P1wT" opacity="1" fill="#ffffff" fill-opacity="1"></use><g><use xlink:href="#aGIQ6P1wT" opacity="1" fill-opacity="0" stroke="#000000" stroke-width="1" stroke-opacity="0"></use></g></g><g><use xlink:href="#m7mS6WS48" opacity="1" fill="#ffffff" fill-opacity="1"></use><g><use xlink:href="#m7mS6WS48" opacity="1" fill-opacity="0" stroke="#000000" stroke-width="1" stroke-opacity="0"></use></g></g><g><use xlink:href="#j1k9onMHCw" opacity="1" fill="#ffffff" fill-opacity="1"></use><g><use xlink:href="#j1k9onMHCw" opacity="1" fill-opacity="0" stroke="#000000" stroke-width="1" stroke-opacity="0"></use></g></g><g><use xlink:href="#d9Rie0vDh" opacity="1" fill="#ffffff" fill-opacity="1"></use><g><use xlink:href="#d9Rie0vDh" opacity="1" fill-opacity="0" stroke="#000000" stroke-width="1" stroke-opacity="0"></use></g></g><g><use xlink:href="#g35WBifH06" opacity="1" fill="#ffffff" fill-opacity="1"></use><g><use xlink:href="#g35WBifH06" opacity="1" fill-opacity="0" stroke="#000000" stroke-width="1" stroke-opacity="0"></use></g></g><g><use xlink:href="#aGXULCpKK" opacity="1" fill="#ffffff" fill-opacity="1"></use><g><use xlink:href="#aGXULCpKK" opacity="1" fill-opacity="0" stroke="#000000" stroke-width="1" stroke-opacity="0"></use></g></g></g></g></svg>