<svg width="80" height="52" viewBox="0 0 80 52" fill="none" xmlns="http://www.w3.org/2000/svg">
<path d="M69.606 31.6666C70.7701 31.6666 71.7138 30.7215 71.7138 29.5555C71.7138 28.3896 70.7701 27.4444 69.606 27.4444C68.4418 27.4444 67.4981 28.3896 67.4981 29.5555C67.4981 30.7215 68.4418 31.6666 69.606 31.6666Z" fill="#fffffff"/>
<path d="M24.9646 28.1111C26.6189 28.1111 27.96 26.768 27.96 25.1111C27.96 23.4543 26.6189 22.1111 24.9646 22.1111C23.3103 22.1111 21.9692 23.4543 21.9692 25.1111C21.9692 26.768 23.3103 28.1111 24.9646 28.1111Z" fill="#ffffff"/>
<path d="M55.7384 28.4445C57.9441 28.4445 59.7322 26.6536 59.7322 24.4445C59.7322 22.2353 57.9441 20.4445 55.7384 20.4445C53.5326 20.4445 51.7445 22.2353 51.7445 24.4445C51.7445 26.6536 53.5326 28.4445 55.7384 28.4445Z" fill="#ffffff"/>
<path d="M38.9865 26.5556C40.1507 26.5556 41.0944 25.6104 41.0944 24.4445C41.0944 23.2785 40.1507 22.3333 38.9865 22.3333C37.8224 22.3333 36.8787 23.2785 36.8787 24.4445C36.8787 25.6104 37.8224 26.5556 38.9865 26.5556Z" fill="#ffffff"/>
<path d="M47.7508 23.1111C48.7924 23.1111 49.6368 22.2654 49.6368 21.2222C49.6368 20.179 48.7924 19.3333 47.7508 19.3333C46.7092 19.3333 45.8648 20.179 45.8648 21.2222C45.8648 22.2654 46.7092 23.1111 47.7508 23.1111Z" fill="#ffffff"/>
<path d="M13.4704 23.3333C14.512 23.3333 15.3564 22.4877 15.3564 21.4445C15.3564 20.4013 14.512 19.5556 13.4704 19.5556C12.4288 19.5556 11.5844 20.4013 11.5844 21.4445C11.5844 22.4877 12.4288 23.3333 13.4704 23.3333Z" fill="#ffffff"/>
<path d="M27.3378 16.2222C28.3794 16.2222 29.2238 15.3765 29.2238 14.3333C29.2238 13.2901 28.3794 12.4444 27.3378 12.4444C26.2962 12.4444 25.4518 13.2901 25.4518 14.3333C25.4518 15.3765 26.2962 16.2222 27.3378 16.2222Z" fill="#ffffff"/>
<path d="M30.5115 30.3334C31.5531 30.3334 32.3975 29.4877 32.3975 28.4445C32.3975 27.4013 31.5531 26.5556 30.5115 26.5556C29.4699 26.5556 28.6255 27.4013 28.6255 28.4445C28.6255 29.4877 29.4699 30.3334 30.5115 30.3334Z" fill="#ffffff"/>
<path d="M29.5566 40.5556C30.5982 40.5556 31.4426 39.7099 31.4426 38.6667C31.4426 37.6235 30.5982 36.7778 29.5566 36.7778C28.515 36.7778 27.6707 37.6235 27.6707 38.6667C27.6707 39.7099 28.515 40.5556 29.5566 40.5556Z" fill="#ffffff"/>
<path d="M17.6861 11.1111C18.7277 11.1111 19.5721 10.2654 19.5721 9.22223C19.5721 8.17903 18.7277 7.33334 17.6861 7.33334C16.6445 7.33334 15.8001 8.17903 15.8001 9.22223C15.8001 10.2654 16.6445 11.1111 17.6861 11.1111Z" fill="#ffffff"/>
<path d="M34.3271 45.3333C35.0624 45.3333 35.6584 44.7364 35.6584 44C35.6584 43.2636 35.0624 42.6667 34.3271 42.6667C33.5919 42.6667 32.9958 43.2636 32.9958 44C32.9958 44.7364 33.5919 45.3333 34.3271 45.3333Z" fill="#ffffff"/>
<path d="M37.1005 9.22223C38.2034 9.22223 39.0974 8.3268 39.0974 7.22223C39.0974 6.11766 38.2034 5.22223 37.1005 5.22223C35.9976 5.22223 35.1036 6.11766 35.1036 7.22223C35.1036 8.3268 35.9976 9.22223 37.1005 9.22223Z" fill="#ffffff"/>
<path d="M11.1406 13.2223C11.7533 13.2223 12.25 12.7248 12.25 12.1111C12.25 11.4975 11.7533 11 11.1406 11C10.5279 11 10.0312 11.4975 10.0312 12.1111C10.0312 12.7248 10.5279 13.2223 11.1406 13.2223Z" fill="#ffffff"/>
<path d="M34.9928 16C35.6055 16 36.1022 15.5025 36.1022 14.8889C36.1022 14.2752 35.6055 13.7778 34.9928 13.7778C34.3801 13.7778 33.8834 14.2752 33.8834 14.8889C33.8834 15.5025 34.3801 16 34.9928 16Z" fill="#ffffff"/>
<path d="M60.5089 14C61.1216 14 61.6183 13.5026 61.6183 12.8889C61.6183 12.2753 61.1216 11.7778 60.5089 11.7778C59.8962 11.7778 59.3995 12.2753 59.3995 12.8889C59.3995 13.5026 59.8962 14 60.5089 14Z" fill="#ffffff"/>
<path d="M56.3605 43.2222C56.9732 43.2222 57.4699 42.7247 57.4699 42.1111C57.4699 41.4974 56.9732 41 56.3605 41C55.7478 41 55.2511 41.4974 55.2511 42.1111C55.2511 42.7247 55.7478 43.2222 56.3605 43.2222Z" fill="#ffffff"/>
<path d="M35.1037 36.3333C35.7164 36.3333 36.2131 35.8359 36.2131 35.2222C36.2131 34.6086 35.7164 34.1111 35.1037 34.1111C34.491 34.1111 33.9943 34.6086 33.9943 35.2222C33.9943 35.8359 34.491 36.3333 35.1037 36.3333Z" fill="#ffffff"/>
<path d="M54.6291 39.8889C55.2418 39.8889 55.7385 39.3914 55.7385 38.7778C55.7385 38.1641 55.2418 37.6667 54.6291 37.6667C54.0164 37.6667 53.5197 38.1641 53.5197 38.7778C53.5197 39.3914 54.0164 39.8889 54.6291 39.8889Z" fill="#ffffff"/>
<path d="M62.8386 19C63.4514 19 63.948 18.5025 63.948 17.8889C63.948 17.2752 63.4514 16.7778 62.8386 16.7778C62.2259 16.7778 61.7292 17.2752 61.7292 17.8889C61.7292 18.5025 62.2259 19 62.8386 19Z" fill="#ffffff"/>
<path d="M59.8432 32.6667C60.4559 32.6667 60.9526 32.1692 60.9526 31.5556C60.9526 30.9419 60.4559 30.4445 59.8432 30.4445C59.2305 30.4445 58.7338 30.9419 58.7338 31.5556C58.7338 32.1692 59.2305 32.6667 59.8432 32.6667Z" fill="#ffffff"/>
<path d="M44.1572 46.5555C44.7699 46.5555 45.2666 46.0581 45.2666 45.4444C45.2666 44.8308 44.7699 44.3333 44.1572 44.3333C43.5445 44.3333 43.0478 44.8308 43.0478 45.4444C43.0478 46.0581 43.5445 46.5555 44.1572 46.5555Z" fill="#ffffff"/>
<path d="M23.7877 9.44445C24.4004 9.44445 24.8971 8.94699 24.8971 8.33334C24.8971 7.71969 24.4004 7.22223 23.7877 7.22223C23.175 7.22223 22.6783 7.71969 22.6783 8.33334C22.6783 8.94699 23.175 9.44445 23.7877 9.44445Z" fill="#ffffff"/>
<path d="M19.572 17.1111C20.1847 17.1111 20.6814 16.6136 20.6814 16C20.6814 15.3863 20.1847 14.8889 19.572 14.8889C18.9593 14.8889 18.4626 15.3863 18.4626 16C18.4626 16.6136 18.9593 17.1111 19.572 17.1111Z" fill="#ffffff"/>
<path d="M43.646 36.7778C44.2587 36.7778 44.7554 36.2803 44.7554 35.6667C44.7554 35.053 44.2587 34.5556 43.646 34.5556C43.0333 34.5556 42.5366 35.053 42.5366 35.6667C42.5366 36.2803 43.0333 36.7778 43.646 36.7778Z" fill="#ffffff"/>
<path d="M38.9865 36.6667C39.5992 36.6667 40.0959 36.1692 40.0959 35.5556C40.0959 34.9419 39.5992 34.4445 38.9865 34.4445C38.3738 34.4445 37.8771 34.9419 37.8771 35.5556C37.8771 36.1692 38.3738 36.6667 38.9865 36.6667Z" fill="#ffffff"/>
<path d="M45.3101 40.1111C45.9228 40.1111 46.4195 39.6137 46.4195 39C46.4195 38.3864 45.9228 37.8889 45.3101 37.8889C44.6974 37.8889 44.2007 38.3864 44.2007 39C44.2007 39.6137 44.6974 40.1111 45.3101 40.1111Z" fill="#ffffff"/>
<path d="M49.7042 39.8889C50.3169 39.8889 50.8136 39.3914 50.8136 38.7778C50.8136 38.1641 50.3169 37.6667 49.7042 37.6667C49.0915 37.6667 48.5948 38.1641 48.5948 38.7778C48.5948 39.3914 49.0915 39.8889 49.7042 39.8889Z" fill="#ffffff"/>
<path d="M70.7154 23.4445C71.3281 23.4445 71.8248 22.947 71.8248 22.3333C71.8248 21.7197 71.3281 21.2222 70.7154 21.2222C70.1027 21.2222 69.606 21.7197 69.606 22.3333C69.606 22.947 70.1027 23.4445 70.7154 23.4445Z" fill="#ffffff"/>
<path d="M31.8864 21.5555C32.4991 21.5555 32.9958 21.0581 32.9958 20.4444C32.9958 19.8308 32.4991 19.3333 31.8864 19.3333C31.2737 19.3333 30.777 19.8308 30.777 20.4444C30.777 21.0581 31.2737 21.5555 31.8864 21.5555Z" fill="#ffffff"/>
<path d="M46.5305 32.6667C47.1432 32.6667 47.6398 32.1692 47.6398 31.5556C47.6398 30.9419 47.1432 30.4445 46.5305 30.4445C45.9177 30.4445 45.4211 30.9419 45.4211 31.5556C45.4211 32.1692 45.9177 32.6667 46.5305 32.6667Z" fill="#ffffff"/>
<path d="M54.4072 14.3333C55.0199 14.3333 55.5166 13.8359 55.5166 13.2222C55.5166 12.6086 55.0199 12.1111 54.4072 12.1111C53.7945 12.1111 53.2978 12.6086 53.2978 13.2222C53.2978 13.8359 53.7945 14.3333 54.4072 14.3333Z" fill="#ffffff"/>
<path d="M44.4226 16.6667C46.9346 16.6667 48.9711 14.6271 48.9711 12.1111C48.9711 9.59513 46.9346 7.55554 44.4226 7.55554C41.9105 7.55554 39.874 9.59513 39.874 12.1111C39.874 14.6271 41.9105 16.6667 44.4226 16.6667Z" fill="#ffffff"/>
<path d="M8.60022 6.74126L17.4005 10.5327C17.5105 10.5327 17.5105 10.5327 17.6205 10.5327L23.5607 9.66606L36.1012 8.5828L34.2311 15.4073L31.151 20.607L24.8808 24.29L19.7106 16.7072L17.8405 9.99103L17.5105 4.57475L23.0107 9.44941L26.5308 15.299L30.931 21.1486L31.041 21.2569L38.0812 25.1566C38.1912 25.265 38.3012 25.265 38.4112 25.1566L47.1015 22.0152L47.3215 21.9069L54.0318 14.1074C54.1418 13.9991 54.1418 13.8908 54.1418 13.6741L50.0716 1.32498C50.0716 1.10833 49.8516 1 49.7416 1C49.5216 1 49.4116 1.10833 49.3016 1.21665L43.6914 12.0492L36.8712 7.60787C36.7612 7.49954 36.5412 7.49954 36.4312 7.60787L26.8608 14.5407L19.2706 16.1656L19.0506 16.2739L13.1104 21.5819L2.33001 24.5067C2.11 24.615 2 24.8317 2 25.0483C2.11 25.265 2.33001 25.3733 2.55002 25.3733L13.4404 22.4485L13.6604 22.3402L19.6006 17.2489L27.1909 15.624L27.3009 15.5156L36.6512 8.69113L43.6914 13.2408C43.8014 13.3491 43.9114 13.3491 44.0214 13.3491C44.1314 13.3491 44.2414 13.2408 44.2414 13.1325L49.6316 2.73321L53.3717 13.8908L46.8815 21.4736L38.4112 24.5067L31.591 20.7153L27.1909 14.974L23.6707 9.12443L23.5607 9.0161L17.1805 3.49149C17.0705 3.38317 16.8505 3.38317 16.7405 3.38317C16.6305 3.49149 16.5205 3.59982 16.5205 3.81647L16.8505 10.2077V10.316L18.7206 17.1405L18.8306 17.2489L24.3308 25.265C24.4408 25.4816 24.6608 25.4816 24.8808 25.3733L31.591 21.4736L31.701 21.3652L34.8911 16.0573V15.9489L36.8712 8.47447C36.8712 8.36615 36.8712 8.1495 36.7612 8.04117C36.6512 7.93285 36.5412 7.93285 36.4312 7.93285L23.2307 9.0161L17.6205 9.66606L8.93023 5.87466C8.71023 5.76633 8.49022 5.87466 8.38022 6.09131C8.27021 6.30796 8.38022 6.63294 8.60022 6.74126Z" fill="#ffffff"/>
<path d="M66.8324 34.4445L60.176 31.2222L56.1822 24.2222C56.1822 24.1111 56.0712 24.1111 55.9603 24L48.0835 20.8889L45.0882 12.5556L54.4071 13.6667H54.5181L60.2869 13.4445L62.6167 18.2222C62.6167 18.3334 62.7276 18.3334 62.8386 18.4445L70.7153 22.8889C70.8262 23 71.0481 23 71.159 22.8889L77.3717 18.1111C77.5936 18 77.5936 17.6667 77.4826 17.5556C77.3717 17.3334 77.0389 17.3334 76.9279 17.4445L70.9372 22L63.1714 17.6667L60.8416 12.7778C60.7307 12.6667 60.6198 12.5556 60.3979 12.5556L54.4071 12.8889L44.4225 11.7778C44.3116 11.7778 44.0897 11.7778 43.9788 11.8889C43.8678 12 43.8678 12.1111 43.8678 12.3334L47.196 21.4445C47.196 21.5556 47.307 21.6667 47.4179 21.6667L55.2946 24.7778L59.2885 31.7778C59.2885 31.8889 59.3994 31.8889 59.5104 32L66.2777 35.3334C66.4996 35.4445 66.7215 35.3334 66.8324 35.1111C67.0543 34.8889 67.0543 34.5556 66.8324 34.4445Z" fill="#ffffff"/>
<path d="M66.0558 13.3333L62.6167 17.6667L55.5165 24.1111L46.3085 31.2222L46.1976 31.3333L43.646 34.7778L39.3193 24.2222C39.3193 24.1111 39.2084 24 39.0974 24C38.9865 24 38.8755 24 38.7646 24L31.9973 27.2222C31.7754 27.3333 31.6645 27.5556 31.7754 27.7778C31.8863 28 32.1082 28.1111 32.3301 28L38.7646 25L43.2022 35.8889C43.3131 36 43.4241 36.1111 43.535 36.1111C43.646 36.1111 43.8678 36.1111 43.9788 35.8889L46.9742 31.7778L56.1822 24.6667L63.2823 18.1111L66.7215 13.8889C66.8324 13.6667 66.8324 13.4444 66.6105 13.3333C66.4996 13.2222 66.1668 13.2222 66.0558 13.3333Z" fill="#ffffff"/>
<path d="M14.5798 28.6666L13.9141 21.4444V21.3333L11.6953 12.3333L17.908 9.66664C18.1298 9.55553 18.2408 9.33331 18.1298 9.11109C18.0189 8.88886 17.797 8.77775 17.5751 8.88887L11.0297 11.6666C10.8078 11.7778 10.6969 12 10.8078 12.2222L13.1375 21.5555L13.8032 28.7778C13.8032 29 14.0251 29.2222 14.2469 29.2222C14.4688 29.1111 14.5798 28.8889 14.5798 28.6666Z" fill="#ffffff"/>
<path d="M4.70615 17.5556L13.2485 21.7778H13.3595L25.0082 24.7778C25.23 24.8889 25.4519 24.6667 25.5629 24.4444C25.6738 24.2222 25.4519 24 25.23 23.8889L13.5813 21L5.14991 16.7778C4.92803 16.6667 4.70615 16.7778 4.59521 17C4.48427 17.2222 4.59521 17.4444 4.70615 17.5556Z" fill="#ffffff"/>
<path d="M43.9789 11.8889L38.6537 24.2222L34.6599 35.1111C34.6599 35.2222 34.6599 35.3333 34.6599 35.4444C34.6599 35.5555 34.8818 35.6666 34.9927 35.6666L38.7647 36C38.9866 36 39.2084 35.8889 39.2084 35.5555C39.2084 35.3333 39.0975 35.1111 38.7647 35.1111L35.7693 34.8889L39.5413 24.5555L44.8664 12.2222C44.9773 12 44.8664 11.7777 44.6445 11.6666C44.3117 11.5555 44.0898 11.6666 43.9789 11.8889Z" fill="#ffffff"/>
<path d="M47.307 21.2222L46.1976 31.5556C46.1976 31.6667 46.1976 31.7778 46.1976 31.7778L49.9696 39.1111C50.0805 39.2222 50.1914 39.3333 50.4133 39.3333L54.74 39.1111C54.9619 39.1111 55.1837 38.8889 55.1837 38.6667L56.2931 24.6667L70.1606 22.8889L69.1622 29.1111L59.7323 31.1111C59.6213 31.1111 59.5104 31.2222 59.5104 31.3333L54.1853 38.6667L54.0743 38.7778L50.5243 49.8889C50.4133 50.1111 50.5243 50.3333 50.7461 50.4445C50.968 50.5556 51.1899 50.4445 51.3008 50.3333L56.0713 42.8889C56.1822 42.6667 56.1822 42.4445 55.9603 42.3333C55.7384 42.2222 55.5166 42.2222 55.4056 42.4445L52.5212 47L55.0728 39.2222L60.287 32L69.8278 30C70.0497 30 70.1606 29.7778 70.1606 29.6667L71.27 22.5556C71.27 22.4445 71.27 22.3333 71.1591 22.2222C71.0481 22.1111 70.9372 22.1111 70.8263 22.1111L55.7384 24C55.5166 24 55.4056 24.2222 55.4056 24.4444L54.2962 38.3333L50.6352 38.5556L47.0851 31.5556L48.1945 21.3333C48.1945 21.1111 48.0836 20.8889 47.8617 20.8889C47.5289 20.7778 47.307 20.8889 47.307 21.2222Z" fill="#ffffff"/>
<path d="M38.7646 2.55556L43.646 12L34.8817 14.4445C34.7708 14.4445 34.6598 14.5556 34.6598 14.6667C34.6598 14.7778 34.5489 14.8889 34.6598 15L38.7646 24.5556C38.8756 24.7778 39.0974 24.8889 39.3193 24.7778C39.5412 24.6667 39.6521 24.4445 39.5412 24.2222L35.6583 15.1111L44.4226 12.6667C44.5335 12.6667 44.6444 12.5556 44.7554 12.4445C44.7554 12.3333 44.7554 12.2222 44.7554 12.1111L39.6521 2.11112C39.5412 1.8889 39.3193 1.77778 39.0974 1.8889C38.7646 2.11112 38.6537 2.33334 38.7646 2.55556Z" fill="#ffffff"/>
<path d="M50.7462 39.1111L56.1822 24.5555V24.3333L54.851 13.2222C54.851 13 54.6291 12.7778 54.4072 12.8889C54.1853 12.8889 53.9634 13.1111 54.0744 13.3333L55.4057 24.4444L49.9696 38.8889C49.8587 39.1111 49.9696 39.3333 50.1915 39.4444C50.4134 39.4444 50.6352 39.3333 50.7462 39.1111Z" fill="#ffffff"/>
<path d="M45.6429 45.4444L54.629 39.2222C54.8509 39.1111 54.8509 38.7778 54.7399 38.6667C54.629 38.4444 54.2962 38.4444 54.1852 38.5556L45.1991 44.7778C44.9772 44.8889 44.9772 45.2222 45.0882 45.3333C45.1991 45.5556 45.5319 45.6667 45.6429 45.4444Z" fill="#ffffff"/>
<path d="M33.406 6.02906L33.4918 5.53649L33.4492 5.52906H33.406V6.02906ZM37.1294 6.67797L37.0435 7.17055L37.4488 7.24117L37.5962 6.85713L37.1294 6.67797ZM37.9388 4.56901L37.5098 4.31216L37.4876 4.34937L37.472 4.38985L37.9388 4.56901ZM38.9101 2.94673V2.44673H38.6267L38.4812 2.68988L38.9101 2.94673ZM40.2052 2.94673V3.44673H40.3081L40.4025 3.40616L40.2052 2.94673ZM42.4716 1.97337V1.47337H42.3688L42.2743 1.51394L42.4716 1.97337ZM44.2524 1.97337V2.47337H44.3624L44.4623 2.42718L44.2524 1.97337ZM50.2422 1.97337L50.5647 1.59125L50.5341 1.56546L50.4998 1.54486L50.2422 1.97337ZM53.318 4.56901L53.7343 4.84596L53.9814 4.47457L53.6405 4.18689L53.318 4.56901ZM52.3467 6.02906L51.9304 5.75212L51.8467 5.87794V6.02906H52.3467ZM52.3467 7.32688H51.8467V7.73091L52.2418 7.81574L52.3467 7.32688ZM56.8796 8.30025L57.3488 8.12772L57.2538 7.86922L56.9845 7.81139L56.8796 8.30025ZM58.0128 11.3826H58.5128V11.2936L58.482 11.21L58.0128 11.3826ZM58.0128 12.3559H57.5128V12.7895L57.9419 12.8509L58.0128 12.3559ZM62.5456 13.0049L62.4747 13.4998L62.5683 13.5132L62.6603 13.4915L62.5456 13.0049ZM65.2977 12.3559L65.6392 11.9908L65.4436 11.8078L65.1829 11.8693L65.2977 12.3559ZM67.726 14.6271L67.3844 14.9923L67.5286 15.1271H67.726V14.6271ZM71.4493 14.6271L71.587 14.1464L71.5195 14.1271H71.4493V14.6271ZM75.9822 15.925L76.4451 15.736L76.3533 15.5111L76.1198 15.4443L75.9822 15.925ZM77.4391 19.494H77.9391V19.3958L77.9021 19.305L77.4391 19.494ZM77.4391 25.3342L77.9382 25.3653L77.9391 25.3497V25.3342H77.4391ZM71.4493 29.2276L71.3785 28.7327L71.0805 28.7753L70.9788 29.0586L71.4493 29.2276ZM69.9924 33.2833L70.166 33.7522L70.3842 33.6714L70.4629 33.4524L69.9924 33.2833ZM62.5456 36.0412L62.3719 35.5723L62.3331 35.5867L62.2971 35.6073L62.5456 36.0412ZM54.6965 39.8889L54.4229 39.4703L54.0338 39.7247L54.2591 40.1313L54.6965 39.8889ZM56.8796 43.8281L56.4422 44.0705L56.585 44.3281H56.8796V43.8281ZM62.5456 43.8281L62.9997 43.619C62.9181 43.4417 62.7407 43.3281 62.5456 43.3281V43.8281ZM63.5169 45.9371L63.9977 46.0742L64.0485 45.8961L63.9711 45.7279L63.5169 45.9371ZM59.6888 47.6667V47.1667H59.6001L59.5169 47.1971L59.6888 47.6667ZM56.8796 48.695L56.7077 48.2254L56.6726 48.2383L56.6397 48.2562L56.8796 48.695ZM53.318 50.6417L53.4979 51.1082L53.5288 51.0963L53.5579 51.0804L53.318 50.6417ZM46.9307 47.6667L47.4023 47.8328L47.512 47.5211L47.2684 47.298L46.9307 47.6667ZM44.1572 45.126L43.8023 44.7737L43.4356 45.1431L43.8194 45.4946L44.1572 45.126ZM49.1495 40.0969L49.5043 40.4492L50.3503 39.5969H49.1495V40.0969ZM45.3856 40.0969L45.3032 40.5901L45.3441 40.5969H45.3856V40.0969ZM41.3384 37.5013L41.6924 37.1481L41.6059 37.0615L41.4893 37.0246L41.3384 37.5013ZM38.2626 36.5279L38.4134 36.0512L38.0205 35.9268L37.8234 36.2888L38.2626 36.5279ZM36.32 40.0969L36.7527 40.3477L36.7591 40.3359L36.32 40.0969ZM33.406 45.126L33.6714 45.5497L33.7765 45.4839L33.8386 45.3766L33.406 45.126ZM32.1109 45.9371L31.9449 46.4087L32.1721 46.4887L32.3763 46.3608L32.1109 45.9371ZM26.1211 43.8281H25.6211V44.1822L25.955 44.2998L26.1211 43.8281ZM26.9305 42.2059L26.5063 41.9413L26.9305 42.2059ZM34.7273 34.8889V35.3889H35.9031L35.0874 34.542L34.7273 34.8889ZM26.9305 26.7942L27.2907 26.4474L27.1432 26.2942H26.9305V26.7942ZM21.1026 26.7942V26.2942H21.0213L20.9442 26.32L21.1026 26.7942ZM13.8177 29.2276L13.6683 29.7048L13.8227 29.7531L13.9761 29.7019L13.8177 29.2276ZM6.04716 26.7942L5.73442 27.1843L5.80788 27.2432L5.89774 27.2714L6.04716 26.7942ZM2 23.5497L1.59394 23.2579L1.31719 23.6431L1.68725 23.9398L2 23.5497ZM4.91396 19.494L5.32002 19.7857L5.39055 19.6875L5.40845 19.568L4.91396 19.494ZM11.3894 11.3826L11.649 11.8099L11.9678 11.6163L11.873 11.2556L11.3894 11.3826ZM9.77056 5.21792L9.3634 4.92771L9.22747 5.11841L9.28695 5.34492L9.77056 5.21792ZM11.3894 2.94673L11.5606 2.47695L11.2031 2.34668L10.9823 2.65652L11.3894 2.94673ZM13.1702 3.59564L12.999 4.06543L13.2987 4.17466L13.5241 3.94883L13.1702 3.59564ZM14.789 1.97337L14.8652 1.47921L14.6144 1.44053L14.4351 1.62019L14.789 1.97337ZM21.1026 2.94673L21.3088 2.49121L21.2464 2.463L21.1788 2.45257L21.1026 2.94673ZM26.1211 5.21792L25.9149 5.67345L26.0132 5.71792H26.1211V5.21792ZM28.8732 5.21792L28.9947 4.73291L28.9349 4.71792H28.8732V5.21792ZM32.1109 6.02906L31.9894 6.51407L32.0492 6.52906H32.1109V6.02906ZM33.3202 6.52164L37.0435 7.17055L37.2152 6.1854L33.4918 5.53649L33.3202 6.52164ZM37.5962 6.85713L38.4056 4.74817L37.472 4.38985L36.6626 6.49881L37.5962 6.85713ZM38.3678 4.82586L39.3391 3.20358L38.4812 2.68988L37.5098 4.31216L38.3678 4.82586ZM38.9101 3.44673H40.2052V2.44673H38.9101V3.44673ZM40.4025 3.40616L42.669 2.43279L42.2743 1.51394L40.0079 2.48731L40.4025 3.40616ZM42.4716 2.47337H44.2524V1.47337H42.4716V2.47337ZM44.4623 2.42718C44.7985 2.27166 45.364 2.0355 45.9525 1.83936C46.5569 1.6379 47.1243 1.5 47.4901 1.5V0.5C46.9494 0.5 46.2487 0.686561 45.6363 0.890666C45.0079 1.1001 44.4078 1.35062 44.0425 1.51956L44.4623 2.42718ZM47.4901 1.5C47.8456 1.5 48.3266 1.63276 48.8182 1.82929C49.2982 2.02122 49.7356 2.25219 49.9846 2.40187L50.4998 1.54486C50.2092 1.37008 49.7238 1.11438 49.1894 0.900739C48.6665 0.691696 48.0412 0.5 47.4901 0.5V1.5ZM49.9197 2.35549L52.9956 4.95113L53.6405 4.18689L50.5647 1.59125L49.9197 2.35549ZM52.9018 4.29207L51.9304 5.75212L52.763 6.30601L53.7343 4.84596L52.9018 4.29207ZM51.8467 6.02906V7.32688H52.8467V6.02906H51.8467ZM52.2418 7.81574L56.7746 8.78911L56.9845 7.81139L52.4517 6.83803L52.2418 7.81574ZM56.4103 8.47278L57.5435 11.5551L58.482 11.21L57.3488 8.12772L56.4103 8.47278ZM57.5128 11.3826V12.3559H58.5128V11.3826H57.5128ZM57.9419 12.8509L62.4747 13.4998L62.6164 12.5099L58.0836 11.861L57.9419 12.8509ZM62.6603 13.4915L65.4124 12.8426L65.1829 11.8693L62.4308 12.5182L62.6603 13.4915ZM64.9561 12.7211L67.3844 14.9923L68.0675 14.262L65.6392 11.9908L64.9561 12.7211ZM67.726 15.1271H71.4493V14.1271H67.726V15.1271ZM71.3117 15.1078L75.8445 16.4056L76.1198 15.4443L71.587 14.1464L71.3117 15.1078ZM75.5193 16.1139L76.9762 19.6829L77.9021 19.305L76.4451 15.736L75.5193 16.1139ZM76.9391 19.494V25.3342H77.9391V19.494H76.9391ZM76.9401 25.303C76.9142 25.7183 76.8439 26.3562 76.7203 26.913C76.6582 27.1928 76.5867 27.4331 76.5094 27.609C76.42 27.8124 76.3673 27.8265 76.4057 27.8072L76.8537 28.7013C77.1511 28.5523 77.3224 28.2447 77.4249 28.0113C77.5395 27.7506 77.6278 27.4393 77.6966 27.1297C77.8347 26.5076 77.9101 25.8152 77.9382 25.3653L76.9401 25.303ZM76.4057 27.8072C76.3869 27.8167 76.3208 27.8424 76.1854 27.8803C76.0592 27.9157 75.8976 27.955 75.7064 27.9972C75.3245 28.0815 74.8427 28.1734 74.3249 28.2648C73.2904 28.4474 72.1304 28.625 71.3785 28.7327L71.5202 29.7226C72.2792 29.6139 73.4504 29.4346 74.4988 29.2496C75.0225 29.1571 75.5201 29.0624 75.922 28.9737C76.1227 28.9294 76.3041 28.8855 76.4553 28.8432C76.5973 28.8034 76.743 28.7568 76.8537 28.7013L76.4057 27.8072ZM70.9788 29.0586L69.5218 33.1143L70.4629 33.4524L71.9199 29.3967L70.9788 29.0586ZM69.8187 32.8145L62.3719 35.5723L62.7192 36.5101L70.166 33.7522L69.8187 32.8145ZM62.2971 35.6073C61.9302 35.8174 61.3204 36.1428 60.6939 36.4304C60.0508 36.7255 59.4489 36.9528 59.0751 37.0063L59.2168 37.9962C59.7496 37.9199 60.4698 37.6335 61.111 37.3392C61.7688 37.0373 62.4054 36.6976 62.794 36.4751L62.2971 35.6073ZM59.0751 37.0063C58.7723 37.0497 58.4029 37.1913 58.0341 37.3606C57.6534 37.5355 57.2281 37.7615 56.7997 38.0048C55.9423 38.4917 55.0465 39.0628 54.4229 39.4703L54.97 40.3074C55.5876 39.9038 56.4632 39.346 57.2936 38.8743C57.7091 38.6383 58.1069 38.4276 58.4515 38.2694C58.8081 38.1056 59.0664 38.0177 59.2168 37.9962L59.0751 37.0063ZM54.2591 40.1313L56.4422 44.0705L57.3169 43.5858L55.1338 39.6465L54.2591 40.1313ZM56.8796 44.3281H62.5456V43.3281H56.8796V44.3281ZM62.0914 44.0373L63.0628 46.1463L63.9711 45.7279L62.9997 43.619L62.0914 44.0373ZM63.0361 45.8C62.993 45.9512 62.8999 46.1812 62.7746 46.3613C62.6344 46.5628 62.549 46.5727 62.5456 46.5727V47.5727C63.0602 47.5727 63.4065 47.204 63.5955 46.9324C63.7993 46.6394 63.9329 46.3016 63.9977 46.0742L63.0361 45.8ZM62.5456 46.5727C62.3463 46.5727 62.1045 46.6258 61.8872 46.6807C61.6592 46.7383 61.3913 46.8162 61.1331 46.8879C60.5872 47.0395 60.068 47.1667 59.6888 47.1667V48.1667C60.2269 48.1667 60.8771 47.9968 61.4007 47.8515C61.6773 47.7746 61.9192 47.7041 62.1321 47.6503C62.3557 47.5938 62.4859 47.5727 62.5456 47.5727V46.5727ZM59.5169 47.1971L56.7077 48.2254L57.0514 49.1645L59.8606 48.1362L59.5169 47.1971ZM56.6397 48.2562L53.0782 50.203L53.5579 51.0804L57.1194 49.1337L56.6397 48.2562ZM53.1382 50.1752C52.8228 50.2967 52.2954 50.4454 51.7681 50.4881C51.2171 50.5327 50.7946 50.4516 50.5627 50.2579L49.9217 51.0255C50.4669 51.4807 51.2315 51.5348 51.8488 51.4848C52.4898 51.4329 53.1118 51.2571 53.4979 51.1082L53.1382 50.1752ZM50.5627 50.2579C50.3382 50.0705 49.982 49.8416 49.6204 49.6109C49.2444 49.3709 48.8364 49.113 48.4631 48.8479C48.085 48.5794 47.7743 48.3252 47.5805 48.1011C47.3608 47.8471 47.4191 47.7849 47.4023 47.8328L46.4591 47.5006C46.2803 48.0081 46.5745 48.4665 46.824 48.7551C47.0993 49.0736 47.491 49.384 47.8841 49.6632C48.2821 49.9459 48.7141 50.2188 49.0824 50.4539C49.4652 50.6981 49.7577 50.8885 49.9217 51.0255L50.5627 50.2579ZM47.2684 47.298L44.4949 44.7573L43.8194 45.4946L46.5929 48.0354L47.2684 47.298ZM44.512 45.4782L49.5043 40.4492L48.7946 39.7446L43.8023 44.7737L44.512 45.4782ZM49.1495 39.5969H45.3856V40.5969H49.1495V39.5969ZM45.468 39.6037C44.9931 39.5244 44.2848 39.3821 43.7024 39.2148C43.4079 39.1302 43.1681 39.0455 43.0106 38.9682C42.9729 38.9497 42.9439 38.9335 42.9223 38.92C42.9117 38.9134 42.9038 38.908 42.8982 38.9039C42.8954 38.9018 42.8934 38.9002 42.892 38.8991C42.8906 38.898 42.8899 38.8974 42.89 38.8975C42.89 38.8975 42.8909 38.8983 42.8924 38.8998C42.8939 38.9013 42.8962 38.9038 42.8992 38.9072C42.9049 38.9138 42.9142 38.9256 42.9243 38.9428C42.945 38.9778 42.9716 39.0402 42.9716 39.1235H41.9716C41.9716 39.3861 42.1313 39.5607 42.224 39.6435C42.3279 39.7362 42.4536 39.8088 42.5701 39.8659C42.8072 39.9823 43.1138 40.0862 43.4263 40.1759C44.0581 40.3574 44.8068 40.5072 45.3032 40.5901L45.468 39.6037ZM42.9716 39.1235C42.9716 38.8935 42.8704 38.6733 42.7867 38.5197C42.6931 38.348 42.5703 38.1704 42.4443 38.0051C42.1914 37.6736 41.8925 37.3486 41.6924 37.1481L40.9845 37.8544C41.1622 38.0325 41.4298 38.3239 41.6491 38.6115C41.7592 38.7559 41.8488 38.8885 41.9087 38.9983C41.9784 39.1263 41.9716 39.1589 41.9716 39.1235H42.9716ZM41.4893 37.0246L38.4134 36.0512L38.1117 37.0046L41.1876 37.978L41.4893 37.0246ZM37.8234 36.2888L35.8808 39.8579L36.7591 40.3359L38.7018 36.7669L37.8234 36.2888ZM35.8873 39.8462L32.9734 44.8753L33.8386 45.3766L36.7526 40.3476L35.8873 39.8462ZM33.1406 44.7022L31.8455 45.5134L32.3763 46.3608L33.6714 45.5497L33.1406 44.7022ZM32.277 45.4655L26.2872 43.3565L25.955 44.2998L31.9449 46.4087L32.277 45.4655ZM26.6211 43.8281C26.6211 43.8877 26.6075 43.9035 26.631 43.8328C26.6487 43.7794 26.6814 43.6953 26.7367 43.5758C26.8471 43.3375 27.0385 42.9776 27.3548 42.4705L26.5063 41.9413C26.175 42.4724 25.9617 42.8696 25.8292 43.1557C25.7631 43.2985 25.7149 43.4186 25.6821 43.5172C25.655 43.5987 25.6211 43.7145 25.6211 43.8281H26.6211ZM27.3548 42.4705C27.76 41.8208 28.4005 40.5873 28.9619 39.6173C29.2534 39.1137 29.5295 38.6689 29.766 38.3544C29.8853 38.1958 29.9817 38.0878 30.0534 38.0241C30.1471 37.941 30.122 38.0013 30.0064 38.0013V37.0013C29.7289 37.0013 29.5115 37.168 29.3896 37.2762C29.2457 37.404 29.103 37.5722 28.9668 37.7533C28.6924 38.1181 28.3917 38.6062 28.0964 39.1164C27.4841 40.1743 26.9105 41.2931 26.5063 41.9413L27.3548 42.4705ZM30.0064 38.0013C30.1302 38.0013 30.2396 37.9655 30.3096 37.9385C30.388 37.9083 30.4674 37.8689 30.5431 37.8274C30.6945 37.7444 30.8694 37.6316 31.0533 37.507C31.4072 37.2672 31.8911 36.9156 32.3391 36.6067C32.8086 36.2828 33.2881 35.9701 33.7262 35.7395C34.183 35.4991 34.5209 35.3889 34.7273 35.3889V34.3889C34.2591 34.3889 33.7344 34.6052 33.2605 34.8546C32.7679 35.1139 32.2486 35.4542 31.7713 35.7835C31.2724 36.1276 30.8614 36.4291 30.4924 36.6791C30.3148 36.7994 30.1713 36.8908 30.0622 36.9506C30.0076 36.9805 29.9713 36.9972 29.9503 37.0053C29.921 37.0166 29.9473 37.0013 30.0064 37.0013V38.0013ZM35.0874 34.542L27.2907 26.4474L26.5704 27.1411L34.3672 35.2358L35.0874 34.542ZM26.9305 26.2942H21.1026V27.2942H26.9305V26.2942ZM20.9442 26.32L13.6593 28.7534L13.9761 29.7019L21.261 27.2685L20.9442 26.32ZM13.9671 28.7505L6.19659 26.3171L5.89774 27.2714L13.6683 29.7048L13.9671 28.7505ZM6.35991 26.4041L2.31275 23.1595L1.68725 23.9398L5.73442 27.1843L6.35991 26.4041ZM2.40606 23.8414L5.32002 19.7857L4.5079 19.2022L1.59394 23.2579L2.40606 23.8414ZM5.40845 19.568C5.48872 19.0317 5.62532 18.1863 5.77367 17.3962C5.92625 16.5834 6.08012 15.8933 6.18776 15.6236L5.25902 15.2529C5.10765 15.6321 4.93774 16.4292 4.79084 17.2116C4.63969 18.0167 4.50109 18.8747 4.41947 19.42L5.40845 19.568ZM6.18776 15.6236C6.1789 15.6458 6.19683 15.6009 6.32225 15.4751C6.43176 15.3653 6.5862 15.2296 6.78154 15.072C7.17107 14.7577 7.69215 14.3808 8.2688 13.9848C9.42027 13.1941 10.7637 12.3476 11.649 11.8099L11.1299 10.9552C10.2344 11.4991 8.87431 12.356 7.70272 13.1605C7.11782 13.5621 6.57248 13.9558 6.15359 14.2938C5.94472 14.4623 5.75945 14.6233 5.61411 14.769C5.48469 14.8988 5.33263 15.0685 5.25902 15.2529L6.18776 15.6236ZM11.873 11.2556L10.2542 5.09093L9.28695 5.34492L10.9058 11.5096L11.873 11.2556ZM10.1777 5.50814L11.7966 3.23695L10.9823 2.65652L9.3634 4.92771L10.1777 5.50814ZM11.2182 3.41651L12.999 4.06543L13.3414 3.12586L11.5606 2.47695L11.2182 3.41651ZM13.5241 3.94883L15.143 2.32655L14.4351 1.62019L12.8162 3.24246L13.5241 3.94883ZM14.7129 2.46753L21.0264 3.4409L21.1788 2.45257L14.8652 1.47921L14.7129 2.46753ZM20.8965 3.40226L25.9149 5.67345L26.3273 4.7624L21.3088 2.49121L20.8965 3.40226ZM26.1211 5.71792H28.8732V4.71792H26.1211V5.71792ZM28.7517 5.70293L31.9894 6.51407L32.2324 5.54405L28.9947 4.73291L28.7517 5.70293ZM32.1109 6.52906H33.406V5.52906H32.1109V6.52906Z" fill="#ffffff"/>
</svg>
