<?xml version="1.0" encoding="utf-8"?>
<!-- Generator: Adobe Illustrator 21.1.0, SVG Export Plug-In . SVG Version: 6.00 Build 0)  -->
<svg version="1.1" id="Слой_2" xmlns="http://www.w3.org/2000/svg" xmlns:xlink="http://www.w3.org/1999/xlink" x="0px" y="0px"
	 viewBox="0 0 132.5 35.2" style="enable-background:new 0 0 132.5 35.2;" xml:space="preserve">
<style type="text/css">
	.st0{fill:#0E8743;}
	.st1{fill:#3F9050;}
	.st2{fill:#57985E;}
	.st3{fill:#5A9961;}
</style>
<g>
	<path class="st0" d="M48,25.5c-0.4-1.9-1.2-3.6-2-5.4c-0.8-1.9-1.8-3.8-2.1-5.8c-0.1-0.5-0.1-1-0.1-1.6c-0.1-0.3-0.1-0.6,0-1
		c0.6-1.3,0.8-2.7,1.9-3.8c0.9-0.8,1.7-1.7,2.8-2.3c2.1-1.2,4.3-1.4,6.5-0.4c1.1,0.5,2,1,2.5,2.3c0.2,0.6,0.2,1.2-0.1,1.7
		c-1.1,1.7-2.4,3.3-4,4.6c-0.1,0.1-0.1,0.1-0.2,0.1c-0.3,0.2-0.8,0.6-1.1,0.2c-0.4-0.3,0.1-0.7,0.3-0.9c0.3-0.5,0.5-1.2,1-1.7
		c0.2-0.1,0.4-0.2,0.6-0.4c0.5-0.8,1-1.6,1.3-2.6c0.1-0.2,0.1-0.3,0.1-0.6c0.1-0.2,0.1-0.3,0-0.5c0-0.1-0.1,0-0.1,0
		c0.1,0,0.1,0,0.1,0.1c0,0.1,0,0.1,0,0.2c0,0.1-0.1,0.1-0.1,0.1c-0.3-1.3-0.6-1.5-2.1-1.1c-2.9,0.8-5.1,2.4-5.8,5.5
		c-0.3,1.5,0.1,2.9,0.6,4.3c0.2,0.6,0.6,1.3,0.8,2c-0.1,0.1-0.1,0-0.2-0.1c-0.1,0.2,0.1,0.2,0.2,0.3c0.2,0.8,0.8,1.3,1,2.1
		c0.4,1,1.1,1.8,1.3,2.9c0.5,2.2,0.2,4.2-1.3,5.8c-0.4,0.5-0.3,1.1-0.9,1.4c-1.6,1-3.3,1.9-5.3,2.1c-0.6,0.1-1.1,0.1-1.7,0
		c-0.9-0.1-1.8-0.3-2.7-0.8c-1.3-0.8-1.6-2-1.6-3.5c0.1-2.3,1.2-3.9,2.7-5.4c0.3-0.3,0.6-0.5,1-0.6c0.3-0.1,0.5-0.1,0.8,0.1
		c0.2,0.2,0.2,0.5,0.1,0.7c-0.3,0.6-0.7,1.3-1,2c-0.5,1.3-0.9,2.5-0.6,3.9c0.3,1.5,1.1,2.1,2.5,1.7c2.1-0.5,3.6-1.7,4.5-3.6
		c0.2-0.5,0.4-0.9,0.5-1.4C48,26.1,48,25.8,48,25.5z"/>
	<path class="st0" d="M10.4,5.9c0.4,0.2,0.9,0.3,1.1,0.6c0.5,0.7,1,0.8,1.7,0.7c2.1-0.3,4.3-0.5,6.4-0.8c0.2-0.1,0.5,0,0.8-0.1
		c0.5,0,0.9,0.1,1.4-0.1c0.1-0.1,0.4-0.1,0.5,0.2c0.1,0.2,0.1,0.3-0.1,0.5c-0.3,0.3-0.8,0.4-1.3,0.5c-1.2,0.2-2.3,0.8-3.5,1
		c-1.8,0.3-3.6,0.8-5.5,1.2c-0.5,0.1-0.8,0.3-1,0.8c-1,2.7-2,5.4-2.9,8.1c-0.3,0.8-0.3,0.8,0.5,0.7c2-0.2,4-0.3,6-0.7
		c0.1,0,0.3,0,0.3,0.1c0.1,0.2,0,0.2-0.1,0.3c-0.1,0.2-0.3,0.4-0.5,0.4c-0.9-0.2-1.7,0.6-2.5,0.6c-1.4,0.1-2.7,0.7-4.1,0.8
		c-0.5,0.1-0.8,0.3-0.9,0.8c-0.9,3.2-2.1,6.4-3.2,9.5c-0.1,0.3-0.1,0.7,0.1,0.9c0.2,0.3,0.5,0,0.8-0.1c2.2-0.9,4.2-2.3,6.4-3.4
		c0.3-0.2,0.8-0.5,1.1-0.2c0.3,0.3,0,0.8-0.3,1.1c-1.8,2.1-3.9,4-6.5,5c-2,0.8-3.8-0.2-4.7-2c-0.3-0.7-0.3-1.5,0.2-2.1
		c0.5-0.7,0.6-1.5,0.9-2.3c0.3-1,0.8-2,1.2-3.1c0.3-1,0.6-1.9,0.9-2.9c0.1-0.2,0-0.2-0.2-0.3c-0.2-0.1-0.5-0.2-0.8-0.3
		c-0.3-0.2-0.5-0.6-0.4-1c0.1-0.4,0.4-0.4,0.8-0.5c0.3,0,0.6-0.1,1-0.1c0.5-0.1,0.9-0.3,1-0.8c0.8-2.8,1.8-5.4,2.7-8.2
		c0.1-0.2-0.1-0.2-0.2-0.2c-0.2,0-0.5,0.1-0.6-0.1c-0.5-0.2-1.2-0.1-1.5-0.6C4.7,8.7,5.1,8.2,6,8.1c0.5-0.1,1-0.1,1.4-0.1
		c0.9,0,1.4-0.3,1.6-1.3C9.2,6.4,9.3,6,9.7,5.9C9.9,5.9,10.1,5.9,10.4,5.9z"/>
	<path class="st1" d="M103.1,11.2c0.2-0.3,0.3-0.6,0.5-0.9C103.6,10.7,103.4,11,103.1,11.2z"/>
	<path class="st2" d="M101.6,14.6c0,0.3-0.1,0.4-0.2,0.6C101.3,15,101.4,14.8,101.6,14.6z"/>
	<path class="st3" d="M5.5,19.1c0,0.2-0.1,0.4-0.3,0.6C5.2,19.5,5.2,19.3,5.5,19.1z"/>
	<path class="st0" d="M40,21.7c-0.2-0.5-0.5-0.2-0.9-0.2c-0.7,0.2-1.4,0.3-2.1,0.5c-0.3,0.1-0.6,0.1-0.4-0.5c0.2-0.6,0.3-1.3,0.5-2
		c0.5-2.2,0.1-3.5-1.7-4.6c-0.8-0.5-1.6-0.7-2.4-0.1c-1.2,0.8-1.8,1.8-2.3,3.1c-0.1,0.3-0.2,0.5-0.6,0.6c-0.9,0.2-1.7,0.7-2.3,1.4
		c-0.8,1-1.7,2-2.5,3.1c-1.1,1.4-2.4,2.8-3.3,4.2c-0.8,1.1-1.8,1.7-2.8,2.4c-0.6,0.5-1.1,0.3-1.3-0.5c-0.2-0.5-0.2-1-0.1-1.4
		c0.1-0.2-0.1-0.5,0.2-0.8c0-1.3,0.3-2.5,0.7-3.8c0.6-2,1.2-3.9,2.4-5.5c0.2-0.2,0.3-0.5,0.6-0.4c0.3,0.1,0.2,0.4,0.2,0.6
		c0.1,0.9-0.4,1.7-0.6,2.5c-0.1,0.5,0,0.7,0.5,0.7c0.7,0,1.3-0.4,1.5-1c0.3-1.2,0.3-2.4-0.4-3.6c-0.3-0.6-0.8-0.9-1.5-0.9
		c-1.6-0.1-2.4,1-3.2,2.1c-1,1.2-1.4,2.8-2.2,4.3c-0.6,1.2-0.9,2.4-0.9,3.7c-0.1,1.4-0.3,2.8,0.1,4.2c0.7,2.2,2,2.5,3.8,1.7
		c1.6-0.8,2.9-2.1,4-3.4c0.6-0.7,1.2-1.5,1.8-2.3c0.1-0.1,0.2-0.3,0.3-0.2s0.1,0.3,0.1,0.4c0,0.6,0.3,1,0.6,1.6
		c1,1.9,3.5,2.7,5.2,1.4c0.8-0.6,1.6-1.2,2.3-2c0.8-0.9,1.6-1.7,2.2-2.8c0.3-0.7,0.9-0.9,1.6-1c0.8-0.1,1.6-0.2,2.3-0.5
		C39.8,22.4,40.2,22.2,40,21.7z M33.1,24.5c-0.7,1.2-1.5,2.4-2.6,3.2c-0.4,0.3-0.8,0.5-1.2,0.6c-0.9,0.3-1.4-0.2-1.2-1.1
		c0.1-0.3,0.1-0.5,0.2-0.8c0.6-1.5,1.2-3,2-4.5c0.5,1.3,1.5,1.8,2.6,2C33.2,24.1,33.3,24.1,33.1,24.5z M34.4,22.4
		c-0.3,0.8-0.6,0.9-1.8,0.6c-0.7-0.1-1.1-0.4-1.1-1.2c0-0.3,0-0.6,0.1-0.8c0.3-1.6,0.9-3.1,2-4.3c0.4-0.4,0.8-1,1.5-0.8
		c0.7,0.3,0.5,1,0.6,1.7L34.4,22.4z"/>
	<path class="st0" d="M107.5,13.3c-0.1-0.2-0.3-0.2-0.5-0.1c-0.5,0.1-0.9,0.1-1.4,0.1c-0.5,0.2-1,0-1.6,0.1c-0.3,0-0.7,0.2-1-0.1
		c0.1-0.2,0.2-0.3,0.3-0.6c0.2-0.9,0.9-1.6,1.2-2.5c0.2-0.5,0.5-1,0.9-1.4c0.7-0.6,1.1-1.4,1.6-2.2c0.2-0.3,0.1-0.8-0.3-1
		c-0.2-0.1-0.4-0.2-0.6-0.2c-0.2-0.1-0.5,0-0.8-0.1c-0.7,0.2-1.5,0.1-2,0.8c-0.9,1.2-1.5,2.5-2.4,3.8c-0.7,1-1.1,2.1-1.6,3.2
		c-0.2,0.3-0.4,0.5-0.7,0.5c-0.6,0-1.2,0-1.8,0c-0.4,0.2-0.9,0-1.3,0.1c-1.3,0.1-2.5,0-3.8,0.5c-0.1,0-0.3-0.1-0.3,0.2
		c0,0.2,0.2,0.2,0.4,0.3c0.5,0.1,0.9,0.2,1.4,0.2c1.3,0.1,2.5,0.1,3.7-0.1c0.5-0.2,0.9,0,1.3-0.1c0.2-0.1,0.5-0.1,0.3,0.3
		c-0.2,0.3-0.3,0.7-0.5,1c-0.8,2-1.3,4.1-2.3,6.1c-0.2,0.3-0.2,0.7-0.5,1c-1.3,1.6-2.4,3.2-3.6,4.8c-0.8,1-1.5,2.2-2.7,2.8
		c-0.2,0.1-0.3,0.3-0.6,0.2c-0.2-0.2-0.1-0.4,0-0.6c0.5-1.1,0.8-2.3,1.3-3.3c0.5-1.2,1.1-2.4,1.6-3.6c0.2-0.6,0.1-1-0.6-1.3
		c-0.5-0.2-0.9-0.2-1.4-0.3c-0.2-0.1-0.5-0.1-0.7,0c-0.5,0.1-1-0.1-1.2-0.5s0.2-0.9,0.5-1.2c0.9-1,0.9-1.3-0.3-1.8
		c-0.2-0.1-0.5-0.1-0.7,0c-1.2,0.3-1.6,1.2-1.8,2.3c-0.1,0.2-0.1,0.5,0,0.7c0.1,0.3,0.5,0.7,0.2,1.2c-0.9,1.4-1.8,2.8-2.8,4.2
		c-0.6,0.8-1.2,1.6-1.9,2.3c-0.2,0.1-0.4,0.4-0.7,0.2c-0.2-0.1-0.2-0.4-0.2-0.6c0.1-1.4,0.4-2.8,0.6-4.2c0.2-1.2,0.9-2.1,1.3-3.2
		c0.3-0.9-0.3-1.8-1.2-1.8c-1-0.1-1.7,0.5-2.3,1.3c-0.2-0.7-0.5-1.3-0.8-1.9c-0.5-0.9-1.6-1.3-2.4-0.8c-1.2,0.6-2.3,1.3-2.9,2.6
		c-0.5,1-0.8,2.1-1.4,2.9c-1.2,1.6-2.5,3.2-4,4.6c-0.2,0.2-0.4,0.3-0.6,0.3c-0.3-0.1-0.2-0.4-0.2-0.6c0-1,0.3-2,0.7-2.8
		c0.8-1.6,1.4-3.1,1.8-4.8c0.1-0.3,0.1-0.8,0-1.1c-0.1-0.6-0.3-1-0.9-1.4c-0.2-0.1-0.5-0.1-0.7,0c-0.9,0.2-1.7,0.7-2.3,1.5
		C63.9,20,63,21,62.3,22.1c-0.1,0-0.1,0.1-0.1,0.2c0-0.1,0-0.2,0-0.3c0.1-0.2,0.1-0.3,0.1-0.5c0.3-1.2,0.9-2.2,1.3-3.3
		c0.1-0.2,0.1-0.5,0-0.7c-0.6-1.9-2.3-2.1-3.3-0.7c-1.1,1.7-2.3,3.2-3.2,5c-0.6,1.1-1,2.3-1.6,3.5c-0.1-0.2-0.2-0.5-0.2-0.6
		c0.5-1.3,0.5-2.7,1.4-3.7c0.3-0.3,0.5-0.6,0.3-1c-0.2-0.5-0.5-0.9-0.9-1.2c-0.3-0.2-0.7-0.6-1-0.1c-1.3,2.3-2.2,4.7-2,7.4
		c0.1,1,0.8,1.8,1.7,2c0.3,0.1,0.6,0.1,0.6-0.3c0.1-0.5,0.3-0.9,0.6-1.4c1.2-2.4,2.2-5,3.8-7.2c0.4-0.5,0.8-1.1,1.4-1.4
		c0,0.2-0.1,0.5-0.2,0.7c-0.4,1.4-1.2,2.5-1.6,3.9c-0.2,0.9-0.3,1.9-0.4,2.9c0,0,0,0.1,0,0.1c0.1,0.6,0.3,1.1,1,1.2
		c0.6,0.1,0.9-0.4,1.1-0.9c1-2.1,2.5-3.9,3.9-5.8c0.2-0.1,0.2,0,0.2,0.2c-0.2,0.6-0.4,1.3-0.8,1.8c-0.5,0.9-0.9,1.9-1,2.9
		c-0.1,0.9,0,1.8,0,2.7c0.1,0.9,0.6,1.7,1.2,2.3s1.8,0.5,2.5-0.2c0.4-0.3,0.9-0.8,1.2-1.3c0.5-0.6,0.8-1.2,1.4-1.7
		c0.2,0.2,0,0.4,0.1,0.6c0,0.2,0.1,0.4,0.1,0.6c0.2,1.5,1.9,2.4,3,1.6c1.2-0.9,2.1-2,2.9-3.2c0.5-0.7,0.8-1.5,1.4-2.1
		c0.3-0.1,0.2,0.1,0.2,0.3c-0.2,0.2-0.1,0.5-0.2,0.7c-0.4,1.7-0.6,3.5,0.3,5.1c0.6,1,1.6,1.3,2.6,0.8c1-0.5,1.6-1.4,2.3-2.2
		c1.1-1.4,2.1-3.1,2.8-4.8c0.2-0.4,0.4-0.8,0.7-1.1c0.3-0.2,0.6,0.2,0.9,0.2c0,0,0.1,0,0.1,0c1.2,0,1.2,0,0.7,1.1
		c-0.5,1.1-1,2.3-1.5,3.4c-0.6,1.4-0.9,2.9,0.1,4.4c0.4,0.6,1.4,1,2.1,0.6c1.7-1,3.2-2.3,4.4-3.9c0.5-0.7,0.9-1.4,1.6-2.1
		c-0.3,1.7-0.7,3.2-0.9,4.7c-0.2,1.4,0.5,3.3,2.1,3.6c0.2,0.1,0.5,0.1,0.8,0c1.3-0.8,2.2-2.1,3.1-3.3c1.8-2.3,3.5-4.5,5-6.9
		c0.4-0.6,1-1.2,1.3-1.9c0.1-0.3,0.2-0.6-0.2-0.8s-0.6,0-0.8,0.3c-0.8,1.3-1.7,2.4-2.6,3.5c-1.6,1.9-2.9,3.9-4.7,5.6
		c-0.2,0.2-0.3,0.3-0.5,0.6c-0.1,0.3-0.4,0.6-0.8,0.2c-0.1-0.3-0.1-0.6,0-1c0-0.2-0.1-0.4,0-0.6c0.5-1.8,0.9-3.5,1.4-5.3
		c1.1-3.6,2.7-6.9,4-10.4c0.1-0.4,0.4-0.6,0.9-0.6c0.4,0,0.7,0.2,1.1,0.2c0.9,0,1.7-0.4,2.5-0.3c0.3,0.1,0.6-0.2,0.9-0.5
		C107.5,13.7,107.7,13.5,107.5,13.3z M75.5,23.7C74.7,24.8,73.9,26,73,27c-0.1,0.1-0.2,0.3-0.4,0.4c-0.2,0.2-0.4,0.4-0.6,0.4
		c-0.3-0.1-0.2-0.4-0.2-0.7c0.2-1,0.4-2,0.8-3c0.5-1.4,1.1-2.8,1.8-4.1c0.2-0.4,0.4-0.6,0.7-0.8c0.5-0.4,0.8-0.2,1,0.5
		c0.1,0.2-0.1,0.4,0,0.6C76.8,21.6,76.4,22.6,75.5,23.7z"/>
	<g>
		<path class="st0" d="M127.4,8.5c-0.1-0.3-0.1-0.4-0.3-0.6c-0.3,0.3-0.1,0.6-0.1,0.9c0,0.1-0.1,0.3-0.2,0.3s-0.3-0.2-0.2-0.3
			c0.4-0.6,0-1-0.3-1.5c0.3,0.1,0.3,0.6,0.7,0.4c-0.1-0.4-0.3-0.8-0.4-1.2c-0.1-0.4-0.5-0.5-0.9-0.7c-0.6,0-1-0.5-1.5-0.6
			c-0.1-0.1-0.1-0.1-0.2-0.1c-0.1,0-0.2,0.1-0.3,0.1c-0.3,0.2-0.5,0.4-0.6,0.8c0.1,0.4,0.4,0.6,0.8,0.6c0.1-0.4,0.4-0.5,0.8-0.4
			c0.4,0.1,0.2,0.4,0.2,0.6c0,0.2-0.1,0.3-0.1,0.4c-0.1,0.1,0,0.3,0.1,0.4c0.4,0.6,0.4,0.9-0.2,1.4c-0.3-0.3-0.2-0.6-0.2-1
			c0-0.7-0.4-1.2-0.9-1.3c-0.5-0.1-0.9-0.3-1.4-0.5c-0.1-0.1-0.1-0.1-0.2-0.1c-0.3-0.1-0.4-0.5-0.6-0.7c-0.1,0-0.1,0-0.2,0.1
			c-0.6,0.4-1.3,0.9-1.5,1.6c0.1,0.4,0.3,0.9,0.2,1.4c0.1,0.3,0.3,0.3,0.5,0.3c0.3-0.1,0.4-0.2,0.4-0.4c0.2-0.6,0.5-0.6,0.9-0.3
			c0.1,0.2,0.3,0.3,0.4,0.4c0.9,0.9,2.3,1.3,3.2,2.1c0.4-0.2,0.3-0.4,0.2-0.8c-0.1-0.1,0-0.2,0.1-0.3c0.2-0.1,0.4,0.1,0.5,0.2
			c0.4,0.3,0.8,0.1,1.1,0c0.3-0.2,0.4-0.6,0.3-0.9C127.5,8.8,127.5,8.6,127.4,8.5z"/>
		<path class="st0" d="M129.2,24.9C129.2,24.9,129.2,24.9,129.2,24.9C129.2,24.9,129.2,24.9,129.2,24.9z"/>
		<path class="st0" d="M132,21.7c-0.4-0.9-1.3-1.8-1.6-2.9c0-0.4-0.2-0.6-0.4-0.9c-0.1-0.2-0.2-0.4-0.4-0.3
			c-0.2,0.1-0.1,0.3-0.2,0.4c-0.1-0.2-0.1-0.4,0.1-0.6c0-0.1,0-0.1,0-0.2c-0.1-0.2-0.2-0.5-0.5-0.6c-0.1,0-0.1,0-0.2,0
			c-0.3,0.1-0.3,0.2-0.2,0.4c0.1,0.1,0.2,0.3,0.1,0.4c-0.1,0.1-0.1,0.1-0.1,0.2c-0.1,0.5-0.4,0.1-0.5,0.1c-0.4,0.4-0.1,0.8-0.1,1.3
			c0.4,0.3,0.7-0.4,1.1,0.1c-0.4,0.1-0.4,0.3-0.3,0.6c0.1,0.3,0.3,0.4,0.6,0.4c0.2,0,0.3-0.1,0.4,0c0,0.6,0.3,1,0.9,1.1
			c0.3,0.1,0.4,0.2,0.4,0.4c0.1,0.6,0.2,1.1,0.2,1.6c0,0.6-0.1,1.1-0.9,1.1c-0.3,0-0.6,0-0.8,0c-0.3,0-0.5,0.1-0.6,0.3
			c0,0.1,0,0.2,0,0.2c0,0,0,0,0.1,0c0.1,0,0.2,0,0.3,0.1c-0.1,0-0.2,0-0.3-0.1c0,0,0,0-0.1,0c-0.1-0.1-0.3-0.1-0.5,0
			c-0.2,0.4,0.3,0.5,0.3,0.8c-1.2,0-1.7-0.5-2.1-2c0.4,0.1,0.8,0.4,1.1,0.9c0.2,0.3,0.4,0.6,0.8,0.3c0.2-0.3,0.1-0.5-0.2-0.7
			c-0.3-0.2-0.4-0.4-0.6-0.6c-0.4-0.4-0.6-0.8-0.7-1.4c-0.1-0.4-0.1-0.9-0.4-1.3c-0.2-0.1-0.2-0.4,0-0.6c0.3-0.3,0.4-0.7,0.1-1.1
			c-0.8,0.4-0.9,1.1-1.1,1.9c0,0.2-0.1,0.4,0.1,0.6c0.2,0.4,0.2,0.9,0.2,1.4c0.1,1.2,0.6,2.2,1.6,2.8c0.3,0.1,0.4,0.4,0.8,0.5
			c0.8,0.1,1.6-0.1,2.4-0.3c0.5-0.1,0.5-0.6,0.8-0.8c0.1-0.1,0.2-0.3,0.1-0.4c0.6-0.1,0.4-0.5,0.6-0.8c0-0.1,0-0.1,0-0.1
			c-0.1-0.6-0.1-1.2-0.2-1.8C132.2,22,132.1,21.8,132,21.7z"/>
		<path class="st0" d="M113.2,1.9c-0.3,0.6,0.1,1.1,0.1,1.6c0,0.1,0.1,0.1,0.1,0.2c0.3,0.1,0.4,0.3,0.4,0.4c1.6,0.4,1.9,0.2,2.3-1.4
			c0.1-0.1,0.1-0.2,0.1-0.3c0-0.4-0.1-0.8-0.3-1.1C114.7,0.3,113.7,0.5,113.2,1.9z"/>
		<path class="st0" d="M127.4,8.4c-0.1,0.4,0.3,1-0.4,1.3c-0.4,0.2-0.6,0.3-0.8-0.1c-0.1-0.1-0.5-0.4-0.6-0.1
			c-0.1,0.3-0.6,0.3-0.4,0.3c0.5,0.3,0.1,0.6,0.2,0.9c-0.1,0.3,0.1,0.5,0.3,0.7c0.1,0.1,0.3,0.3,0.3,0.4c0,0.1-0.1,0.1-0.1,0.1
			c-0.1,0-0.1-0.1-0.1-0.1c-0.2-1.2-1.2-1.4-2.1-1.8c-0.1,0.1-0.3,0.2-0.3,0.3c0.1,0.3,0.1,0.4,0.3,0.6c0.4,0,0.2,0.3,0.3,0.5
			c0.1,0.1,0.1,0.1,0.2,0.1c0.5-0.3,0.8-0.1,0.8,0.4c0.1,0.2,0.1,0.4,0.2,0.6c0.1,0.1,0.1,0.1,0.1,0.2c0.2,0.2,0.4,0.2,0.6,0.1
			c1.5-0.5,1.3-2.1,2.1-3.1c0.1-0.1-0.1-0.3-0.1-0.5C127.7,8.9,127.5,8.7,127.4,8.4z"/>
		<path class="st0" d="M128.9,13.3c-0.3-0.3-0.4-0.8-0.6-1.2c-0.7,0-1.3,0.2-1.8,0.7c-0.1,0.4,0.3,0.6,0.5,0.7
			c0.4,0.3,0.5-0.3,0.8-0.4c-0.2,0.4-0.8,0.8-0.6,1.4c0,0.2-0.3,0.3-0.4,0.4c-0.1,0.4-0.2,0.7-0.3,1.1c0,0.1,0.1,0.1,0.1,0.2
			c0.3,0.6,1,0.6,1.2,1.3c0.2,0.1,0.3-0.1,0.4-0.3c0.1-0.3,0.1-0.4,0-0.7c-0.5-0.6-0.4-1.3,0.4-1.9c0.1,0.3,0,0.5,0.1,0.8
			c0,0.2-0.1,0.5,0.3,0.5c0.3-0.1,0.3-0.4,0.3-0.6c0.1-0.6-0.1-1.1-0.3-1.7C128.9,13.4,128.9,13.4,128.9,13.3z"/>
		<path class="st0" d="M121.4,8.5c0.1-0.2,0.3-0.3,0.4-0.4c-0.6-0.4-0.9-0.3-1.1,0.3c0,0.2-0.2,0.3-0.3,0.4
			c-0.4,0.3-0.1,0.5,0.1,0.8c0.4,0.4,0.3,0.7-0.3,0.8c-0.3,0.1-0.6,0.1-0.9,0c-1-0.3-2-0.6-2.8-1.3c-0.3-0.3-0.3-0.7-0.1-1.1
			c0.1-0.5,0.7-1,0.3-1.6c-0.8,0.4-0.8,1.3-0.8,2c0.1,1.3,1.8,2.6,3.3,2.6c0.4-0.2,0.8,0.2,1.3,0.1c0.4,0,0.5,0.3,0.6,0.6
			c0.1,0.3,0.1,0.6,0.5,0.4c0.2-0.4,0.1-0.7,0-1c-0.1-0.4-0.1-0.7,0.1-1c0.1-0.2,0.1-0.4-0.1-0.5c0.4-0.1,0.8,0.3,1.2,0.1
			C122.7,8.8,121.9,8.9,121.4,8.5z"/>
		<path class="st0" d="M128.2,10.8c0.1-0.6,0-1.1-0.5-1.4c0.2,0.8-0.8,1.1-0.7,1.9c0.1,0.6-0.3,1-0.9,1.3c-0.2,0.1-0.3,0.1-0.4,0.3
			c-0.1,0.1-0.1,0.3,0.1,0.3c0.3,0,0.4-0.1,0.6-0.2c0.1-0.1,0.1-0.1,0.1-0.1c0.6-0.3,1.2-0.5,1.8-0.8
			C128.5,11.6,128.1,11.2,128.2,10.8z"/>
		<path class="st0" d="M129.7,14.4c-0.2-0.4-0.2-0.9-0.8-0.9c0,0.7,0.4,1.4,0,2.3c0-0.6,0-1-0.2-1.4c-0.1-0.1-0.1-0.2-0.2-0.3
			c-0.1-0.1-0.2,0.1-0.2,0.1c0.3,0.9-0.5,0.3-0.8,0.5c-0.1,0.4,0.6,0.6,0.2,1c-0.6,0.6-0.1,0.6,0.3,0.8c0.1,0.1,0.1,0.3,0.4,0.1
			c0.1-0.2,0.3-0.3,0.6-0.3c0.6-0.1,0.8-0.4,0.6-0.9C129.7,14.9,129.7,14.6,129.7,14.4z"/>
		<path class="st0" d="M124.7,15.3c-0.7,0.1-0.8-0.6-1.3-0.9c-0.3,0-0.4,0.1-0.5,0.4c-0.1,0.2,0,0.4,0.1,0.6l0.1,0.1h0.1
			c0.4-0.1,0.4,0.3,0.5,0.4c0.1,0.1,0.5-0.1,0.3,0.3c-0.1,0.1,0.1,0.3,0.2,0.3c0.3-0.3,0.4-0.1,0.5,0.1c-0.1-0.2-0.2-0.3-0.4-0.1
			c0,0.1,0,0.3,0.1,0.3c0.1,0.3,0.2,0.5,0.5,0.7c0.3,0.3,0.4,0.6,0.4,0.9c0.1,0.1,0.1,0.1,0.2,0.1c0.2,0.1,0.4,0.1,0.6-0.1
			c0.3-0.7,0.3-1.4-0.3-2C125.3,16.1,125,15.7,124.7,15.3z"/>
		<path class="st0" d="M116,1c0.1,0.5,0.3,0.9,0.8,1.2c0.5,0.3,0.9,0.4,1.3-0.2c0.1-0.2,0.2-0.3,0.1-0.5c-0.3-0.1-0.4,0.1-0.6,0.1
			c-0.5,0.2-0.8-0.1-0.8-0.6c0.4,0.6,0.7,0.8,0.8,0.5c0.3-0.5,0.4-0.3,0.7-0.1c0.3-0.3,0-0.6-0.1-0.8C117.5-0.5,116.4,0,116,1z"/>
		<path class="st0" d="M123.5,4.4c-1.3-0.8-2.6-0.4-3.8-0.3c-0.1,0.1-0.3,0.2-0.1,0.3c0.1,0.1,0.2,0.1,0.3,0.1
			c1.1,0.3,2.2,0.3,3.3,0.3c0.3,0,0.5,0.1,0.8,0.1c0.1,0,0.1,0,0.2-0.1c0.1-0.1,0.1-0.1,0-0.2C123.9,4.5,123.7,4.5,123.5,4.4z"/>
		<path class="st0" d="M121.5,1.3c-0.2,0.1-0.4,0.3-0.5,0.7c0,0.1,0,0.1,0,0.2c0.1,0.1,0.1,0.2,0.3,0.1c0.6-0.3,0.9,0.1,1.2,0.6
			c0.4,0.3,0.7,0.3,0.6-0.4C123,1.6,122.4,1.1,121.5,1.3z"/>
		<path class="st0" d="M127.9,25.9c0.6,0.7,2,1,3.3,0.4c0.8-0.4,1.3-1.2,1.3-2.2C131.4,26.1,129.9,26.9,127.9,25.9z"/>
		<path class="st0" d="M126.9,7.6c-0.1,0-0.3-0.1-0.3-0.3c-0.1-0.3-0.2-0.7-0.5-0.5c-0.3,0.2-0.1,0.6,0.1,0.8
			c0.3,0.3,0.4,0.5,0.1,0.9c-0.3,0.4,0.1,0.6,0.4,0.8c0.4,0.2,0.3-0.3,0.4-0.4c0.1-0.3,0-0.7,0-1C127,7.8,127,7.8,126.9,7.6z"/>
		<path class="st0" d="M126.4,18.1c-0.3,0.1-0.4,0.2-0.5,0.4c-0.3,0-0.4,0-0.6,0c0,0.4,0.6,0.4,0.6,0.9c0.4,0.4-0.4,0.3-0.3,0.6
			c0.4,0.6,0,1.3,0.4,1.9c0-0.2,0-0.4,0-0.6c0.1-0.6,0.2-1.1,0.5-1.6C127,18.9,127,18.6,126.4,18.1z"/>
		<path class="st0" d="M128.9,16c-0.4,0-0.6,0.1-0.5,0.4c0.1,0.2,0.2,0.3,0.4,0.3c0,0,0.1-0.1,0.1,0c0,0.1,0,0.1,0.1,0.2
			c0.1,0,0.1,0,0.1,0c0.1,0.1,0.3-0.6,0.3,0.1c0,0.2,0,0.4,0.1,0.6c0.2,0.3,0.4,0.3,0.8,0.1c-0.2-0.8-0.4-1.6-0.6-2.4
			C129.7,15.7,129.4,16,128.9,16z"/>
		<path class="st0" d="M124.7,2.7c-0.3-0.1-0.4-0.1-0.5-0.4c-0.1-0.3-0.4-0.2-0.6-0.1c-0.1,0.1-0.1,0.1-0.1,0.1
			c-0.1,0.3-0.3,0.5-0.1,0.8c0.4,0.4,0.9,0.8,1.6,0.6C125.3,3.2,125.3,2.9,124.7,2.7z"/>
		<path class="st0" d="M119.8,4.4c-0.1,0-0.1,0-0.2,0c-0.6,0.2-1.1,0.4-1.5,0.4c-0.2-0.1-0.3,0.1-0.4,0.2c-0.1,0-0.1,0-0.1,0.1
			c0,0.1,0,0.1,0.1,0.1c0.4,0.1,0.8,0.3,1,0.6c0.2,0.3,0.4,0.4,0.8,0.2c0.3-0.2,0.6-0.4,0.3-0.8C119.7,5,119.9,4.7,119.8,4.4z"/>
		<path class="st0" d="M115.9,1.2c-0.1,0.1-0.1,0.1-0.1,0.2c0.1,0.4,0.1,0.7,0.2,1.1c0.2,0.3,0,0.6-0.1,0.8
			c-0.2,0.6-0.7,1.1-1.2,1.4c0.9,0.1,1.8-0.8,1.9-1.8C116.5,2.3,116.6,1.6,115.9,1.2z"/>
		<path class="st0" d="M121.3,2c-0.2,0.1-0.1-0.1-0.2-0.2c-0.4,0.1-0.1,0.4-0.3,0.5c-0.1,0.5,0.4,0.6,0.7,0.8
			c0.3,0.2,0.4-0.1,0.6-0.3c0.1-0.2,0.3-0.1,0.4-0.1C122.3,2.2,122,1.7,121.3,2z"/>
		<path class="st0" d="M119.3,1.3C119.4,1.3,119.4,1.3,119.3,1.3C119.4,1.3,119.4,1.3,119.3,1.3z"/>
		<path class="st0" d="M118.5,0.9c-0.1,0.1-0.1,0.3-0.3,0.4c-0.1,0.4,0,0.7,0.2,1c0.1,0.1,0.2,0.1,0.3,0.1c0.2-0.2,0.1-0.4,0.1-0.6
			c-0.1-0.5,0-0.6,0.4-0.5c0,0,0,0,0,0c0,0,0,0,0,0c0,0,0.1,0,0.1,0c0,0,0,0,0.1,0c0,0-0.1,0-0.1,0c0,0-0.1,0-0.1,0c0,0,0,0,0,0
			c0,0,0,0,0,0c-0.1,0-0.3,0-0.4,0.2c-0.1,0.3,0.2,0.4,0.3,0.6c0.1,0.1,0.3,0.2,0.4,0.3c0.2,0,0.3-0.1,0.5-0.1
			c0.1,0,0.1-0.1,0.1-0.1c0.2-0.4-0.1-0.7-0.3-1C119.5,0.7,119,0.5,118.5,0.9z"/>
		<path class="st0" d="M119.4,1.4c0,0,0.1,0,0.1,0C119.5,1.4,119.5,1.4,119.4,1.4z"/>
		<path class="st0" d="M121.5,12.7c-0.1-0.3-0.4-0.6-0.7-0.8c-0.4-0.3-0.8-0.4-0.9-0.8c-0.1-0.1-0.1-0.1-0.2-0.1
			c-0.6,0.3-0.2,0.6,0,0.7c0.9,0.8,1.7,1.7,2.1,2.9c0.1,0.1,0.2,0.1,0.3,0.1c0.1-0.1,0.1-0.1,0.1-0.2c-0.1-0.3-0.3-0.4-0.3-0.7
			C121.9,13.5,121.5,13.2,121.5,12.7z"/>
		<path class="st0" d="M131.2,19.6c-0.3-0.3-0.2-0.9-0.6-1.2c-0.3,0.2-0.1,0.5-0.3,0.6c0.4,1,1.1,1.8,1.8,2.7
			c-0.2-0.5-0.4-0.9-0.6-1.5C131.3,20,131.3,19.7,131.2,19.6z"/>
		<path class="st0" d="M116,8.2c0.1-0.8,0.3-1.4,0.8-2c0.6-0.2,0.8-0.6,0.9-1.1c0-0.1,0-0.1,0-0.1C116.2,5.9,115.5,6.9,116,8.2z"/>
		<path class="st0" d="M130.2,17.7c-0.3,0.1-0.5,0-0.8-0.1c-0.5,0.4-0.2,0.8,0,1.3c0.4-0.3,0-0.6,0.3-0.9c0.1,0.4,0.6,0.6,0.5,1.1
			c0.4-0.1,0.3-0.4,0.3-0.6C130.3,18.2,130.5,17.9,130.2,17.7z"/>
		<path class="st0" d="M113.2,2c0.1,0.1,0.1,0.1,0.2,0c0.1-0.7,0.8-0.8,1.3-1.1c0.4-0.3,0.6,0.3,0.9,0.4c0.1,0.1,0.3,0.1,0.4,0.2
			c0-0.1,0-0.1,0-0.2c0.1-0.1,0.1-0.1,0.1-0.1C114.8,0.1,113.6,0.5,113.2,2z"/>
		<path class="st0" d="M115.4,4.1c-0.4,0.4-0.8-0.1-1.1,0c-0.1,0-0.3,0-0.4,0.1c0.3,0.3,0.5,0.5,0.9,0.6c1-0.4,1.6-1.4,1.3-2.3
			C116,3.1,115.7,3.6,115.4,4.1z"/>
		<path class="st0" d="M125.9,5.7c-0.1-0.1-0.1-0.2-0.1-0.3c-0.2-0.4-0.6-0.5-0.9-0.8c-0.3-0.1-0.5-0.1-0.8-0.1c0,0.1,0,0.1,0,0.2
			c0,0.1,0,0.1,0.2,0.1c0,0,0.1,0.1,0.1,0.1c0.1,0,0.1,0.1,0.1,0.1c0,0.1-0.1,0.1-0.1,0.2c0.1,0.3,1.1,0.7,1.4,0.6
			C126,5.7,126,5.7,125.9,5.7z"/>
		<path class="st0" d="M124.9,2.5c-0.4-0.2-0.8-0.7-1.3-0.3c0.1,0.1,0.4-0.1,0.4,0.3c-0.1,0.3,0.3,0.5,0.4,0.4
			c0.8-0.2,0.6,0.3,0.6,0.8c0.2,0.1,0.3-0.1,0.3-0.3C125.4,3,125.2,2.7,124.9,2.5z"/>
		<path class="st0" d="M132.4,24c0.2-0.6,0.3-1.3-0.2-1.8C131.9,22.8,132,23.4,132.4,24z"/>
		<path class="st0" d="M119.8,2.2c-0.3,0.2-0.7-0.1-0.9,0.1c-0.1,0-0.2,0-0.3,0c0.1,0.1,0.2,0.3,0.4,0.4c0.4,0.2,0.9,0.3,1.3-0.1
			c0.1-0.3,0-0.4,0-0.6C120.1,2.1,119.9,2.2,119.8,2.2z"/>
		<path class="st0" d="M119.6,4.4c0-0.1,0.1-0.2,0.2-0.3c-0.6,0.3-1.3,0.4-1.8,0.8C118.6,5,119.2,4.9,119.6,4.4z"/>
		<path class="st0" d="M115.9,1.1c0,0.1,0,0.1,0,0.2c0.5,0.4,0.5,1.1,0.8,1.7c0.1-0.3-0.2-0.6,0.2-0.8c-0.3-0.4-0.5-0.8-0.8-1.2
			C116,1,115.9,1,115.9,1.1z"/>
		<path class="st0" d="M125.5,18.7c-0.1,0-0.2-0.2-0.3-0.3c-0.1-0.1-0.1-0.1-0.1,0c-0.1,0.6,0.1,0.9,0.8,0.9
			C125.9,19.1,126,18.7,125.5,18.7z"/>
		<path class="st0" d="M118.1,1.4c0,0.1-0.1,0.1,0,0.1c0.1,0.2-0.2,0.3-0.1,0.5c0.1,0.1,0.3,0.2,0.4,0.3c0.2-0.3-0.1-0.6,0.1-0.9
			c0-0.1,0-0.3,0-0.4c-0.1-0.1-0.3-0.3-0.4-0.3C118,0.9,118.5,1.1,118.1,1.4z"/>
		<path class="st0" d="M122.2,14.6L122.2,14.6c-0.1,0.3,0.4,0.2,0.3,0.5c0.3,0.1,0.4,0.2,0.6,0.3c0-0.3,0-0.4,0-0.6
			C122.9,14.1,122.8,14.1,122.2,14.6z"/>
		<path class="st0" d="M119.2,10.9c0.2,0.1,0.3,0.1,0.4,0.1l0.1,0.1c0.4,0.2,0.8,0.3,0.9-0.3C120.2,10.7,119.7,10.5,119.2,10.9z"/>
		<path class="st0" d="M123.5,15.2c-0.2-0.1-0.3,0.1-0.4,0.3c0.1,0.1,0.3,0.3,0.4,0.4l0.1,0.1l0.1-0.1
			C123.8,15.6,123.8,15.3,123.5,15.2z"/>
		<path class="st0" d="M113.3,1.9c-0.1,0-0.1,0-0.2,0c-0.2,0.6-0.1,1.2,0.2,1.7C113.4,3,112.9,2.4,113.3,1.9z"/>
		<path class="st0" d="M125.9,5.7c0,0,0,0.1,0,0.1c0.2,0.3,0.6,0.4,0.8,0.8C126.8,5.9,126.2,5.9,125.9,5.7z"/>
		<path class="st0" d="M118.9,2.7c0.5,0.4,0.9,0.6,1.3-0.1C119.7,2.8,119.3,2.9,118.9,2.7z"/>
		<path class="st0" d="M123.6,15.9c0.1,0.2,0.2,0.4,0.3,0.6c0.1,0.1,0.2,0.2,0.3,0.3c0-0.1,0-0.2,0-0.3
			C124,16.2,124.4,15.6,123.6,15.9z"/>
		<path class="st0" d="M124.8,4.6c0.2,0.4,0.8,0.4,0.9,0.8C125.7,4.8,125.3,4.7,124.8,4.6z"/>
		<path class="st0" d="M128.9,13.3c0,0.1,0,0.1,0,0.1c0.3,0.3,0.6,0.6,0.8,0.9C129.7,13.9,129.5,13.4,128.9,13.3z"/>
		<path class="st0" d="M120,1c0.1,0.3,0.3,0.6,0.3,1C120.7,1.5,120.4,1.2,120,1z"/>
		<path class="st0" d="M113.4,3.7c0.1,0.2,0.3,0.4,0.5,0.4C113.9,3.8,113.9,3.5,113.4,3.7z"/>
		<path class="st0" d="M122.1,14.7c-0.1,0-0.2-0.1-0.3-0.1c0.1,0.3,0.3,0.4,0.6,0.5C122.9,14.6,122,14.9,122.1,14.7z"/>
		<path class="st0" d="M120.9,2.4c0.1-0.2,0.2-0.3,0.3-0.5c0.1-0.1,0.2-0.3,0.2-0.6C120.8,1.5,120.9,1.9,120.9,2.4z"/>
		<path class="st0" d="M118.4,2.2c0.1,0,0.1,0.1,0.1,0.1c0-0.4,0-0.7,0-1.1C118.2,1.5,118.4,1.9,118.4,2.2z"/>
		<path class="st0" d="M123.6,15.9c0,0-0.1,0-0.1,0c0.1,0.3,0.1,0.5,0.4,0.6C123.9,16.2,123.8,16,123.6,15.9z"/>
		<path class="st0" d="M121.1,1.9c0.1-0.2,0.3-0.4,0.4-0.6c-0.1,0.1-0.2,0.1-0.3,0.1C121.2,1.5,121,1.6,121.1,1.9z"/>
		<path class="st0" d="M123.4,3.1c0-0.3,0.1-0.6,0.1-0.8C123.2,2.5,122.9,2.7,123.4,3.1z"/>
		<path class="st0" d="M131.1,19.6c0,0.3,0.1,0.5,0.3,0.6C131.4,20,131.4,19.7,131.1,19.6z"/>
		<path class="st0" d="M120.2,2c-0.3,0.3,0,0.4,0,0.6c0.3-0.1,0.1-0.4,0.1-0.6C120.2,2,120.2,2,120.2,2z"/>
		<path class="st0" d="M123.9,4.6c-0.3,0.2-0.5-0.1-0.8-0.1c-0.3,0-0.6,0-0.9,0c-0.5,0-1.1,0.2-1.5-0.1c-0.3-0.2-0.6-0.1-0.9,0
			c-0.3,0.3-0.3,0.7-0.2,0.8c0.5,0.4,0.1,0.5-0.2,0.7c-0.4,0.3-0.6-0.1-0.7-0.3c-0.2-0.6-0.6-0.4-1-0.4c-0.3,0.4-0.6,0.7-0.9,1.1
			c0.1,0.6-0.3,1.1-0.5,1.6c-0.1,0.4,0.1,0.8,0.1,1.2c0.9,0.8,2,1.3,3.2,1.5c0.3,0.1,0.6,0.1,0.9-0.1c0.7-0.3,0.8-0.7,0.2-1.1
			c-0.2-0.1-0.4-0.3-0.2-0.6c-0.2,0-0.4,0-0.4-0.3c-0.1-0.1-0.1-0.1-0.2-0.1c-0.3-0.1-0.6,0.1-0.7,0.3c-0.4,0.6-0.8,0.4-1.2,0.1
			c-0.1-0.1-0.3-0.3-0.5-0.3C117,8,116.7,7.9,117,7.4c0.3-0.4,0.4-0.8,1-0.4c0.1,0.1,0.2,0.1,0.3,0.1c0.5,0.2,1,0.3,1.5,0.1
			c0.4-0.4,0.6-1.2,1.3-1.3c0.2-0.1,0.2-0.3,0.2-0.4c0.9-0.2,1.8-0.1,2.7-0.3c0,0,0.1-0.1,0.1-0.1c0.1-0.2,0-0.3-0.1-0.4
			C124,4.6,123.9,4.6,123.9,4.6z"/>
		<path class="st0" d="M125.1,7.5C125,7.4,125,7.4,125,7.3c-0.3-0.3-0.4-0.6-0.8-0.8c-0.4-0.1-0.7-0.2-0.8-0.6
			c-0.1-0.2,0-0.5-0.3-0.5c-0.6,0-1.1-0.3-1.6,0.2c0,0.4,0.2,0.7,0.6,0.8c0.2-0.4,0.5-0.3,0.9-0.1c-0.4,0-0.6-0.2-0.9,0.1
			c0.3,0.4,0.8,0.6,1.3,0.7c0.6,0.1,1.1,0.3,1,0.9c-0.1,0.6,0.1,1,0.2,1.5c0.5-0.3,0.8-0.8,0.9-1.2C125.9,7.7,125.2,7.8,125.1,7.5z"
			/>
		<path class="st0" d="M125.2,10.6c-0.2-0.3-0.3-0.6-0.6-0.8c-1.1-0.3-2-1.1-2.8-1.8c-0.1,0-0.2,0-0.3,0.1c-0.1,0.2-0.4,0.1-0.4,0.3
			c0,0.3,0.3,0.2,0.4,0.3c0.4,0.3,0.9,0.3,1.2,0.8c0.2,0.3,0.4,0.6,0.7,0.6c0.6,0,0.8,0.7,1.4,0.8c0.2,0,0.7,0.4,0.6,0.9
			c0,0.1-0.3,0.4,0,0.3c0.3-0.1,0.4,0.3,0.6,0c0.1-0.2,0-0.4-0.1-0.5C125.7,11.3,125.5,10.9,125.2,10.6z"/>
		<path class="st0" d="M125.2,6.2C125.4,6,125,6,124.9,6c-0.3,0.1-0.6-0.3-0.8,0.1c-0.1,0.2,0.2,0.3,0.2,0.4
			c0.3,0.3,0.3,0.7,0.8,0.8C125.7,7.2,125.1,6.6,125.2,6.2z"/>
		<path class="st0" d="M118.4,7c-0.1,0.2-0.1,0.3,0.1,0.4c0.6,0.2,0.9,0.8,1.4,1.1c0,0,0.1,0,0.1,0c0.3-0.4,0.1-0.8-0.1-1.2
			C119.5,7,118.9,7.3,118.4,7z"/>
		<path class="st0" d="M121.4,5.6c0,0,0.1,0,0.1,0c0.7-0.2,1.4-0.3,1.9,0.3c0.2-0.2,0.4-0.4,0.6-0.6C123.2,5.2,122.3,5.2,121.4,5.6z
			"/>
		<path class="st0" d="M120.8,7.2c-0.1,0-0.2,0.1-0.2,0.3c0,0.1,0.1,0.2,0.2,0.2c0.1,0,0.1-0.1,0.1-0.3
			C120.9,7.4,120.9,7.2,120.8,7.2z"/>
		<path class="st0" d="M124.2,4.7c0,0-0.1,0-0.1,0c0,0.1,0.1,0.3,0.1,0.4c0.1,0,0.1,0,0.2,0c0,0,0.1-0.1,0.1-0.1
			C124.6,4.7,124.3,4.9,124.2,4.7z"/>
		<path class="st0" d="M128.1,17.1c-0.1,0-0.3,0.1-0.4,0.1c-0.4,0.1-0.1,0.6-0.4,0.7c-0.7,0.4-0.4,0.9-0.2,1.4
			c0,0.3,0.1,0.8-0.2,0.9c-0.7,0.2-0.3,0.6-0.1,0.8c0.4,0.4,0.4,0.9,0.5,1.5c0.1,0.4,0.2,0.9,0.8,1.1c0.4,0,0.6-0.2,0.6-0.6
			c-0.1-0.2-0.2-0.4-0.3-0.6c-0.1-0.7-0.2-1.4-0.5-2c-0.1-0.3-0.1-0.5,0.1-0.8c0.1-0.2,0.3-0.3,0.3-0.5c0.3-0.4-0.3-0.8,0.1-1.2
			c0.2,0.1,0.3,0,0.4-0.1c0,0,0-0.1,0-0.1C128.7,17.3,128.5,17,128.1,17.1z"/>
		<path class="st0" d="M131.2,21.6c-0.2,0.3-0.2,0.8-0.6,0.8c-0.5,0.1-0.3-0.5-0.6-0.6c-0.1,0-0.1-0.1-0.1-0.1
			c-0.5,0-0.9-0.1-1.3-0.6c-0.2-0.2-0.6-0.3-0.6,0.1c0.1,0.4-0.2,0.9,0,1.3c0,0.2,0.1,0.4,0.3,0.4c0.4,0.1,1.1,0,0.9,0.9
			c0,0.2,0.3,0.3,0.5,0.4c0.6,0.3,1.3-0.1,1.8-0.9C131.6,22.7,131.5,22.1,131.2,21.6L131.2,21.6z"/>
		<path class="st0" d="M131.1,21.2c-0.8-0.1-1.2-0.4-1-1.3c-0.1-0.1-0.3-0.1-0.3-0.1c-0.3,0.4-0.6,0.2-0.9,0.1
			c-0.4-0.1-0.6-0.6-1.1-0.4c-0.1,0.3-0.4,0.5-0.3,0.7c0.4,0.7,0.4,1.6,0.7,2.3c-0.1-0.4,0.4-0.8,0.1-1.4c1.1,0.8,1.1,0.8,1.9,0.8
			c0.4-0.2,0.7-0.5,1.2-0.3C131.3,21.4,131.4,21.2,131.1,21.2z"/>
		<path class="st0" d="M129.6,23.9c-0.1-0.1-0.3-0.3-0.1-0.4c0.4-0.4,0.1-0.4-0.3-0.5c-0.3-0.1-0.6-0.1-0.9,0c0,0.3-0.2,0.4-0.4,0.5
			c0,0.3,0.2,0.6,0.4,0.7c0.4,0.1,0.3,0.4,0.3,0.6c0.2,0.1,0.4,0.2,0.6,0.3c0.2,0.1,0.4,0.3,0.6,0.1c0,0,0-0.1,0-0.2
			c-0.1-0.3-0.4-0.1-0.6-0.1c-0.1,0-0.1-0.1-0.1-0.1c0.1-0.2,0.2-0.3,0.3-0.3c0.6,0.4,1.1-0.2,1.6-0.1c0.2,0.1,0.3-0.1,0.3-0.2
			c0-0.3,0.1-0.6,0.1-0.9c-0.3,0.3-0.7,0.5-1,0.8C130.3,24.4,129.9,24.1,129.6,23.9z"/>
		<path class="st0" d="M129.2,25.4c-0.3-0.1-0.3-0.3-0.4-0.5c-0.8-0.4-1.1-1.5-2-1.5c0.1,1.1,0.9,2.7,2.3,2.6c0.2-0.1,0.4,0,0.4-0.2
			C129.5,25.6,129.4,25.4,129.2,25.4z"/>
		<path class="st0" d="M127.4,16.6c-0.4-0.1-0.5-0.4-0.8-0.5c-0.3,0.2-0.1,0.5-0.3,0.8c-0.1,0.3-0.1,0.4,0.2,0.6
			c0.4,0.3,0.4,0.4-0.1,0.5c-0.1,0-0.5-0.1-0.3,0.3c0.3,0.1,0.4,0.3,0.4,0.4c-0.1,0.3,0.4,0.7-0.3,0.9c-0.3,0.1-0.4,1-0.3,1.6
			c0.3-0.6,0.4-1.4,1.1-1.8c0-0.3,0.3-0.5-0.1-0.7c-0.2-0.1-0.1-0.3,0-0.4c0.6-0.2,0.4-0.7,0.6-1.1
			C127.9,16.9,127.9,16.5,127.4,16.6z"/>
		<path class="st0" d="M129.4,20c-0.3,0.2-0.3-0.1-0.4-0.3c-0.1-0.1-0.1-0.3,0.1-0.3c0.3,0.1,0.4,0.1,0.3-0.3
			c-0.1-0.3-0.2-0.6-0.6-0.4c-0.2,0.1-0.3,0.4-0.6,0.4c-0.2,0-0.4,0.1-0.4,0.3c0.4,0,0.4,0.4,0.7,0.5c0.6,0.1,1.2,0.4,1.8-0.1
			C129.9,19.7,129.7,19.8,129.4,20z"/>
		<path class="st0" d="M128.8,17.2c-0.2-0.2-0.3-0.3,0.1-0.3c0-0.1,0-0.2,0-0.3c-0.1,0-0.3-0.1-0.4-0.1c-0.1,0-0.2-0.1-0.3-0.1
			c0,0.3,0,0.5,0,0.8c0.3,0.1,0.4,0.4,0.6,0.6C129.1,17.6,129.2,17.4,128.8,17.2z"/>
		<path class="st0" d="M129.3,16.4c-0.1,0.2-0.2,0.3-0.3,0.5c0.2,0.2,0.1,0.6,0.4,0.6C129.4,17.1,129.6,16.7,129.3,16.4z"/>
		<path class="st0" d="M128.3,17.9c0,0.2-0.1,0.5,0.3,0.4c0.3-0.1,0.4-0.3,0.2-0.6C128.6,17.8,128.4,17.9,128.3,17.9z"/>
		<path class="st0" d="M114.5,2c-0.1,0.1-0.4,0.1-0.4,0.4s0.3,0.4,0.5,0.4c0.3,0,0.4-0.1,0.3-0.4C114.9,2.2,114.7,2,114.5,2z"/>
		<path class="st0" d="M125.9,13.2c-0.1-0.1-0.1-0.2-0.1-0.3c-0.2,0-0.4-0.1-0.6-0.1c-0.1,0-0.3-0.1-0.4,0c-0.1,0-0.1,0.1-0.2,0.2
			c-0.1,0.2-0.1,0.3-0.1,0.5c0.1,0.4,0.3,0.6,0.7,0.3c0.3-0.1,0.4,0.1,0.5,0.4c0.1,0.1,0.2,0.3,0.1,0.4c0.1,0.1,0.2,0.3,0.4,0.2
			c0.7-0.5,0.1-0.9-0.1-1.4C126,13.2,125.9,13.2,125.9,13.2z"/>
		<path class="st0" d="M122.7,9.5c-0.1-0.1-0.3-0.1-0.3-0.1c-0.3-0.3-0.6-0.3-0.9-0.1c-0.4,0.3,0.6,0.3,0.1,0.5
			c0.3,0.1,0.1,0.5,0.4,0.6c0.3-0.3,0.6-0.4,0.9-0.1c0.1,0.1,0.3,0.2,0.4,0.1c0-0.1,0.1-0.2,0.1-0.3C123.3,9.9,123,9.7,122.7,9.5z"
			/>
		<path class="st0" d="M124,11.5c-0.2-0.3-0.3-0.6-0.6-0.6c-0.1-0.1-0.3-0.1-0.4,0c-0.1,0-0.3,0.1-0.4,0.2c-0.1,0.2-0.3,0.3-0.3,0.6
			c0.6,0.1,1.4,0.1,1.8,0.8c0.3,0.1,0.5,0.3,0.8,0.3c0.1,0,0.2,0.2,0.3,0c0,0-0.1-0.1,0-0.1C125,12,124.4,11.9,124,11.5z"/>
		<path class="st0" d="M123.4,10.4c-0.2,0.1-0.3-0.1-0.4-0.2c-0.5-0.6-0.8-0.4-0.9,0.3c0.1,0.1,0.1,0.1,0.1,0.1
			c0.2,0.3,0.5,0.4,0.9,0.5c0.1,0,0.3,0,0.4,0c0.1-0.1,0.1-0.1,0.1-0.3C123.7,10.6,123.6,10.4,123.4,10.4z"/>
		<path class="st0" d="M124,11.5c0,0-0.1,0-0.1,0c0.1,0.1,0.1,0.3,0.2,0.5c0.6-0.3,0.6,0.4,1,0.6c0-0.3-0.1-0.4-0.2-0.6
			C124.8,11.1,124.7,11,124,11.5z"/>
		<path class="st0" d="M123.5,10.9c0,0-0.1,0.1-0.1,0.1c0.3-0.1,0.3,0.4,0.6,0.4C124,11.2,124.2,10.7,123.5,10.9z"/>
		<path class="st0" d="M127.3,13.3c-0.4,0.4-0.5-0.4-0.8-0.4c0,0-0.1,0-0.1,0c-0.3,0.3-0.1,0.7,0,1c0.1,0.3,0.1,0.8,0.4,0.9
			c0.3,0.1,0.6,0,0.6-0.3c-0.3-0.8,0.5-1.1,0.8-1.7C127.7,12.7,127.5,13.1,127.3,13.3z"/>
		<path class="st0" d="M125.9,13.3c0.1,0.4,0.7,0.9,0.1,1.4c-0.1,0-0.3,0-0.4,0.1c-0.1,0.1-0.1,0.1-0.1,0.2s0,0.1,0.1,0.2
			c0.3,0.3,0.1,0.5,0,0.8c0,0.1,0,0.1,0.1,0.2c0.1,0.2,0.3,0.3,0.4,0.3c0.2-0.1,0.3-0.4,0.4-0.5c0.1-0.3,0.2-0.9,0.2-1.1
			c-0.1-0.3-0.2-0.6-0.3-0.9C126.4,13.7,126.4,13.2,125.9,13.3z"/>
		<path class="st0" d="M126.6,16c0,0,0-0.1,0-0.1c-0.3,0-0.4,0.1-0.4,0.4c-0.1,0.3,0.1,0.4,0.3,0.4C127,16.6,126.4,16.2,126.6,16z"
			/>
		<path class="st0" d="M121.7,11.9c-0.1,0-0.1,0-0.1,0c-0.4,0.1-0.3-0.3-0.3-0.5c-0.1-0.3,0-0.8-0.6-0.6c-0.3,0.3-0.6,0.2-0.9,0.3
			c-0.3,0.3,0.1,0.4,0.3,0.6c0.4,0.4,1,0.6,1.4,1.1c0.2,0.3,0.5,0.4,0.8,0.5c0.3-0.1,0.5-0.3,0.6-0.6
			C122.7,12.2,122.2,12,121.7,11.9z"/>
		<path class="st0" d="M121.5,9.9c-0.3,0.2-0.4,0.4-0.3,0.8c0.1,0.4,0.2,0.8,0.3,1.2c0.3,0.2,0.6,0.3,0.8-0.3
			c0.1-0.1,0.3-0.2,0.3-0.4c-0.1-0.3-0.4-0.5-0.6-0.8C121.6,10.5,122.2,9.7,121.5,9.9z"/>
		<path class="st0" d="M116.4,9.1c0.1-0.4,0-0.8-0.1-1.2C116,8.4,116.2,8.7,116.4,9.1z"/>
		<path class="st0" d="M125.9,13.2c0,0,0,0.1,0,0.1c0.3,0.1,0.4,0.4,0.6,0.6c-0.1-0.4-0.1-0.8-0.1-1.1C126.2,12.9,126,13,125.9,13.2
			z"/>
		<path class="st0" d="M126.5,17.1c-0.1-0.1-0.1-0.3-0.1-0.4c-0.1-0.1-0.2-0.3-0.3-0.4c-0.1-0.1-0.3-0.2-0.5-0.3
			c-0.5,0-0.5-0.7-1-0.6l-0.1,0.1c0,0.4,0.2,0.7,0.5,0.9c0.6,0.4,0.7,1,0.6,1.6c0,0.2,0.1,0.3,0.1,0.5c0.3,0,0.4-0.1,0.4-0.3v-0.1
			l0.1-0.1c0.3-0.1,0.7,0.3,0.8-0.3C127.2,17.2,126.7,17.3,126.5,17.1z"/>
		<path class="st0" d="M123.4,14c-0.1,0.1-0.1,0.2-0.1,0.3c0.1,0.1,0.1,0.1,0.3,0.2c0.3,0.5,0.3,1.3,1.2,0.9
			c-0.1-0.4-0.4-0.8-0.6-1.1C123.9,14.1,123.7,13.8,123.4,14z"/>
		<path class="st0" d="M121.9,14c-0.1,0.3,0.3,0.4,0.3,0.7c0.3,0.1,0.7-0.4,0.9,0.2c0.1-0.1,0.3-0.2,0.4-0.3
			c-0.1-0.1-0.1-0.1-0.1-0.2C123,13.8,122.4,13.9,121.9,14z"/>
		<path class="st0" d="M124.2,16.4c0.4,0,0.3,0.7,0.7,0.7c0.1-0.4-0.1-0.6-0.3-0.9C124.4,16,124.3,16.2,124.2,16.4z"/>
		<path class="st0" d="M117.7,0.7c-0.1,0-0.1,0.1-0.1,0.3c0,0.2,0.2,0.5-0.2,0.5c-0.4,0-0.3-0.3-0.3-0.5c-0.1-0.3-0.3-0.4-0.5-0.3
			c-0.3,0.1-0.2,0.3-0.1,0.5c0.3,0.8,0.9,0.9,1.7,0.3c0-0.1,0-0.1,0-0.1c-0.1-0.2-0.1-0.4-0.2-0.5C117.9,0.7,117.7,0.7,117.7,0.7z"
			/>
		<path class="st0" d="M124,4.7c-0.3-0.1-0.6-0.1-0.8-0.1C123.4,4.7,123.7,5,124,4.7z"/>
		<path class="st0" d="M128.9,16.2c-0.2,0.1,0.1,0.3,0.1,0.4c0.1-0.1,0.2-0.2,0.1-0.4H128.9z"/>
		<path class="st0" d="M119.1,1c-0.6,0.2-0.4,0.5-0.3,0.9c0,0.1,0,0.3,0,0.4c0.4,0.1,0.7,0.3,0.9-0.1c-0.3-0.1-0.5-0.4-0.8-0.8
			c0.4-0.1,0.6,0.4,1,0.3C119.8,1.3,119.7,0.9,119.1,1z"/>
		<path class="st0" d="M122.7,13.4c-0.1-0.1-0.3-0.2-0.5-0.3c-0.1-0.3-0.6-0.2-0.8-0.4c-0.2,0.5,0.4,0.8,0.4,1.2
			c0.4,0.3,1.1,0.1,1.5,0.4c0-0.1,0-0.2,0-0.3C123.2,13.7,122.9,13.6,122.7,13.4z"/>
		<path class="st0" d="M124.2,4.7c0.1,0.1,0.2,0.2,0.3,0.3c0.1,0,0.3-0.1,0.2-0.1C124.6,4.7,124.4,4.7,124.2,4.7z"/>
		<path class="st0" d="M118.4,7c-0.3-0.3-0.6-0.1-0.8-0.4c-0.1-0.1-0.4-0.1-0.4,0.1c0,0.4-0.3,0.6-0.4,0.9c-0.1,0.3-0.2,0.5,0.2,0.7
			c0.4,0.2,0.9,0.4,1.3,0.8c0.2,0.3,0.7,0.3,0.8,0.1c0.1-0.4,0.5-0.6,0.9-0.7c0-0.3-0.3-0.4-0.3-0.6C119.4,7.4,118.7,7.4,118.4,7z"
			/>
		<path class="st0" d="M119.4,9.5c-0.1,0-0.2,0.1-0.2,0.2c0,0.2,0.1,0.3,0.3,0.3s0.3-0.1,0.2-0.3C119.6,9.6,119.5,9.5,119.4,9.5z"/>
		<path class="st0" d="M123,6.1c-0.3-0.1-0.5-0.4-0.8-0.2c-0.2,0.1-0.1,0.3,0,0.5c0.3-0.1,0.5,0,0.8,0.3c0.2,0.1,0.3,0,0.4-0.2
			C123.4,6.2,123.2,6.2,123,6.1z"/>
		<path class="st0" d="M130.1,21.9c0.1,0.1,0.1,0.2,0.1,0.3c0.1,0.2-0.2,0.5,0.2,0.6c0.3,0,0.5-0.1,0.7-0.3c0.3-0.3,0.2-0.5,0.2-0.8
			C130.7,21.1,130.5,21.1,130.1,21.9z"/>
		<path class="st0" d="M125.1,13.5c-0.4,0.4-0.4,0.1-0.6-0.2c0.1-0.2,0.1-0.3-0.1-0.3c-0.2,0-0.3,0-0.4,0.2c0,0.2,0.1,0.4,0.1,0.7
			c-0.1,0.6,0.1,0.7,0.8,0.6c0.2-0.1,0.4,0.1,0.6,0.1c0.1,0,0.3-0.1,0.3-0.2c0.2-0.1,0-0.2,0-0.3C125.6,13.8,125.4,13.6,125.1,13.5z
			"/>
		<path class="st0" d="M124.1,12.4c-0.1,0.3,0,0.4,0.1,0.5c0.2,0,0.3,0.1,0.4,0c0.1-0.1,0.1-0.1,0.2-0.2
			C124.7,12.4,124.4,12.2,124.1,12.4z"/>
		<path class="st0" d="M125.1,13.4c0.1,0.3,0.4,0.4,0.6,0.6C125.7,13.6,125.6,13.6,125.1,13.4z"/>
		<path class="st0" d="M125.5,14.5c0,0.2,0.1,0.3,0.3,0.3c0.1,0,0.3,0,0.3-0.1c-0.1-0.1-0.2-0.2-0.3-0.3
			C125.7,14.4,125.5,14.4,125.5,14.5z"/>
		<path class="st0" d="M124.4,12.9c-0.1,0.1,0,0.1,0,0.2c0.1,0,0.2,0.1,0.2,0.3c0.2-0.1,0.1-0.3,0.1-0.4
			C124.5,12.9,124.5,12.7,124.4,12.9z"/>
		<path class="st0" d="M122.5,11.7c0,0.1-0.1,0-0.2,0c-0.1,0.4-0.4,0.3-0.8,0.3c0.4,0.3,0.9,0.4,1.2,0.8v0.1
			c0.1,0.2,0.1,0.4,0.3,0.6c0.3-0.2,0.7-0.1,1-0.3c0-0.1,0.1-0.1,0.3-0.1c0,0,0-0.1,0-0.1c-0.1-0.2-0.2-0.3-0.3-0.5
			C123.8,11.7,123.3,11.4,122.5,11.7z"/>
		<path class="st0" d="M122.5,11.2c0.1-0.1,0.3-0.1,0.4-0.2c-0.3-0.2-0.6-0.4-0.9-0.6C122,10.8,122.2,11.1,122.5,11.2z"/>
		<path class="st0" d="M124.8,14.4c-0.3,0.1-0.9-0.1-0.6-0.4c0.3-0.4,0-0.5-0.1-0.8c-0.4-0.1-0.8-0.2-1.1,0.1
			c-0.1-0.1-0.1-0.1-0.3-0.1c-0.1,0-0.3,0.1-0.3,0.3c0.3,0.3,0.5,0.4,0.8,0.6c0.1,0,0.3,0,0.4,0.1c0.4,0.4,0.5,0.9,1,1.2
			c0.3,0.1,0.5,0.3,0.6,0.6c0.1,0.3,0.3,0.3,0.4-0.1c-0.1-0.3-0.3-0.6,0-0.9c0,0,0-0.1,0-0.1C125.5,14.6,125.1,14.5,124.8,14.4z"/>
		<path class="st0" d="M125.7,15.1c-0.5,0.1-0.5,0.3,0,0.9C126,15.7,126.4,15.4,125.7,15.1z"/>
		<path class="st0" d="M124.9,14.4c0.2,0.3,0.6,0.4,0.9,0.6c0,0,0-0.1,0-0.1c-0.1-0.1-0.2-0.2-0.3-0.3
			C125.3,14.5,125.2,13.9,124.9,14.4z"/>
		<path class="st0" d="M122.2,13.2c0.1,0.2,0.3,0.3,0.4,0.3c0.1-0.1,0.2-0.2,0.3-0.2c0.1-0.3-0.1-0.4-0.2-0.6
			C122.5,12.9,122.4,13.1,122.2,13.2z"/>
		<path class="st0" d="M122.7,12.7c0.1,0.2,0.1,0.4,0.2,0.6c0,0,0,0,0.1,0C123,13.1,123.1,12.8,122.7,12.7z"/>
	</g>
</g>
</svg>
